<svg xmlns="http://www.w3.org/2000/svg" width="50" height="32.463" viewBox="0 0 50 32.463">
  <g id="Mask_Group_31" data-name="Mask Group 31" transform="translate(-127 -176.769)">
    <path id="Icon_Nghé_14-31" data-name="Icon Nghé 14-31" d="M169.769,188.309a6.112,6.112,0,1,0-8.923-5.385,5.835,5.835,0,0,0,3.385,5.385A9.6,9.6,0,0,0,157.769,194a11.549,11.549,0,0,0-3.077-1.538,6.112,6.112,0,1,0-8.923-5.385,6,6,0,0,0,3.385,5.384A10.494,10.494,0,0,0,145.923,194a10.224,10.224,0,0,0-6.308-5.231,6.112,6.112,0,1,0-8.923-5.385,6,6,0,0,0,3.385,5.385A10.461,10.461,0,0,0,127,198.461v10.771h3.077v-10.77a6.916,6.916,0,0,1,13.538-2,9.949,9.949,0,0,0-1.692,5.692v7.077H145v-7.076a6.923,6.923,0,1,1,13.846,0v7.077h3.077v-7.077a10.316,10.316,0,0,0-1.692-5.692,6.915,6.915,0,0,1,13.692,1.384v11.385H177V198A10.108,10.108,0,0,0,169.769,188.309ZM137,180.462a3.077,3.077,0,1,1-3.077,3.077h0A3.086,3.086,0,0,1,137,180.462ZM151.923,184a3.077,3.077,0,1,1-3.077,3.077h0A3.086,3.086,0,0,1,151.923,184ZM167,179.847a3.077,3.077,0,1,1-3.077,3.077h0A3.086,3.086,0,0,1,167,179.847Z" fill="#0a2642"/>
  </g>
</svg>
