<svg xmlns="http://www.w3.org/2000/svg" width="46.923" height="50" viewBox="0 0 46.923 50">
  <g id="Group_5231" data-name="Group 5231" transform="translate(155.331 -421.038)">
    <path id="Path_3050" data-name="Path 3050" d="M-108.408,448.677a4.633,4.633,0,0,0-4.6-4.667h-7.944a14.142,14.142,0,0,0,1.907-7.333v-.47a5.888,5.888,0,0,0-1.732-4.193,5.937,5.937,0,0,0-4.194-1.781h-.048a3.049,3.049,0,0,0-3.012,2.72c-.6,7.238-7.61,10.962-12.306,13.228v-.745a1.416,1.416,0,0,0-1.425-1.408h-13.568v26.993h10.541a4.445,4.445,0,0,0,3.983-2.461c5.084,2.186,9.488,2.478,14.54,2.478.874,0,1.75-.016,2.672-.016,1-.016,2.04-.033,3.125-.033h4.291a4.584,4.584,0,0,0,4.667-4.1,4.4,4.4,0,0,0-.6-2.591,4.434,4.434,0,0,0,2.132-3.79,4.462,4.462,0,0,0-.615-2.25,4.435,4.435,0,0,0,2.138-3.788,4.358,4.358,0,0,0-1.182-2.98A4.454,4.454,0,0,0-108.408,448.677Zm-34.779,17.908a1.606,1.606,0,0,1-1.6,1.6h-7.691V446.864h9.294Zm27.283-13.714h2.979a1.621,1.621,0,0,1,1.62,1.6,1.624,1.624,0,0,1-1.62,1.621h-2.98a1.418,1.418,0,0,0-1.425,1.409h0a1.417,1.417,0,0,0,1.425,1.408h1.458a1.621,1.621,0,0,1,1.619,1.6,1.624,1.624,0,0,1-1.619,1.619h-1.522a1.424,1.424,0,0,0-1.425,1.409,1.423,1.423,0,0,0,1.425,1.408,1.621,1.621,0,0,1,1.619,1.6,1.624,1.624,0,0,1-1.619,1.619h-4.5c-1.1,0-2.154,0-3.158.016-6.347.048-11.01.1-16.677-2.509V449.325c.145-.065.291-.146.453-.227a39.9,39.9,0,0,0,8.775-5.262,15.385,15.385,0,0,0,5.894-10.638.215.215,0,0,1,.162-.146H-125a3.124,3.124,0,0,1,3.108,3.125v.5a12.177,12.177,0,0,1-2.38,7.334h-2.27a1.417,1.417,0,0,0-1.425,1.409h0a1.416,1.416,0,0,0,1.425,1.408h13.667a1.62,1.62,0,0,1,1.619,1.6,1.623,1.623,0,0,1-1.619,1.622h-3.027a1.418,1.418,0,0,0-1.426,1.409h0a1.418,1.418,0,0,0,1.425,1.409h0Z" fill="#001a31"/>
    <path id="Path_3051" data-name="Path 3051" d="M-132.646,436.112h1.425v-2.834H-137.1v2.834Z" fill="#001a31"/>
    <path id="Path_3052" data-name="Path 3052" d="M-115.84,433.278v2.834h5.894v-2.834Z" fill="#001a31"/>
    <rect id="Rectangle_2610" data-name="Rectangle 2610" width="2.833" height="5.894" transform="translate(-125.781 421.038)" fill="#001a31"/>
    <rect id="Rectangle_2611" data-name="Rectangle 2611" width="2.833" height="5.894" transform="translate(-135.22 425.372) rotate(-45)" fill="#001a31"/>
    <rect id="Rectangle_2612" data-name="Rectangle 2612" width="5.894" height="2.833" transform="translate(-119.04 427.535) rotate(-45)" fill="#001a31"/>
  </g>
</svg>
