<svg xmlns="http://www.w3.org/2000/svg" width="50" height="39.831" viewBox="0 0 50 39.831">
  <g id="Mask_Group_37" data-name="Mask Group 37" transform="translate(240 -283.649)">
    <path id="Ecoe_Icons-03" data-name="Ecoe Icons-03" d="M-190,297.242l-24.965-13.593L-240,297.256l6.747,3.2v7.928l.562.422a34.272,34.272,0,0,0,18.794,5.96,28.005,28.005,0,0,0,9.165-1.546v2.066a4.215,4.215,0,0,0-2.57,5.381,4.215,4.215,0,0,0,5.381,2.57,4.215,4.215,0,0,0,2.57-5.381,4.213,4.213,0,0,0-2.57-2.57V312.1a32.832,32.832,0,0,0,5.5-3.261l.577-.421v-8.281Zm-13.4,23.39a1.406,1.406,0,0,1-1.406-1.406,1.405,1.405,0,0,1,1.406-1.406,1.405,1.405,0,0,1,1.406,1.406h0a1.406,1.406,0,0,1-1.4,1.406ZM-214.965,286.8l18.865,10.247-7.281,3.542-10.95-5.356-1.252,2.517,9,4.512-8.125,3.95-19.093-9.123Zm-15.462,20.115V301.8l15.73,7.492,9.84-4.793v5.8c-12.244,4.794-23.012-1.6-25.587-3.331Zm31.712,0a30.545,30.545,0,0,1-3.261,2v-5.82l3.261-1.588Z" fill="#0a2642"/>
  </g>
</svg>
