<svg xmlns="http://www.w3.org/2000/svg" width="50" height="46.405" viewBox="0 0 50 46.405">
  <g id="Mask_Group_38" data-name="Mask Group 38" transform="translate(56.999 -280.361)">
    <g id="Ecoe_Icons-Maps-02" data-name="Ecoe Icons-Maps-02">
      <path id="Path_4657" data-name="Path 4657" d="M-38.168,306.121H-18.7a2.339,2.339,0,0,0,2.044-1.208l9.417-17.037a1.9,1.9,0,0,0,0-1.843,1.872,1.872,0,0,0-1.549-.9h0l-37.388.2-1.719-3.64A2.369,2.369,0,0,0-50,280.361h-7v3.1h6.431l9.881,20.847-3.83,6.862a3.268,3.268,0,0,0,0,3.237,3.223,3.223,0,0,0,2.8,1.549h29.38v-2.974H-41.668a.172.172,0,0,1-.157-.184.18.18,0,0,1,.018-.064ZM-10.985,288.2l-8.224,14.822H-37.795l-6.908-14.6Z" fill="#0a2642"/>
      <circle id="Ellipse_453" data-name="Ellipse 453" cx="4.166" cy="4.166" r="4.166" transform="translate(-45.678 318.434)" fill="#0a2642"/>
      <circle id="Ellipse_454" data-name="Ellipse 454" cx="4.166" cy="4.166" r="4.166" transform="translate(-20.665 318.434)" fill="#0a2642"/>
    </g>
  </g>
</svg>
