<svg xmlns="http://www.w3.org/2000/svg" width="50" height="29.094" viewBox="0 0 50 29.094">
  <g id="Mask_Group_34" data-name="Mask Group 34" transform="translate(-495 -289.019)">
    <g id="Icon_Nghé_14-38" data-name="Icon Nghé 14-38">
      <path id="Path_4648" data-name="Path 4648" d="M536.808,294.951c-5.229-3.67-10.737-5.932-14.55-5.932H495v2.962h27.258a17.339,17.339,0,0,1,7.062,1.977,7.208,7.208,0,0,1,.706.424l.141.141h0l.424.282h-3.814v5.226a3.2,3.2,0,0,0,3.149,3.25h11.4c.141.282.282.424.424.706l.141.141a1.073,1.073,0,0,1,.141.565v.424a4.582,4.582,0,0,1-4.644,4.519H495V312.6h43.217A7.62,7.62,0,0,0,545,305.117v-.424C545.137,302.3,541.889,298.481,536.808,294.951Zm-6.638,5.367a.375.375,0,0,1-.424-.316.4.4,0,0,1,0-.108v-2.4h5.79a36.129,36.129,0,0,1,3.672,2.824Z" fill="#0a2642"/>
      <path id="Path_4649" data-name="Path 4649" d="M523.108,299.753V294.81H498.955a3.738,3.738,0,0,0-3.672,3.671v4.661h24.433A3.438,3.438,0,0,0,523.108,299.753Zm-15.253.565h-9.747v-1.837a.911.911,0,0,1,.847-.847h8.753v2.683Zm12.428-.565a.608.608,0,0,1-.565.565h-9.041v-2.684h9.6v2.118Z" fill="#0a2642"/>
      <path id="Path_4650" data-name="Path 4650" d="M536.663,312.605h-2.824a1.271,1.271,0,0,1-2.542,0h-2.825a4.462,4.462,0,0,0,.989,2.683h-24.01a3.73,3.73,0,0,0,.989-2.683h-2.825a1.271,1.271,0,0,1-2.542,0h-2.824a4.462,4.462,0,0,0,.989,2.683H495v2.825h48.3v-2.825h-7.484A4.077,4.077,0,0,0,536.663,312.605Z" fill="#0a2642"/>
    </g>
  </g>
</svg>
