<svg xmlns="http://www.w3.org/2000/svg" width="31.047" height="39.876" viewBox="0 0 31.047 39.876">
  <g id="Mask_Group_33" data-name="Mask Group 33" transform="translate(-498.379 -185.373)">
      <path id="Path_4647" data-name="Path 4647" d="M529.351,209.763v-.258c-.645-2.452-2.452-3.742-4.646-3.1a3.7,3.7,0,0,0-3.355-2.194,3.83,3.83,0,0,0-1.291.258,3.631,3.631,0,0,0-3.1-1.678,1.643,1.643,0,0,0-.774.129v-3.481a3.613,3.613,0,0,0-7.227,0v12.518l-.643-1.028a4.229,4.229,0,0,0-2.323-1.807,3.47,3.47,0,0,0-2.71.516c-1.29.9-1.678,2.71-1.032,4.775a.4.4,0,0,0,.129.258,50.546,50.546,0,0,0,5.163,10.578h3.613c-1.936-1.936-4-5.936-6.194-11.485a.455.455,0,0,0-.129-.258c-.258-.9-.129-1.42,0-1.549.129,0,.258-.129.516-.129.258.129.387.129.516.387l3.226,5.549a1.571,1.571,0,0,0,1.549.645,1.257,1.257,0,0,0,1.032-1.291V199.439a.774.774,0,0,1,1.549,0V211.7a1.42,1.42,0,0,0,2.839.075q0-.038,0-.075v-5.162a.774.774,0,0,1,1.549,0v5.549a1.42,1.42,0,0,0,2.839,0v-4.13a.774.774,0,0,1,1.549,0v4.13a1.42,1.42,0,0,0,2.839,0v-2.193a.834.834,0,0,1,.774-.774c.516,0,.774.774.9,1.032.129,2.452.387,10.969-1.29,14.97h2.968C529.867,219.442,529.351,209.893,529.351,209.763Z" fill="#0a2642"/>
      <rect id="Rectangle_3431" data-name="Rectangle 3431" width="8.517" height="2.581" transform="translate(498.379 198.278)" fill="#0a2642"/>
      <rect id="Rectangle_3432" data-name="Rectangle 3432" width="8.517" height="2.581" transform="translate(518.382 198.278)" fill="#0a2642"/>
      <rect id="Rectangle_3433" data-name="Rectangle 3433" width="8.517" height="2.581" transform="translate(515.766 194.678) rotate(-45)" fill="#0a2642"/>
      <rect id="Rectangle_3434" data-name="Rectangle 3434" width="2.581" height="8.517" transform="translate(501.693 190.464) rotate(-45)" fill="#0a2642"/>
      <rect id="Rectangle_3435" data-name="Rectangle 3435" width="2.581" height="8.517" transform="translate(511.284 185.373)" fill="#0a2642"/>
  </g>
</svg>
