<svg xmlns="http://www.w3.org/2000/svg" width="46.536" height="50.001" viewBox="0 0 46.536 50.001">
  <g id="Mask_Group_30" data-name="Mask Group 30" transform="translate(68.269 -171.396)">
    <g id="Ecoe_Icons-04" data-name="Ecoe Icons-04">
      <path id="Path_4645" data-name="Path 4645" d="M-28.382,182.244l.166-5.278-11.97-.388L-50.992,171.4l-2.286,4.78-7.3-.249-.526,16.542L-68.269,207.4l6.595,3.173-.18,5.265,11.97.388,10.792,5.168,2.286-4.752,7.3.236.61-16.487,7.163-14.935Zm2.882,4.461-3.241,6.761.263-8.188ZM-43.012,216.45l3.186.1-.568,1.164Zm-4-40.094-3.228-.1.568-1.178Zm15.932,3.256-1.1,34.372L-59,213.139l1.094-34.386ZM-61.328,199.33l-.263,8.2-2.993-1.385Z" fill="#0a2642"/>
      <rect id="Rectangle_3428" data-name="Rectangle 3428" width="2.77" height="19.485" transform="translate(-54.558 189.619) rotate(-88.051)" fill="#0a2642"/>
      <rect id="Rectangle_3429" data-name="Rectangle 3429" width="2.771" height="19.493" transform="translate(-54.729 194.647) rotate(-88.1)" fill="#0a2642"/>
      <rect id="Rectangle_3430" data-name="Rectangle 3430" width="2.773" height="19.511" transform="matrix(0.03, -1, 1, 0.03, -55.011, 199.506)" fill="#0a2642"/>
      <path id="Path_4646" data-name="Path 4646" d="M-35.489,202.54l-19.479-.651-.1,2.757,19.479.665Z" fill="#0a2642"/>
    </g>
  </g>
</svg>
