<svg xmlns="http://www.w3.org/2000/svg" width="50" height="42.91" viewBox="0 0 50 42.91">
  <g id="Mask_Group_32" data-name="Mask Group 32" transform="translate(-317 -180.434)">
    <path id="Icon_Nghé_14-32" data-name="Icon Nghé 14-32" d="M367,205.561l-25.515-25.127L317,204.534l1.8,1.8,5.026-4.9v21.91h36.731V202.726l4.639,4.508Zm-29.768-.515a2.526,2.526,0,0,1-.129-.9,2.848,2.848,0,0,1,1.8-2.706l1.16-.387-.258-1.16a1.639,1.639,0,0,1-.129-.773,2.5,2.5,0,0,1,2.279-2.7l.041,0a2.58,2.58,0,0,1,2.32,2.706,1.161,1.161,0,0,1-.129.644l-.258,1.418,1.418.129a2.576,2.576,0,0,1,2.062,2.706,2.525,2.525,0,0,1-.129.9l-.387,1.16,1.16.387a4.2,4.2,0,0,1,2.577,4.124c0,2.191-1.546,4.124-3.351,4.253H344.32l3.222-5.67-2.191-1.289-1.933,3.352v-8.895H340.84v9.536l-2.319-3.741-2.2,1.293,3.479,5.67h-2.444a4.04,4.04,0,0,1-3.735-4.253,4.3,4.3,0,0,1,2.7-4.123l1.16-.387ZM357.98,220.9H343.547v-3.222h3.995c3.351-.258,5.8-3.222,5.8-6.83a7.032,7.032,0,0,0-3.351-6.057v-.515a5.322,5.322,0,0,0-3.093-4.9,5.071,5.071,0,0,0-4.851-5.282l-.049,0a5.153,5.153,0,0,0-4.9,5.284v.262a5.411,5.411,0,0,0-2.572,4.638v.515a6.876,6.876,0,0,0-3.351,6.057,6.615,6.615,0,0,0,6.314,6.83h3.479V220.9H326.407V198.989l15.077-14.82,16.5,16.237Z" fill="#0a2642"/>
  </g>
</svg>
