<svg xmlns="http://www.w3.org/2000/svg" width="46.211" height="45.119" viewBox="0 0 46.211 45.119">
  <g id="Group_5166" data-name="Group 5166" transform="translate(-1110.5 -2209)">
    <g id="Group_5159" data-name="Group 5159">
      <g id="Group_5158" data-name="Group 5158" transform="translate(360.479 1740.155)">
        <path id="Path_4659" data-name="Path 4659" d="M766.344,468.845H755.208v19.37a7.53,7.53,0,0,0,2.2,5.323l4.621,4.621v15.806h20.979V503.907H787.4a8.827,8.827,0,0,0,8.827-8.827v-3.243H766.344Z" transform="translate(0)" fill="#dbf3f4"/>
        <rect id="Rectangle_3437" data-name="Rectangle 3437" width="26.667" height="3.118" transform="translate(769.565 485.219)" fill="#dbf3f4"/>
      </g>
      <g id="Icon_NgheÌ_14-15" transform="translate(1099.8 2200.611)">
        <path id="Path_4658" data-name="Path 4658" d="M23.036,30.464V10.4H10.7V28.566A7.678,7.678,0,0,0,13,34.124l3.66,3.66V52.289H37.677V43.478h2.44A9.083,9.083,0,0,0,49.2,34.395v-4.2H23.036Zm23.317,4.2a6.364,6.364,0,0,1-6.372,6.372H34.83v8.812H19.376V36.835L14.9,32.361a5.238,5.238,0,0,1-1.491-3.66V13.111h6.914V33.039H46.353Z" fill="#0c959c"/>
        <rect id="Rectangle_3436" data-name="Rectangle 3436" width="23.182" height="2.711" transform="translate(25.612 24.634)" fill="#0c959c"/>
      </g>
    </g>
  </g>
</svg>
