<svg xmlns="http://www.w3.org/2000/svg" width="63.801" height="41.48" viewBox="0 0 63.801 41.48">
  <g id="Group_5233" data-name="Group 5233" transform="translate(-886 -2330)">
    <g id="Group_3592" data-name="Group 3592" transform="translate(6 -1215)">
      <g id="Group_3558" data-name="Group 3558" transform="translate(6 3)">
        <path id="Path_2908" data-name="Path 2908" d="M5113.492,7514h2.928v9.333s6.626-9.333,22.381-9.333v32.229h-29.146v-11.654h3.837Z" transform="translate(-4230 -3965)" fill="#dbf3f4"/>
      </g>
      <g id="Group_3559" data-name="Group 3559" transform="translate(914.655 3552)">
        <path id="Path_2908-2" data-name="Path 2908" d="M5134.963,7514h-2.928v9.333s-6.626-9.333-22.381-9.333v32.229H5138.8v-11.654h-3.837Z" transform="translate(-5109.654 -7514)" fill="#dbf3f4"/>
      </g>
    </g>
    <path id="Path_2919" data-name="Path 2919" d="M61.006,33.512V12.94h-3.2v9.926a30.768,30.768,0,0,0-22.2-9.591,30.367,30.367,0,0,0-21.643,8.967v-9.3h-3.2V33.512H7.57v20.46h3.2v-8.6H60.878V54.42h3.2V33.512ZM13.964,27.118A27.351,27.351,0,0,1,35.607,16.553a27.689,27.689,0,0,1,22.2,11.253v5.706H50.233v-3.2a4.572,4.572,0,0,0-4.572-4.492H26.192a4.8,4.8,0,0,0-4.8,4.8v2.909H13.916Zm20.284,6.394H24.657V30.507a1.6,1.6,0,0,1,1.6-1.6h8.1Zm12.788,0H37.445V29.02h8.184a1.454,1.454,0,0,1,1.455,1.455ZM10.719,42.176V36.709h50.16v5.467Z" transform="translate(878.43 2317.06)" fill="#08989f"/>
  </g>
</svg>
