<svg xmlns="http://www.w3.org/2000/svg" width="66.042" height="41.272" viewBox="0 0 66.042 41.272">
  <g id="Group_5231" data-name="Group 5231" transform="translate(-440 -2335.868)">
    <g id="Group_3594" data-name="Group 3594" transform="translate(-30 -1265)">
      <g id="Group_3588" data-name="Group 3588" transform="translate(470.45 3593.008)">
        <path id="Path_2907" data-name="Path 2907" d="M65.592,34.56a4.756,4.756,0,0,0-4.741-4.741H58.535v-7.8a8.169,8.169,0,0,0-8.094-8.155H20.732a8.171,8.171,0,0,0-8.17,8.155v7.8H10.809A5.273,5.273,0,0,0,5.55,35.078V45.916h7.042v3.216h3.049V45.916H55.486v3.216h3.049V45.916h7.058ZM15.61,22.015a5.122,5.122,0,0,1,5.122-5.106H50.441a5.107,5.107,0,0,1,5.106,5.106V34.941H15.61ZM55.486,37.99v4.878H15.61V37.99ZM8.568,35.078a2.21,2.21,0,0,1,2.21-2.21h1.814v10H8.568Zm53.976,7.789H58.535v-10h2.317a1.692,1.692,0,0,1,1.692,1.692h0Z" transform="translate(0 0)" fill="#dcf2f3"/>
        <rect id="Rectangle_2101" data-name="Rectangle 2101" width="3.049" height="9.451" transform="translate(33.948 21.283)" fill="#dcf2f3"/>
      </g>
      <path id="Path_2916" data-name="Path 2916" d="M-8724.486,4705.365V4695.17l5.43-5.121h33.607l3.978,5.121v11.49h5.326l2.078,3.034v9.615h-57.69v-9.615l2.43-3.034Z" transform="translate(9209 -1082)" fill="#dcf2f3"/>
    </g>
    <g id="Group_3595" data-name="Group 3595" transform="translate(434.45 2322.008)">
      <path id="Path_2907-2" data-name="Path 2907" d="M65.592,34.56a4.756,4.756,0,0,0-4.741-4.741H58.535v-7.8a8.169,8.169,0,0,0-8.094-8.155H20.732a8.171,8.171,0,0,0-8.17,8.155v7.8H10.809A5.273,5.273,0,0,0,5.55,35.078V45.916h7.042v3.216h3.049V45.916H55.486v3.216h3.049V45.916h7.058ZM15.61,22.015a5.122,5.122,0,0,1,5.122-5.106H50.441a5.107,5.107,0,0,1,5.106,5.106V34.941H15.61ZM55.486,37.99v4.878H15.61V37.99ZM8.568,35.078a2.21,2.21,0,0,1,2.21-2.21h1.814v10H8.568Zm53.976,7.789H58.535v-10h2.317a1.692,1.692,0,0,1,1.692,1.692h0Z" transform="translate(0 0)" fill="#08989f"/>
      <rect id="Rectangle_2101-2" data-name="Rectangle 2101" width="3.049" height="9.451" transform="translate(33.948 21.283)" fill="#08989f"/>
    </g>
  </g>
</svg>
