<svg xmlns="http://www.w3.org/2000/svg" width="60.401" height="44.061" viewBox="0 0 60.401 44.061">
  <g id="Group_5232" data-name="Group 5232" transform="translate(-663 -2330)">
    <g id="Group_3596" data-name="Group 3596" transform="translate(-56 -1309)">
      <g id="Group_3590" data-name="Group 3590" transform="translate(716.37 3629.78)">
        <path id="Path_2904" data-name="Path 2904" d="M31.006,41.531V25.513h9.16V22.36H18.22v3.153h9.633v16.05a6.639,6.639,0,0,0-5.014,6.417h3.153a3.452,3.452,0,0,1,1.86-3.059v3.059h3.153V44.826a3.486,3.486,0,0,1,1.955,3.153h3.153A6.636,6.636,0,0,0,31.006,41.531Z" transform="translate(6.106 5.27)" fill="#dbf3f4"/>
        <path id="Path_2905" data-name="Path 2905" d="M16.443,34.7h-5.66V14.2H7.63V52.684h3.153V43.367h11.3v9.318H25.24V43.509A8.829,8.829,0,0,0,16.443,34.7Zm-5.66,5.518V37.849h5.66a5.691,5.691,0,0,1,4.588,2.365Z" transform="translate(0 0.565)" fill="#dbf3f4"/>
        <path id="Path_2906" data-name="Path 2906" d="M45.873,13.22V35.292H40.307a8.4,8.4,0,0,0-8.387,8.4v9.586h3.153V43.932h10.8v9.318h3.153V13.22Zm0,27.559H35.94a5.233,5.233,0,0,1,4.367-2.365h5.565Z" transform="translate(14.005)" fill="#dbf3f4"/>
      </g>
      <path id="Path_2917" data-name="Path 2917" d="M-8482.78,4748.513h9.13l4.56,5.167h-13.689Z" transform="translate(9209 -1082)" fill="#dbf3f4"/>
      <path id="Path_2918" data-name="Path 2918" d="M-8445.3,4753.679l4.363-4.572,9.4-.73v6.231Z" transform="translate(9209 -1082)" fill="#dbf3f4"/>
    </g>
    <g id="Group_3597" data-name="Group 3597" transform="translate(655.37 2316.78)">
      <path id="Path_2904-2" data-name="Path 2904" d="M31.006,41.531V25.513h9.16V22.36H18.22v3.153h9.633v16.05a6.639,6.639,0,0,0-5.014,6.417h3.153a3.452,3.452,0,0,1,1.86-3.059v3.059h3.153V44.826a3.486,3.486,0,0,1,1.955,3.153h3.153A6.636,6.636,0,0,0,31.006,41.531Z" transform="translate(6.106 5.27)" fill="#08989f"/>
      <path id="Path_2905-2" data-name="Path 2905" d="M16.443,34.7h-5.66V14.2H7.63V52.684h3.153V43.367h11.3v9.318H25.24V43.509A8.829,8.829,0,0,0,16.443,34.7Zm-5.66,5.518V37.849h5.66a5.691,5.691,0,0,1,4.588,2.365Z" transform="translate(0 0.565)" fill="#08989f"/>
      <path id="Path_2906-2" data-name="Path 2906" d="M45.873,13.22V35.292H40.307a8.4,8.4,0,0,0-8.387,8.4v9.586h3.153V43.932h10.8v9.318h3.153V13.22Zm0,27.559H35.94a5.233,5.233,0,0,1,4.367-2.365h5.565Z" transform="translate(14.005)" fill="#08989f"/>
    </g>
  </g>
</svg>
