<svg xmlns="http://www.w3.org/2000/svg" width="47.046" height="29.639" viewBox="0 0 47.046 29.639">
  <g id="Group_6441" data-name="Group 6441" transform="translate(-30.758 -6.554)">
    <g id="Ecoe_Icons-26" transform="translate(30.758 6.554)">
      <rect id="Rectangle_1974" data-name="Rectangle 1974" width="2.196" height="4.293" transform="translate(11.302 20.496)" fill="#00837b"/>
      <rect id="Rectangle_1975" data-name="Rectangle 1975" width="2.196" height="4.293" transform="translate(7.27 20.496)" fill="#00837b"/>
      <rect id="Rectangle_1976" data-name="Rectangle 1976" width="2.196" height="4.293" transform="translate(37.22 20.496)" fill="#00837b"/>
      <rect id="Rectangle_1977" data-name="Rectangle 1977" width="2.196" height="4.293" transform="translate(33.187 20.496)" fill="#00837b"/>
      <path id="Path_2810" data-name="Path 2810" d="M28.625,27.808a4.715,4.715,0,0,0-2.63-.868A3.958,3.958,0,0,0,22,30.9V36.94h7.928V30.352A3.064,3.064,0,0,0,28.625,27.808Zm-4.4,6.923V30.9a1.774,1.774,0,0,1,3.536,0v3.834Z" transform="translate(-2.485 -13.194)" fill="#00837b"/>
      <path id="Path_2811" data-name="Path 2811" d="M50.1,43.328V33.055h2.122l-.732-2.605L48.117,16.691a1.117,1.117,0,0,0-1.067-.831H12.486a1.129,1.129,0,0,0-1.079.831L7.87,31.219l-.5,1.836H9.446V43.328H6.27V45.5H53.315V43.328ZM21.654,33.055V43.328h-10V33.055ZM10.215,30.921l3.164-12.866H28.4l-6.749,7.9v4.963ZM23.85,43.328V26.716l5.992-6.96h0l5.868,6.96V43.328ZM37.634,25.612l-6.352-7.556H46.169l3.188,12.866H37.894V26.306a.993.993,0,0,0-.261-.695Zm10.26,7.444V43.328h-10V33.055Z" transform="translate(-6.27 -15.86)" fill="#00837b"/>
    </g>
  </g>
</svg>
