<svg xmlns="http://www.w3.org/2000/svg" width="35.677" height="34.802" viewBox="0 0 35.677 34.802">
  <g id="Ecoe_Icons-28" transform="translate(-14.201 -2.247)">
    <rect id="Rectangle_1964" data-name="Rectangle 1964" width="5.158" height="2.366" transform="translate(25.332 17.389)" fill="#00837b"/>
    <rect id="Rectangle_1965" data-name="Rectangle 1965" width="5.158" height="2.366" transform="translate(25.332 23.812)" fill="#00837b"/>
    <rect id="Rectangle_1966" data-name="Rectangle 1966" width="5.158" height="2.366" transform="translate(33.884 17.389)" fill="#00837b"/>
    <rect id="Rectangle_1967" data-name="Rectangle 1967" width="5.158" height="2.366" transform="translate(33.884 23.812)" fill="#00837b"/>
    <path id="Path_2808" data-name="Path 2808" d="M40.989,26.97l3.182,3.123,1.656-1.68-6.944-6.837V11.485H32.827v4.14L28.1,11,10.15,28.744l1.656,1.68,3.277-3.218v16.23H11.226V45.8H44.763V43.436H40.989Zm-10.2,16.466H24.57V39.7h6.222Zm4.4-29.573h1.325v5.418l-1.325-1.3Zm-7.1.473L38.588,24.651V43.389h-5.43V37.332H22.2v6.057H17.472V24.84Z" transform="translate(4.05 -8.753)" fill="#00837b"/>
  </g>
</svg>
