<svg xmlns="http://www.w3.org/2000/svg" xmlns:xlink="http://www.w3.org/1999/xlink" width="1204.931" height="332.675" viewBox="0 0 1204.931 332.675">
  <defs>
    <clipPath id="clip-path">
      <rect id="Rectangle_3368" data-name="Rectangle 3368" width="1204.93" height="332.675" fill="none"/>
    </clipPath>
  </defs>
  <g id="Group_4812" data-name="Group 4812" transform="translate(0 0)" clip-path="url(#clip-path)">
    <g id="Group_4811" data-name="Group 4811" transform="translate(786.554 0.597)">
      <path id="Path_4467" data-name="Path 4467" d="M550.525,106.017V142.53l15.648-8.845V97.172Z" transform="translate(-379.873 71.185)" fill="none"/>
      <path id="Path_4468" data-name="Path 4468" d="M539.525,112.651v36.513l17.387-9.828V102.823Z" transform="translate(-387.999 75.36)" fill="none"/>
      <path id="Path_4469" data-name="Path 4469" d="M529.525,117.886V154.4l15.648-8.845V109.041Z" transform="translate(-395.386 79.953)" fill="none"/>
      <path id="Path_4470" data-name="Path 4470" d="M593.525,90.594v36.513l15.648,8.821V99.415Z" transform="translate(-348.109 66.326)" fill="none"/>
      <path id="Path_4471" data-name="Path 4471" d="M624.525,144.581l17.387,9.8V117.869l-17.387-9.8Z" transform="translate(-325.209 79.234)" fill="none"/>
      <path id="Path_4472" data-name="Path 4472" d="M614.525,102.432v36.513l15.648,8.821V111.253Z" transform="translate(-332.596 75.07)" fill="none"/>
      <path id="Path_4473" data-name="Path 4473" d="M609.174,63.415l-15.648-8.821V89.368l15.648,8.821Z" transform="translate(-348.109 39.732)" fill="none"/>
      <path id="Path_4474" data-name="Path 4474" d="M603.525,96.231v36.513l17.387,9.8V106.032Z" transform="translate(-340.722 70.49)" fill="none"/>
      <path id="Path_4475" data-name="Path 4475" d="M624.525,106.843l17.387,9.8V81.869l-17.387-9.8Z" transform="translate(-325.209 52.641)" fill="none"/>
      <path id="Path_4476" data-name="Path 4476" d="M620.912,104.806V70.032l-17.387-9.8V95.006Z" transform="translate(-340.722 43.897)" fill="none"/>
      <path id="Path_4477" data-name="Path 4477" d="M630.174,110.027V75.253l-15.648-8.821v34.774Z" transform="translate(-332.596 48.477)" fill="none"/>
      <path id="Path_4478" data-name="Path 4478" d="M647.7,96.949V69.13l-12.171-6.861V90.088Z" transform="translate(-317.083 45.401)" fill="#00938e"/>
      <path id="Path_4479" data-name="Path 4479" d="M641.913,93.688V65.869l-17.387-9.8V83.888Z" transform="translate(-325.209 40.821)" fill="#00938e"/>
      <path id="Path_4480" data-name="Path 4480" d="M603.525,80.231v27.819l17.387,9.8V90.032Z" transform="translate(-340.722 58.671)" fill="#00938e"/>
      <path id="Path_4481" data-name="Path 4481" d="M614.525,86.432v27.819l15.648,8.821V95.253Z" transform="translate(-332.596 63.251)" fill="#00938e"/>
      <path id="Path_4482" data-name="Path 4482" d="M647.7,132.95V105.13l-12.171-6.861v27.819Z" transform="translate(-317.083 71.995)" fill="#00938e"/>
      <path id="Path_4483" data-name="Path 4483" d="M624.525,119.888l17.387,9.8V101.869l-17.387-9.8Z" transform="translate(-325.209 67.415)" fill="#00938e"/>
      <path id="Path_4484" data-name="Path 4484" d="M623.387,128.012v26.7h-1.739v-27.68l-17.387-9.8V144.28h-1.732l36.506,20.372V136.833Z" transform="translate(-341.457 86.003)" fill="#00938e"/>
      <path id="Path_4485" data-name="Path 4485" d="M634.462,162.253l14.02,7.7V142.13l-12.171-6.861v26.984Z" transform="translate(-317.868 99.328)" fill="#00938e"/>
      <path id="Path_4486" data-name="Path 4486" d="M625.048,129.068V156.4h-1.229l18.616,10.288V138.869Z" transform="translate(-325.731 94.747)" fill="#00938e"/>
      <path id="Path_4487" data-name="Path 4487" d="M634.315,150.849h.255l-.255-.144Z" transform="translate(-317.977 110.731)" fill="#00938e"/>
      <path id="Path_4488" data-name="Path 4488" d="M634.525,77.705v34.774l1.739.98V78.685Z" transform="translate(-317.822 56.805)" fill="#00938e"/>
      <path id="Path_4489" data-name="Path 4489" d="M634.525,150.218l1.739.98V114.685l-1.739-.98Z" transform="translate(-317.822 83.398)" fill="#00938e"/>
      <path id="Path_4490" data-name="Path 4490" d="M636.264,54.788h-1.739V66.815l1.739.98Z" transform="translate(-317.822 39.875)" fill="#00938e"/>
      <path id="Path_4491" data-name="Path 4491" d="M636.264,90.5V62.685l-1.739-.98V89.525Z" transform="translate(-317.822 44.985)" fill="#00938e"/>
      <path id="Path_4492" data-name="Path 4492" d="M634.525,125.525l1.739.98V98.685l-1.739-.98Z" transform="translate(-317.822 71.579)" fill="#00938e"/>
      <path id="Path_4493" data-name="Path 4493" d="M634.572,162.525l-.11.144h1.849V135.685l-1.739-.98Z" transform="translate(-317.868 98.911)" fill="#00938e"/>
      <path id="Path_4494" data-name="Path 4494" d="M625.264,107.259V72.485l-1.739-.98v34.774Z" transform="translate(-325.947 52.224)" fill="#00938e"/>
      <path id="Path_4495" data-name="Path 4495" d="M623.315,145h.875l-.875-.492Z" transform="translate(-326.102 106.15)" fill="#00938e"/>
      <path id="Path_4496" data-name="Path 4496" d="M623.525,107.5v36.513l1.739.98V108.485Z" transform="translate(-325.947 78.818)" fill="#00938e"/>
      <path id="Path_4497" data-name="Path 4497" d="M625.264,84.3V56.485l-1.739-.98V83.324Z" transform="translate(-325.947 40.405)" fill="#00938e"/>
      <path id="Path_4498" data-name="Path 4498" d="M623.525,119.324l1.739.98V92.485l-1.739-.98Z" transform="translate(-325.947 66.999)" fill="#00938e"/>
      <path id="Path_4499" data-name="Path 4499" d="M625.264,129.485l-1.739-.98v27.819l.509.492h1.229Z" transform="translate(-325.947 94.331)" fill="#00938e"/>
      <path id="Path_4500" data-name="Path 4500" d="M615.264,101.622V66.848l-1.739-.98v34.774Z" transform="translate(-333.335 48.061)" fill="#00938e"/>
      <path id="Path_4501" data-name="Path 4501" d="M613.525,101.868v36.513l1.739.98V102.848Z" transform="translate(-333.335 74.654)" fill="#00938e"/>
      <path id="Path_4502" data-name="Path 4502" d="M613.525,85.868v27.819l1.739.98V86.848Z" transform="translate(-333.335 62.835)" fill="#00938e"/>
      <path id="Path_4503" data-name="Path 4503" d="M613.525,150.548h1.739v-26.7l-1.739-.98Z" transform="translate(-333.335 90.167)" fill="#00938e"/>
      <path id="Path_4504" data-name="Path 4504" d="M602.315,132.878h.372l-.372-.211Z" transform="translate(-341.616 97.406)" fill="#00938e"/>
      <path id="Path_4505" data-name="Path 4505" d="M602.525,95.667V132.18l1.739.982V96.649Z" transform="translate(-341.46 70.073)" fill="#00938e"/>
      <path id="Path_4506" data-name="Path 4506" d="M602.525,79.667v27.819l1.739.982V80.648Z" transform="translate(-341.46 58.254)" fill="#00938e"/>
      <path id="Path_4507" data-name="Path 4507" d="M604.264,117.649l-1.739-.982v27.819l.007.211h1.732Z" transform="translate(-341.46 85.586)" fill="#00938e"/>
      <g id="Group_4774" data-name="Group 4774" transform="translate(59.224)">
        <g id="Group_4772" data-name="Group 4772">
          <path id="Path_4508" data-name="Path 4508" d="M604.844,291.979l-118.31,7.633V67.763L604.844.893Z" transform="translate(-486.369 0.062)" fill="#00837b"/>
          <path id="Path_4509" data-name="Path 4509" d="M486.757,300.158c-.243,0-.075.316-.254.15s.1-.024.1-.289V68.168c0-.344-.217-.661.082-.831L604.8.468a1.588,1.588,0,0,1,1.248.007c.292.172.776.485.776.824V292.386c0,.5-.795.513-1.294.546l-118.711,7.226Zm1.754-231.431V299l116.4-7.51V2.935Z" transform="translate(-486.439 -0.343)" fill="#fff"/>
        </g>
        <g id="Group_4773" data-name="Group 4773" transform="translate(118.345 0.424)">
          <path id="Path_4510" data-name="Path 4510" d="M554.578,291.939H669.072V65.675L554.578,1.136Z" transform="translate(-554.449 -0.182)" fill="#00837b"/>
          <path id="Path_4511" data-name="Path 4511" d="M669.28,292.345H554.786c-.527,0-.153-.426-.153-.955V1.541c0-.339-.219-.652.071-.824a.621.621,0,0,1,.751-.007L670.247,65.25c.3.169.788.487.788.831V291.39C671.034,291.919,669.807,292.345,669.28,292.345Zm-112.738-1.907H669.127V66.637L556.542,3.174Z" transform="translate(-554.504 -0.587)" fill="#fff"/>
        </g>
        <path id="Path_4512" data-name="Path 4512" d="M486.721,117.214c-.167,0,.066-.043-.082-.13-.292-.172-.071-.485-.071-.824V85.728c0-.344-.217-.661.082-.831L604.762,18.028a1.588,1.588,0,0,1,1.248.007c.292.172.776.485.776.824V49.391c0,.344-.586.661-.887.831L487.39,117.091A1.865,1.865,0,0,1,486.721,117.214Zm1.754-30.928v28.338l116.4-65.791V20.5Z" transform="translate(-486.403 12.628)" fill="#fff"/>
        <path id="Path_4513" data-name="Path 4513" d="M669.259,115.125a.948.948,0,0,1-.468-.122L554.7,50.464c-.3-.17-.087-.487-.087-.831V19.1c0-.339-.219-.652.071-.824a.621.621,0,0,1,.751-.007L670.226,82.81c.3.169.788.485.788.831v30.532c0,.339-.581.652-.875.822A2.929,2.929,0,0,1,669.259,115.125ZM556.521,49.075,669.106,112.54V84.2L556.521,20.734Z" transform="translate(-436.138 12.808)" fill="#fff"/>
        <path id="Path_4514" data-name="Path 4514" d="M486.721,156.725c-.167,0,.066-.043-.082-.132-.292-.17-.071-.483-.071-.822V125.238c0-.344-.217-.662.082-.831L604.762,57.536a1.6,1.6,0,0,1,1.248.009c.292.17.776.483.776.822V88.9c0,.346-.586.662-.887.831L487.39,156.6A1.865,1.865,0,0,1,486.721,156.725Zm1.754-30.93v28.339l116.4-65.791V60Z" transform="translate(-486.403 41.815)" fill="#fff"/>
        <path id="Path_4515" data-name="Path 4515" d="M669.259,154.636a.95.95,0,0,1-.468-.123L554.7,89.975c-.3-.17-.087-.487-.087-.831V58.612c0-.339-.219-.652.071-.824a.616.616,0,0,1,.751-.007l114.792,64.538c.3.17.788.487.788.831v30.532c0,.339-.581.652-.875.824A2.986,2.986,0,0,1,669.259,154.636ZM556.521,88.586l112.585,63.463V123.708L556.521,60.245Z" transform="translate(-436.138 41.994)" fill="#fff"/>
        <path id="Path_4516" data-name="Path 4516" d="M486.721,197.331c-.167,0,.066-.043-.082-.13-.292-.172-.071-.485-.071-.824V165.845c0-.344-.217-.661.082-.831L604.762,98.145a1.588,1.588,0,0,1,1.248.007c.292.172.776.485.776.824v30.532c0,.344-.586.661-.887.831L487.39,197.208A1.865,1.865,0,0,1,486.721,197.331Zm1.754-30.928v28.338l116.4-65.791V100.612Z" transform="translate(-486.403 71.812)" fill="#fff"/>
        <path id="Path_4517" data-name="Path 4517" d="M669.259,195.242a.932.932,0,0,1-.468-.123L554.7,130.581c-.3-.17-.087-.487-.087-.831V99.218c0-.339-.219-.652.071-.824a.621.621,0,0,1,.751-.007l114.792,64.539c.3.169.788.485.788.831V194.29c0,.339-.581.652-.875.822A2.929,2.929,0,0,1,669.259,195.242Zm-112.738-66.05,112.585,63.465V164.314L556.521,100.851Z" transform="translate(-436.138 71.992)" fill="#fff"/>
        <path id="Path_4518" data-name="Path 4518" d="M530.434,133.825l19.082-10.786V82.966L530.434,93.752Z" transform="translate(-453.94 60.691)" fill="none"/>
        <path id="Path_4519" data-name="Path 4519" d="M526.468,94.647V56.482L507.386,67.268v38.165Z" transform="translate(-470.965 41.127)" fill="none"/>
        <path id="Path_4520" data-name="Path 4520" d="M536.633,88.445V50.28l-17.174,9.707V98.152Z" transform="translate(-462.047 36.545)" fill="none"/>
        <path id="Path_4521" data-name="Path 4521" d="M513.585,63.306l-17.174,9.707v38.165l17.174-9.707Z" transform="translate(-479.073 46.168)" fill="none"/>
        <path id="Path_4522" data-name="Path 4522" d="M530.434,92.407l19.082-10.786V43.456L530.434,54.242Z" transform="translate(-453.94 31.504)" fill="none"/>
        <path id="Path_4523" data-name="Path 4523" d="M497.222,51.329l-1.908,1.079V82.94l1.908-1.079Z" transform="translate(-479.883 37.32)" fill="#fff"/>
        <path id="Path_4524" data-name="Path 4524" d="M497.222,90.839l-1.908,1.079V122.45l1.908-1.079Z" transform="translate(-479.883 66.507)" fill="#fff"/>
        <path id="Path_4525" data-name="Path 4525" d="M497.222,161.329V131.446l-1.908,1.079v28.8Z" transform="translate(-479.883 96.504)" fill="#fff"/>
        <path id="Path_4526" data-name="Path 4526" d="M508.2,75.658V45.126L506.289,46.2V76.736Z" transform="translate(-471.776 32.738)" fill="#fff"/>
        <path id="Path_4527" data-name="Path 4527" d="M506.289,85.715v30.532l1.908-1.079V84.636Z" transform="translate(-471.776 61.924)" fill="#fff"/>
        <path id="Path_4528" data-name="Path 4528" d="M506.289,154.463H508.2v-29.22l-1.908,1.079Z" transform="translate(-471.776 91.921)" fill="#fff"/>
        <path id="Path_4529" data-name="Path 4529" d="M520.269,68.835V38.3l-1.908,1.077V69.912Z" transform="translate(-462.858 27.698)" fill="#fff"/>
        <path id="Path_4530" data-name="Path 4530" d="M518.361,78.89v30.532l1.908-1.077V77.813Z" transform="translate(-462.858 56.884)" fill="#fff"/>
        <path id="Path_4531" data-name="Path 4531" d="M518.361,148.053h1.908V118.42l-1.908,1.077Z" transform="translate(-462.858 86.881)" fill="#fff"/>
        <path id="Path_4532" data-name="Path 4532" d="M531.244,62.631V32.1l-1.908,1.079V63.71Z" transform="translate(-454.751 23.115)" fill="#fff"/>
        <path id="Path_4533" data-name="Path 4533" d="M529.336,103.22l1.908-1.079V71.609l-1.908,1.079Z" transform="translate(-454.751 52.302)" fill="#fff"/>
        <path id="Path_4534" data-name="Path 4534" d="M529.336,141.186h1.908v-28.97l-1.908,1.079Z" transform="translate(-454.751 82.299)" fill="#fff"/>
        <path id="Path_4535" data-name="Path 4535" d="M541.408,26.354V56.885l1.908-1.077V25.277Z" transform="translate(-445.832 18.075)" fill="#fff"/>
        <path id="Path_4536" data-name="Path 4536" d="M541.408,96.4l1.908-1.077V64.786l-1.908,1.077Z" transform="translate(-445.832 47.261)" fill="#fff"/>
        <path id="Path_4537" data-name="Path 4537" d="M541.408,134.777h1.908V105.394l-1.908,1.077Z" transform="translate(-445.832 77.259)" fill="#fff"/>
        <path id="Path_4538" data-name="Path 4538" d="M590.509,69.481V38.95L588.6,37.874V68.406Z" transform="translate(-410.971 27.381)" fill="#fff"/>
        <path id="Path_4539" data-name="Path 4539" d="M578.437,62.677V32.146l-1.908-1.077V61.6Z" transform="translate(-419.889 22.354)" fill="#fff"/>
        <path id="Path_4540" data-name="Path 4540" d="M567.461,25.958l-1.908-1.075V55.414l1.908,1.075Z" transform="translate(-427.996 17.784)" fill="#fff"/>
        <path id="Path_4541" data-name="Path 4541" d="M567.461,65.467l-1.908-1.075V94.924L567.461,96Z" transform="translate(-427.996 46.97)" fill="#fff"/>
      </g>
      <path id="Path_4542" data-name="Path 4542" d="M594.264,138.429V112.01l-1.739-.98v27.4Z" transform="translate(-348.847 81.422)" fill="#00938e"/>
      <g id="Group_4775" data-name="Group 4775" transform="translate(226.29 249.409)">
        <path id="Path_4543" data-name="Path 4543" d="M688.587,172.477a.867.867,0,0,1-.869.869H583.394a.869.869,0,0,1-.869-.869V144.657a.87.87,0,0,1,.869-.869H687.717a.869.869,0,0,1,.869.869Zm-104.323-.869H686.848V145.527H584.264Z" transform="translate(-582.525 -143.788)" fill="#00938e"/>
      </g>
      <g id="Group_4778" data-name="Group 4778" transform="translate(0 217.934)">
        <g id="Group_4776" data-name="Group 4776" transform="translate(59.256 0)">
          <path id="Path_4544" data-name="Path 4544" d="M486.525,240.25h99.107V181.8l-99.107-55.615Z" transform="translate(-486.407 -125.316)" fill="#00837b"/>
          <path id="Path_4545" data-name="Path 4545" d="M585.821,240.619H486.714c-.48,0-.139-.388-.139-.869V126.556c0-.309-.2-.595.064-.751a.569.569,0,0,1,.685-.009L586.7,181.41c.273.155.718.445.718.76v57.579C587.42,240.231,586.3,240.619,585.821,240.619Zm-97.507-1.739h97.368v-56.2l-97.368-54.641Z" transform="translate(-486.457 -125.686)" fill="#fff"/>
        </g>
        <g id="Group_4777" data-name="Group 4777">
          <path id="Path_4546" data-name="Path 4546" d="M511.89,240.619H453.246a.867.867,0,0,1-.869-.869l.036-80.622a.873.873,0,0,1,.449-.762l58.605-32.571a1.7,1.7,0,0,1,1.228.012c.266.156.795.442.795.749V239.749C513.489,240.231,512.371,240.619,511.89,240.619Zm-57.774-1.739h57.635V128.032l-57.231,31.606Z" transform="translate(-452.377 -125.685)" fill="#fff"/>
        </g>
      </g>
      <g id="Group_4779" data-name="Group 4779" transform="translate(71.471 236.241)">
        <path id="Path_4547" data-name="Path 4547" d="M564.983,191.854a.885.885,0,0,1-.426-.111l-70.922-39.99c-.275-.153-.078-.443-.078-.758v-13.91c0-.309-.2-.595.064-.751a.569.569,0,0,1,.685-.009l71.559,39.99c.273.155.718.445.718.76v13.91c0,.31-.529.595-.795.751A2.784,2.784,0,0,1,564.983,191.854ZM495.3,150.485,564.844,189.5V177.585L495.3,138.568Z" transform="translate(-493.482 -136.214)" fill="#fff"/>
      </g>
      <g id="Group_4780" data-name="Group 4780" transform="translate(71.471 262.322)">
        <path id="Path_4548" data-name="Path 4548" d="M564.983,206.854a.886.886,0,0,1-.426-.111l-70.922-39.99c-.275-.153-.078-.443-.078-.758v-13.91c0-.309-.2-.595.064-.751a.571.571,0,0,1,.685-.009l71.559,39.99c.273.155.718.445.718.76v13.91c0,.31-.529.595-.795.751A2.784,2.784,0,0,1,564.983,206.854ZM495.3,165.485,564.844,204.5V192.584L495.3,153.568Z" transform="translate(-493.482 -151.215)" fill="#fff"/>
      </g>
      <g id="Group_4781" data-name="Group 4781" transform="translate(260.947 54.496)">
        <path id="Path_4549" data-name="Path 4549" d="M708.587,309.689H602.525V93.092L708.587,32.186Z" transform="translate(-602.407 -31.317)" fill="#00837b"/>
        <path id="Path_4550" data-name="Path 4550" d="M708.775,310.057H602.714c-.48,0-.139-.388-.139-.869V93.461c0-.311-.2-.6.071-.755L708.527,31.8a1.467,1.467,0,0,1,1.141,0c.268.155.708.442.708.753V309.188C710.375,309.67,709.257,310.057,708.775,310.057Zm-104.462-1.739H708.636V34.056L604.314,93.963Z" transform="translate(-602.458 -31.686)" fill="#fff"/>
      </g>
      <g id="Group_4786" data-name="Group 4786" transform="translate(273.118 79.058)">
        <g id="Group_4782" data-name="Group 4782" transform="translate(0 36.513)">
          <path id="Path_4551" data-name="Path 4551" d="M621.885,331.054H609.714c-.48,0-.139-.388-.139-.869V74.707c0-.309-.2-.6.068-.751l11.992-7.026a1.444,1.444,0,0,1,1.141,0c.268.155.709.442.709.753v262.5C623.485,330.667,622.367,331.054,621.885,331.054Zm-10.571-1.739h10.432V69.188l-10.432,6.023Z" transform="translate(-609.458 -66.813)" fill="#fff"/>
        </g>
        <g id="Group_4783" data-name="Group 4783" transform="translate(20.865 24.342)">
          <path id="Path_4552" data-name="Path 4552" d="M633.885,324.054H621.714c-.48,0-.139-.388-.139-.869V67.707c0-.309-.2-.6.068-.751l11.992-7.026a1.444,1.444,0,0,1,1.141,0c.268.155.709.442.709.753v262.5C635.485,323.667,634.367,324.054,633.885,324.054Zm-10.571-1.739h10.432V62.188l-10.432,6.023Z" transform="translate(-621.457 -59.813)" fill="#fff"/>
        </g>
        <g id="Group_4784" data-name="Group 4784" transform="translate(41.729 12.171)">
          <path id="Path_4553" data-name="Path 4553" d="M645.885,317.054H633.714c-.48,0-.139-.388-.139-.869V60.707c0-.309-.2-.6.068-.751l11.992-7.026a1.444,1.444,0,0,1,1.141,0c.268.155.709.442.709.753v262.5C647.485,316.667,646.367,317.054,645.885,317.054Zm-10.571-1.739h10.432V55.188l-10.432,6.023Z" transform="translate(-633.458 -52.813)" fill="#fff"/>
        </g>
        <g id="Group_4785" data-name="Group 4785" transform="translate(64.332)">
          <path id="Path_4554" data-name="Path 4554" d="M658.885,310.054H646.714c-.48,0-.139-.388-.139-.869V53.707c0-.309-.2-.6.068-.751l11.992-7.026a1.444,1.444,0,0,1,1.141,0c.268.155.709.442.709.753v262.5C660.485,309.667,659.367,310.054,658.885,310.054Zm-10.571-1.739h10.432V48.188l-10.432,6.023Z" transform="translate(-646.458 -45.813)" fill="#fff"/>
        </g>
      </g>
      <g id="Group_4787" data-name="Group 4787" transform="translate(248.776 190.115)">
        <path id="Path_4555" data-name="Path 4555" d="M595.525,252.069H701.587V171.158L595.525,110.186Z" transform="translate(-595.407 -109.317)" fill="#00837b"/>
        <path id="Path_4556" data-name="Path 4556" d="M701.775,252.438H595.714c-.48,0-.139-.388-.139-.869V110.556c0-.311-.2-.6.068-.753a.569.569,0,0,1,.688,0l106.333,60.971c.27.155.711.443.711.755v80.042C703.375,252.05,702.257,252.438,701.775,252.438ZM597.314,250.7H701.636V172.03L597.314,112.058Z" transform="translate(-595.457 -109.686)" fill="#fff"/>
      </g>
      <g id="Group_4788" data-name="Group 4788" transform="translate(367.009 54.494)">
        <path id="Path_4557" data-name="Path 4557" d="M663.525,309.689H767.848V89.614L663.525,32.186Z" transform="translate(-663.407 -31.316)" fill="#00837b"/>
        <path id="Path_4558" data-name="Path 4558" d="M768.037,310.058H663.714c-.48,0-.139-.388-.139-.869V32.556c0-.308-.2-.593.063-.749a.564.564,0,0,1,.68-.014L768.911,89.221c.278.153.725.445.725.763v219.2C769.636,309.67,768.518,310.058,768.037,310.058Zm-102.723-1.739H767.9V90.5L665.314,34.025Z" transform="translate(-663.458 -31.685)" fill="#fff"/>
      </g>
      <g id="Group_4789" data-name="Group 4789" transform="translate(142.637 190.114)">
        <path id="Path_4559" data-name="Path 4559" d="M640.33,252.069H535.277l-.4-79.865L640.33,110.186Z" transform="translate(-534.073 -109.316)" fill="#00837b"/>
        <path id="Path_4560" data-name="Path 4560" d="M640.808,252.438H535.616a.87.87,0,0,1-.869-.866l-.334-79.431a.867.867,0,0,1,.431-.753L640.37,109.8a1.687,1.687,0,0,1,1.236,0c.269.155.8.443.8.755V251.569C642.408,252.051,641.29,252.438,640.808,252.438ZM536.482,250.7H640.669V112.07L536.517,172.637Z" transform="translate(-534.413 -109.686)" fill="#fff"/>
      </g>
      <g id="Group_4802" data-name="Group 4802" transform="translate(154.931 211.2)">
        <g id="Group_4790" data-name="Group 4790" transform="translate(0 39.99)">
          <path id="Path_4561" data-name="Path 4561" d="M541.695,179.657c-.15,0,.066-.038-.071-.116-.268-.155-.068-.442-.068-.753V152.707c0-.309-.2-.6.068-.751l11.992-7.026a1.444,1.444,0,0,1,1.141,0c.268.155.709.442.709.753v26.081c0,.309-.532.6-.8.751l-12.35,7.026A1.674,1.674,0,0,1,541.695,179.657Zm1.6-26.446v24.071l10.432-6.023V147.188Z" transform="translate(-541.484 -144.813)" fill="#fff"/>
        </g>
        <g id="Group_4791" data-name="Group 4791" transform="translate(24.342 27.819)">
          <path id="Path_4562" data-name="Path 4562" d="M555.695,172.657c-.15,0,.066-.038-.071-.117-.268-.155-.068-.442-.068-.753V145.707c0-.309-.2-.6.068-.751l11.992-7.026a1.444,1.444,0,0,1,1.141,0c.268.155.709.442.709.753v26.081c0,.309-.532.6-.8.751l-12.35,7.026A1.673,1.673,0,0,1,555.695,172.657Zm1.6-26.446v24.071l10.432-6.023V140.188Z" transform="translate(-555.484 -137.813)" fill="#fff"/>
        </g>
        <g id="Group_4792" data-name="Group 4792" transform="translate(46.945 15.648)">
          <path id="Path_4563" data-name="Path 4563" d="M568.695,165.657c-.15,0,.066-.038-.071-.117-.268-.155-.068-.442-.068-.753V138.707c0-.309-.2-.6.068-.751l11.992-7.026a1.444,1.444,0,0,1,1.141,0c.268.155.709.442.709.753v26.081c0,.31-.532.6-.8.751l-12.35,7.026A1.673,1.673,0,0,1,568.695,165.657Zm1.6-26.446v24.071l10.432-6.023V133.188Z" transform="translate(-568.484 -130.813)" fill="#fff"/>
        </g>
        <g id="Group_4793" data-name="Group 4793" transform="translate(71.287)">
          <path id="Path_4564" data-name="Path 4564" d="M582.695,156.657c-.15,0,.066-.038-.071-.117-.268-.155-.068-.442-.068-.753V129.707c0-.309-.2-.6.068-.751l11.992-7.026a1.444,1.444,0,0,1,1.141,0c.268.155.709.442.709.753v26.081c0,.309-.532.6-.8.751l-12.35,7.026A1.673,1.673,0,0,1,582.695,156.657Zm1.6-26.446v24.071l10.432-6.023V124.188Z" transform="translate(-582.484 -121.813)" fill="#fff"/>
        </g>
        <g id="Group_4794" data-name="Group 4794" transform="translate(0 79.981)">
          <path id="Path_4565" data-name="Path 4565" d="M541.695,202.657c-.15,0,.066-.038-.071-.116-.268-.155-.068-.442-.068-.753V175.707c0-.309-.2-.6.068-.751l11.992-7.026a1.444,1.444,0,0,1,1.141,0c.268.155.709.442.709.753v26.081c0,.309-.532.6-.8.751l-12.35,7.026A1.674,1.674,0,0,1,541.695,202.657Zm1.6-26.446v24.071l10.432-6.023V170.188Z" transform="translate(-541.484 -167.813)" fill="#fff"/>
        </g>
        <g id="Group_4795" data-name="Group 4795" transform="translate(24.342 67.81)">
          <path id="Path_4566" data-name="Path 4566" d="M555.695,195.657c-.15,0,.066-.038-.071-.117-.268-.155-.068-.442-.068-.753V168.707c0-.309-.2-.6.068-.751l11.992-7.026a1.444,1.444,0,0,1,1.141,0c.268.155.709.442.709.753v26.081c0,.309-.532.6-.8.751l-12.35,7.026A1.673,1.673,0,0,1,555.695,195.657Zm1.6-26.446v24.071l10.432-6.023V163.188Z" transform="translate(-555.484 -160.813)" fill="#fff"/>
        </g>
        <g id="Group_4796" data-name="Group 4796" transform="translate(46.945 55.639)">
          <path id="Path_4567" data-name="Path 4567" d="M568.695,188.657c-.15,0,.066-.038-.071-.117-.268-.155-.068-.442-.068-.753V161.707c0-.309-.2-.6.068-.751l11.992-7.026a1.444,1.444,0,0,1,1.141,0c.268.155.709.442.709.753v26.081c0,.309-.532.6-.8.751l-12.35,7.026A1.673,1.673,0,0,1,568.695,188.657Zm1.6-26.446v24.071l10.432-6.023V156.188Z" transform="translate(-568.484 -153.813)" fill="#fff"/>
        </g>
        <g id="Group_4797" data-name="Group 4797" transform="translate(71.287 39.99)">
          <path id="Path_4568" data-name="Path 4568" d="M582.695,179.657c-.15,0,.066-.038-.071-.116-.268-.155-.068-.442-.068-.753V152.707c0-.309-.2-.6.068-.751l11.992-7.026a1.444,1.444,0,0,1,1.141,0c.268.155.709.442.709.753v26.081c0,.309-.532.6-.8.751l-12.35,7.026A1.673,1.673,0,0,1,582.695,179.657Zm1.6-26.446v24.071l10.432-6.023V147.188Z" transform="translate(-582.484 -144.813)" fill="#fff"/>
        </g>
        <g id="Group_4798" data-name="Group 4798" transform="translate(0 121.71)">
          <path id="Path_4569" data-name="Path 4569" d="M541.695,226.657c-.15,0,.066-.038-.071-.116-.268-.155-.068-.442-.068-.753V199.707c0-.309-.2-.6.068-.751l11.992-7.026a1.444,1.444,0,0,1,1.141,0c.268.155.709.442.709.753v26.081c0,.309-.532.6-.8.751l-12.35,7.026A1.674,1.674,0,0,1,541.695,226.657Zm1.6-26.446v24.071l10.432-6.023V194.188Z" transform="translate(-541.484 -191.813)" fill="#fff"/>
        </g>
        <g id="Group_4799" data-name="Group 4799" transform="translate(24.342 109.539)">
          <path id="Path_4570" data-name="Path 4570" d="M555.695,219.657c-.15,0,.066-.038-.071-.116-.268-.155-.068-.442-.068-.753V192.707c0-.309-.2-.6.068-.751l11.992-7.026a1.444,1.444,0,0,1,1.141,0c.268.155.709.442.709.753v26.081c0,.31-.532.6-.8.751l-12.35,7.026A1.674,1.674,0,0,1,555.695,219.657Zm1.6-26.446v24.071l10.432-6.023V187.188Z" transform="translate(-555.484 -184.813)" fill="#fff"/>
        </g>
        <g id="Group_4800" data-name="Group 4800" transform="translate(46.945 97.368)">
          <path id="Path_4571" data-name="Path 4571" d="M568.695,212.657c-.15,0,.066-.038-.071-.117-.268-.155-.068-.442-.068-.753V185.707c0-.309-.2-.6.068-.751l11.992-7.026a1.444,1.444,0,0,1,1.141,0c.268.155.709.442.709.753v26.081c0,.309-.532.6-.8.751l-12.35,7.026A1.673,1.673,0,0,1,568.695,212.657Zm1.6-26.446v24.071l10.432-6.023V180.188Z" transform="translate(-568.484 -177.813)" fill="#fff"/>
        </g>
        <g id="Group_4801" data-name="Group 4801" transform="translate(71.287 81.72)">
          <path id="Path_4572" data-name="Path 4572" d="M582.695,203.657c-.15,0,.066-.038-.071-.116-.268-.155-.068-.442-.068-.753V176.707c0-.309-.2-.6.068-.751l11.992-7.026a1.444,1.444,0,0,1,1.141,0c.268.155.709.442.709.753v26.081c0,.309-.532.6-.8.751l-12.35,7.026A1.673,1.673,0,0,1,582.695,203.657Zm1.6-26.446v24.071l10.432-6.023V171.188Z" transform="translate(-582.484 -168.813)" fill="#fff"/>
        </g>
      </g>
      <g id="Group_4803" data-name="Group 4803" transform="translate(259.251 211.03)">
        <path id="Path_4573" data-name="Path 4573" d="M632.992,163.615a.869.869,0,0,1-.44-.122L601.619,145.05c-.266-.156-.062-.442-.062-.749V122.585c0-.311-.2-.6.068-.753a.569.569,0,0,1,.688,0l31.568,17.942c.27.155.711.442.711.753v22.221c0,.311-.532.6-.805.755A2.762,2.762,0,0,1,632.992,163.615ZM603.3,143.8l29.558,17.42v-20.2L603.3,124.085Z" transform="translate(-601.482 -121.715)" fill="#fff"/>
      </g>
      <g id="Group_4804" data-name="Group 4804" transform="translate(314.89 266.669)">
        <path id="Path_4574" data-name="Path 4574" d="M664.993,195.615a.87.87,0,0,1-.44-.122L633.619,177.05c-.266-.156-.062-.442-.062-.749V154.585c0-.311-.2-.6.068-.753a.569.569,0,0,1,.689,0l31.568,17.942c.269.155.711.442.711.753v22.221c0,.311-.532.6-.805.755A2.762,2.762,0,0,1,664.993,195.615ZM635.3,175.8l29.558,17.42v-20.2L635.3,156.085Z" transform="translate(-633.482 -153.715)" fill="#fff"/>
      </g>
      <g id="Group_4805" data-name="Group 4805" transform="translate(259.251 280.578)">
        <path id="Path_4575" data-name="Path 4575" d="M632.992,203.615a.869.869,0,0,1-.44-.122L601.619,185.05c-.266-.156-.062-.442-.062-.749V162.585c0-.311-.2-.6.068-.753a.569.569,0,0,1,.688,0l31.568,17.942c.27.155.711.442.711.753v22.221c0,.311-.532.6-.805.755A2.762,2.762,0,0,1,632.992,203.615ZM603.3,183.8l29.558,17.42v-20.2L603.3,164.085Z" transform="translate(-601.482 -161.715)" fill="#fff"/>
      </g>
      <g id="Group_4810" data-name="Group 4810" transform="translate(377.441 77.319)">
        <g id="Group_4806" data-name="Group 4806" transform="translate(64.332 36.513)">
          <path id="Path_4576" data-name="Path 4576" d="M718.885,330.054H706.714c-.48,0-.139-.388-.139-.869V66.683c0-.311-.2-.6.068-.753a.566.566,0,0,1,.69,0l12.442,7.026c.268.155.709.442.709.751V329.185C720.485,329.667,719.367,330.054,718.885,330.054Zm-10.571-1.739h10.432V74.211l-10.432-6.023Z" transform="translate(-706.458 -65.813)" fill="#fff"/>
        </g>
        <g id="Group_4807" data-name="Group 4807" transform="translate(43.468 24.342)">
          <path id="Path_4577" data-name="Path 4577" d="M706.885,323.054H694.714c-.48,0-.139-.388-.139-.869V59.683c0-.311-.2-.6.068-.753a.566.566,0,0,1,.69,0l12.442,7.026c.268.155.709.442.709.751V322.185C708.485,322.667,707.367,323.054,706.885,323.054Zm-10.571-1.739h10.432V67.211l-10.432-6.023Z" transform="translate(-694.458 -58.813)" fill="#fff"/>
        </g>
        <g id="Group_4808" data-name="Group 4808" transform="translate(22.603 12.171)">
          <path id="Path_4578" data-name="Path 4578" d="M694.885,316.054H682.714c-.48,0-.139-.388-.139-.869V52.683c0-.311-.2-.6.068-.753a.566.566,0,0,1,.69,0l12.442,7.026c.268.155.709.442.709.751V315.185C696.485,315.667,695.367,316.054,694.885,316.054Zm-10.571-1.739h10.432V60.211l-10.432-6.023Z" transform="translate(-682.458 -51.813)" fill="#fff"/>
        </g>
        <g id="Group_4809" data-name="Group 4809">
          <path id="Path_4579" data-name="Path 4579" d="M681.885,309.054H669.714c-.48,0-.139-.388-.139-.869V45.683c0-.311-.2-.6.068-.753a.566.566,0,0,1,.69,0l12.442,7.026c.268.155.709.442.709.751V308.185C683.485,308.667,682.367,309.054,681.885,309.054Zm-10.571-1.739h10.432V53.211l-10.432-6.023Z" transform="translate(-669.457 -44.813)" fill="#fff"/>
        </g>
      </g>
    </g>
  </g>
</svg>
