<svg xmlns="http://www.w3.org/2000/svg" xmlns:xlink="http://www.w3.org/1999/xlink" width="704.631" height="272.167" viewBox="0 0 704.631 272.167">
  <defs>
    <clipPath id="clip-path">
      <rect id="Rectangle_1995" data-name="Rectangle 1995" width="469.238" height="187.539" fill="none" stroke="#6f95c4" stroke-width="2" opacity="0.456"/>
    </clipPath>
  </defs>
  <g id="Group_4418" data-name="Group 4418" transform="translate(-845.59 -659.971)" opacity="0.259">
    <g id="Group_2937" data-name="Group 2937" transform="translate(846 742.941)">
      <g id="Group_2936" data-name="Group 2936" transform="translate(0 0)">
        <g id="Group_2935" data-name="Group 2935" transform="translate(117.286)">
          <g id="Mask_Group_2" data-name="Mask Group 2" clip-path="url(#clip-path)">
            <g id="Group_2934" data-name="Group 2934" transform="translate(-7.332 15.84)">
              <g id="Group_2932" data-name="Group 2932" transform="translate(0 0)">
                <path id="Path_3112" data-name="Path 3112" d="M-2817,187.4l164.059-77.127,78.558,37.772V280.655" transform="translate(2817.251 -110.269)" fill="none" stroke="#6f95c4" stroke-width="2"/>
                <path id="Path_3113" data-name="Path 3113" d="M-2263.575,110.269v170.6" transform="translate(2427.643 -110.268)" fill="none" stroke="#6f95c4" stroke-width="2"/>
                <path id="Path_3114" data-name="Path 3114" d="M-2817,316.926l163.584-70.9,79.27,35.459" transform="translate(2817.251 -211.676)" fill="none" stroke="#6f95c4" stroke-width="2"/>
                <path id="Path_3115" data-name="Path 3115" d="M-2817,549.7l163.9-61.538,78.779,30.755" transform="translate(2817.251 -392.541)" fill="none" stroke="#6f95c4" stroke-width="2"/>
                <path id="Path_3116" data-name="Path 3116" d="M-2719.874,656.416l123.262-43.389v43.43" transform="translate(2748.875 -485.812)" fill="none" stroke="#6f95c4" stroke-width="2"/>
                <path id="Path_3117" data-name="Path 3117" d="M-2303.46,266.361v88.466" transform="translate(2455.722 -226.865)" fill="none" stroke="#6f95c4" stroke-width="2"/>
                <path id="Path_3118" data-name="Path 3118" d="M-2606.534,534.468l-127.434,47.262" transform="translate(2758.796 -427.131)" fill="none" stroke="#6f95c4" stroke-width="2"/>
                <path id="Path_3119" data-name="Path 3119" d="M-2817,246.367l163.868-74.435,78.869,36.3" transform="translate(2817.251 -156.328)" fill="none" stroke="#6f95c4" stroke-width="2"/>
                <path id="Path_3120" data-name="Path 3120" d="M-2217.748,270.388V400.563" transform="translate(2395.382 -229.872)" fill="none" stroke="#6f95c4" stroke-width="2"/>
                <path id="Path_3121" data-name="Path 3121" d="M-2217.75,613.028l65.274,23.386" transform="translate(2395.384 -485.812)" fill="none" stroke="#6f95c4" stroke-width="2"/>
                <path id="Path_3122" data-name="Path 3122" d="M-2217.75,534.468l65.4,25.294" transform="translate(2395.384 -427.131)" fill="none" stroke="#6f95c4" stroke-width="2"/>
                <path id="Path_3123" data-name="Path 3123" d="M-2751.995,380.027v28.5" transform="translate(2771.487 -311.769)" fill="none" stroke="#6f95c4" stroke-width="2"/>
                <path id="Path_3124" data-name="Path 3124" d="M-2751.995,380.027V456.1" transform="translate(2776.815 -285.453)" fill="none" stroke="#6f95c4" stroke-width="2"/>
                <path id="Path_3125" data-name="Path 3125" d="M-2751.995,380.027v72.327" transform="translate(2767.936 -281.708)" fill="none" stroke="#6f95c4" stroke-width="2"/>
                <path id="Path_3126" data-name="Path 3126" d="M-2801.907,731.36l-15.939,5.927" transform="translate(2817.846 -574.202)" fill="none" stroke="#6f95c4" stroke-width="2"/>
                <path id="Path_3127" data-name="Path 3127" d="M-2733.995,487.228l127.248-49.836" transform="translate(2758.815 -354.618)" fill="none" stroke="#6f95c4" stroke-width="2"/>
                <path id="Path_3128" data-name="Path 3128" d="M-2606.917,420.658v55.229" transform="translate(2669.354 -342.119)" fill="none" stroke="#6f95c4" stroke-width="2"/>
                <path id="Path_3129" data-name="Path 3129" d="M-2453.51,341.659V400.1" transform="translate(2561.356 -283.109)" fill="none" stroke="#6f95c4" stroke-width="2"/>
              </g>
              <g id="Group_2933" data-name="Group 2933" transform="translate(242.727 0)">
                <path id="Path_3112-2" data-name="Path 3112" d="M-2574.383,187.4l-164.059-77.127L-2817,148.041V280.655" transform="translate(2817.236 -110.269)" fill="none" stroke="#6f95c4" stroke-width="2"/>
                <path id="Path_3113-2" data-name="Path 3113" d="M-2263.575,110.269v170.6" transform="translate(2342.61 -110.268)" fill="none" stroke="#6f95c4" stroke-width="2"/>
                <path id="Path_3114-2" data-name="Path 3114" d="M-2574.146,316.926l-163.585-70.9L-2817,281.487" transform="translate(2817 -211.676)" fill="none" stroke="#6f95c4" stroke-width="2"/>
                <path id="Path_3115-2" data-name="Path 3115" d="M-2574.322,549.7l-163.9-61.538L-2817,518.916" transform="translate(2817.175 -392.541)" fill="none" stroke="#6f95c4" stroke-width="2"/>
                <path id="Path_3116-2" data-name="Path 3116" d="M-2596.612,656.416l-123.262-43.389v43.43" transform="translate(2810.716 -485.812)" fill="none" stroke="#6f95c4" stroke-width="2"/>
                <path id="Path_3117-2" data-name="Path 3117" d="M-2303.46,266.361v88.466" transform="translate(2394.302 -226.865)" fill="none" stroke="#6f95c4" stroke-width="2"/>
                <path id="Path_3118-2" data-name="Path 3118" d="M-2733.967,534.468l127.434,47.262" transform="translate(2824.809 -427.131)" fill="none" stroke="#6f95c4" stroke-width="2"/>
                <path id="Path_3119-2" data-name="Path 3119" d="M-2574.264,246.367l-163.867-74.435-78.869,36.3" transform="translate(2817.117 -156.328)" fill="none" stroke="#6f95c4" stroke-width="2"/>
                <path id="Path_3120-2" data-name="Path 3120" d="M-2217.748,270.388V400.563" transform="translate(2283.219 -229.872)" fill="none" stroke="#6f95c4" stroke-width="2"/>
                <path id="Path_3121-2" data-name="Path 3121" d="M-2152.476,613.028l-65.274,23.386" transform="translate(2217.947 -485.812)" fill="none" stroke="#6f95c4" stroke-width="2"/>
                <path id="Path_3122-2" data-name="Path 3122" d="M-2152.35,534.468l-65.4,25.294" transform="translate(2217.82 -427.131)" fill="none" stroke="#6f95c4" stroke-width="2"/>
                <path id="Path_3123-2" data-name="Path 3123" d="M-2751.995,380.027v28.5" transform="translate(2975.607 -311.769)" fill="none" stroke="#6f95c4" stroke-width="2"/>
                <path id="Path_3124-2" data-name="Path 3124" d="M-2751.995,380.027V456.1" transform="translate(2970.278 -285.453)" fill="none" stroke="#6f95c4" stroke-width="2"/>
                <path id="Path_3125-2" data-name="Path 3125" d="M-2751.995,380.027v72.327" transform="translate(2979.159 -281.708)" fill="none" stroke="#6f95c4" stroke-width="2"/>
                <path id="Path_3126-2" data-name="Path 3126" d="M-2817.846,731.36l15.939,5.927" transform="translate(3045.01 -574.202)" fill="none" stroke="#6f95c4" stroke-width="2"/>
                <path id="Path_3127-2" data-name="Path 3127" d="M-2606.747,487.228l-127.248-49.836" transform="translate(2825.03 -354.618)" fill="none" stroke="#6f95c4" stroke-width="2"/>
                <path id="Path_3128-2" data-name="Path 3128" d="M-2606.917,420.658v55.229" transform="translate(2787.584 -342.119)" fill="none" stroke="#6f95c4" stroke-width="2"/>
                <path id="Path_3129-2" data-name="Path 3129" d="M-2453.51,341.659V400.1" transform="translate(2588.768 -283.109)" fill="none" stroke="#6f95c4" stroke-width="2"/>
              </g>
            </g>
          </g>
          <path id="Path_3130" data-name="Path 3130" d="M350,824.816v98.215" transform="translate(-350 -735.362)" fill="none" stroke="#6f95c4" stroke-width="2"/>
          <path id="Path_3131" data-name="Path 3131" d="M350,824.816v98.215" transform="translate(119.238 -735.362)" fill="none" stroke="#6f95c4" stroke-width="2"/>
        </g>
        <path id="Path_3132" data-name="Path 3132" d="M163.346,944.374,46.059,997.07" transform="translate(-46.059 -808.785)" fill="none" stroke="#6f95c4" stroke-width="2"/>
        <path id="Path_3133" data-name="Path 3133" d="M46.059,944.374l117.287,52.7" transform="translate(540.465 -808.785)" fill="none" stroke="#6f95c4" stroke-width="2"/>
      </g>
    </g>
    <g id="Group_2943" data-name="Group 2943" transform="translate(1120.289 661.673)">
      <path id="Path_3135" data-name="Path 3135" d="M-2193.444,18.775V-34.886l78.892-43.82-.437,135.486" transform="translate(2193.444 78.706)" fill="none" stroke="#6f95c4" stroke-width="2"/>
      <path id="Path_3137" data-name="Path 3137" d="M-2192.4,48.606l78.851-42.215" transform="translate(2192.399 27.529)" fill="none" stroke="#6f95c4" stroke-width="2"/>
      <path id="Path_3138" data-name="Path 3138" d="M-2020.216,19.345v91.271" transform="translate(2089.533 19.739)" fill="none" stroke="#6f95c4" stroke-width="2"/>
      <path id="Path_3139" data-name="Path 3139" d="M-2162.331,125.2l61.678-32.248" transform="translate(2169.969 -24.529)" fill="none" stroke="#6f95c4" stroke-width="2"/>
      <path id="Path_3141" data-name="Path 3141" d="M-2192.4,76.35l69.25-37.013" transform="translate(2192.399 7.715)" fill="none" stroke="#6f95c4" stroke-width="2"/>
      <path id="Path_3140" data-name="Path 3140" d="M-2105.693,65.232v56.5" transform="translate(2140.89 -7.858)" fill="none" stroke="#6f95c4" stroke-width="2"/>
    </g>
    <g id="Group_2944" data-name="Group 2944" transform="translate(1198.88 695.593)">
      <path id="Path_3137-2" data-name="Path 3137" d="M-2113.548,48.606-2192.4,6.391" transform="translate(2192.399 -6.391)" fill="none" stroke="#6f95c4" stroke-width="2"/>
      <path id="Path_3138-2" data-name="Path 3138" d="M-2020.216,19.345v91.271" transform="translate(2029.75 -14.181)" fill="none" stroke="#6f95c4" stroke-width="2"/>
      <path id="Path_3139-2" data-name="Path 3139" d="M-2100.653,125.2l-61.678-32.248" transform="translate(2171.864 -58.449)" fill="none" stroke="#6f95c4" stroke-width="2"/>
      <path id="Path_3141-2" data-name="Path 3141" d="M-2123.149,76.35l-69.25-37.013" transform="translate(2202 -26.205)" fill="none" stroke="#6f95c4" stroke-width="2"/>
      <path id="Path_3140-2" data-name="Path 3140" d="M-2105.693,65.232v56.5" transform="translate(2149.347 -41.778)" fill="none" stroke="#6f95c4" stroke-width="2"/>
    </g>
    <path id="Path_3142" data-name="Path 3142" d="M1486.385,759.3V703.366L1408,662.2" transform="translate(-208.654 -0.793)" fill="none" stroke="#6f95c4" stroke-width="2"/>
  </g>
</svg>
