<svg xmlns="http://www.w3.org/2000/svg" xmlns:xlink="http://www.w3.org/1999/xlink" width="672.335" height="259.807" viewBox="0 0 672.335 259.807">
  <defs>
    <clipPath id="clip-path">
      <rect id="Rectangle_1995" data-name="Rectangle 1995" width="447.706" height="178.938" fill="none" stroke="#5daaa5" stroke-width="2" opacity="0.456"/>
    </clipPath>
  </defs>
  <g id="Group_3000" data-name="Group 3000" transform="translate(-845.59 -659.959)">
    <g id="Group_2937" data-name="Group 2937" transform="translate(846 739.202)">
      <g id="Group_2936" data-name="Group 2936" transform="translate(0 0)">
        <g id="Group_2935" data-name="Group 2935" transform="translate(111.905)">
          <g id="Mask_Group_2" data-name="Mask Group 2" clip-path="url(#clip-path)">
            <g id="Group_2934" data-name="Group 2934" transform="translate(-6.996 15.114)">
              <g id="Group_2932" data-name="Group 2932" transform="translate(0 0)">
                <path id="Path_3112" data-name="Path 3112" d="M-2817,183.858l156.531-73.59,74.954,36.04V272.841" transform="translate(2817.24 -110.269)" fill="none" stroke="#5daaa5" stroke-width="2"/>
                <path id="Path_3113" data-name="Path 3113" d="M-2263.575,110.269v162.78" transform="translate(2420.115 -110.269)" fill="none" stroke="#5daaa5" stroke-width="2"/>
                <path id="Path_3114" data-name="Path 3114" d="M-2817,313.674l156.078-67.647,75.632,33.833" transform="translate(2817.24 -213.251)" fill="none" stroke="#5daaa5" stroke-width="2"/>
                <path id="Path_3115" data-name="Path 3115" d="M-2817,546.876l156.379-58.716,75.164,29.345" transform="translate(2817.24 -396.926)" fill="none" stroke="#5daaa5" stroke-width="2"/>
                <path id="Path_3116" data-name="Path 3116" d="M-2719.874,654.426l117.606-41.4v41.438" transform="translate(2747.544 -491.646)" fill="none" stroke="#5daaa5" stroke-width="2"/>
                <path id="Path_3117" data-name="Path 3117" d="M-2303.46,266.362V350.77" transform="translate(2448.736 -228.676)" fill="none" stroke="#5daaa5" stroke-width="2"/>
                <path id="Path_3118" data-name="Path 3118" d="M-2612.381,534.468l-121.586,45.095" transform="translate(2757.657 -432.053)" fill="none" stroke="#5daaa5" stroke-width="2"/>
                <path id="Path_3119" data-name="Path 3119" d="M-2817,242.953l156.349-71.022,75.25,34.637" transform="translate(2817.24 -157.044)" fill="none" stroke="#5daaa5" stroke-width="2"/>
                <path id="Path_3120" data-name="Path 3120" d="M-2217.748,270.388V394.593" transform="translate(2387.231 -231.73)" fill="none" stroke="#5daaa5" stroke-width="2"/>
                <path id="Path_3121" data-name="Path 3121" d="M-2217.75,613.028l62.279,22.314" transform="translate(2387.233 -491.646)" fill="none" stroke="#5daaa5" stroke-width="2"/>
                <path id="Path_3122" data-name="Path 3122" d="M-2217.75,534.468l62.4,24.133" transform="translate(2387.233 -432.053)" fill="none" stroke="#5daaa5" stroke-width="2"/>
                <path id="Path_3123" data-name="Path 3123" d="M-2751.995,380.027v27.195" transform="translate(2770.593 -314.899)" fill="none" stroke="#5daaa5" stroke-width="2"/>
                <path id="Path_3124" data-name="Path 3124" d="M-2751.995,380.027V452.61" transform="translate(2775.677 -289.79)" fill="none" stroke="#5daaa5" stroke-width="2"/>
                <path id="Path_3125" data-name="Path 3125" d="M-2751.995,380.027v69.01" transform="translate(2767.204 -286.217)" fill="none" stroke="#5daaa5" stroke-width="2"/>
                <path id="Path_3126" data-name="Path 3126" d="M-2802.638,731.36l-15.208,5.656" transform="translate(2817.846 -581.41)" fill="none" stroke="#5daaa5" stroke-width="2"/>
                <path id="Path_3127" data-name="Path 3127" d="M-2733.995,484.942l121.409-47.551" transform="translate(2757.677 -358.414)" fill="none" stroke="#5daaa5" stroke-width="2"/>
                <path id="Path_3128" data-name="Path 3128" d="M-2606.917,420.658v52.7" transform="translate(2666.489 -345.72)" fill="none" stroke="#5daaa5" stroke-width="2"/>
                <path id="Path_3129" data-name="Path 3129" d="M-2453.51,341.659v55.758" transform="translate(2556.408 -285.794)" fill="none" stroke="#5daaa5" stroke-width="2"/>
              </g>
              <g id="Group_2933" data-name="Group 2933" transform="translate(231.589 0)">
                <path id="Path_3112-2" data-name="Path 3112" d="M-2585.515,183.858l-156.531-73.59L-2817,146.308V272.841" transform="translate(2817.225 -110.269)" fill="none" stroke="#5daaa5" stroke-width="2"/>
                <path id="Path_3113-2" data-name="Path 3113" d="M-2263.575,110.269v162.78" transform="translate(2338.983 -110.269)" fill="none" stroke="#5daaa5" stroke-width="2"/>
                <path id="Path_3114-2" data-name="Path 3114" d="M-2585.29,313.674l-156.079-67.647L-2817,279.861" transform="translate(2817 -213.251)" fill="none" stroke="#5daaa5" stroke-width="2"/>
                <path id="Path_3115-2" data-name="Path 3115" d="M-2585.457,546.876l-156.38-58.716L-2817,517.505" transform="translate(2817.167 -396.926)" fill="none" stroke="#5daaa5" stroke-width="2"/>
                <path id="Path_3116-2" data-name="Path 3116" d="M-2602.268,654.426l-117.606-41.4v41.438" transform="translate(2806.547 -491.646)" fill="none" stroke="#5daaa5" stroke-width="2"/>
                <path id="Path_3117-2" data-name="Path 3117" d="M-2303.46,266.362V350.77" transform="translate(2390.133 -228.676)" fill="none" stroke="#5daaa5" stroke-width="2"/>
                <path id="Path_3118-2" data-name="Path 3118" d="M-2733.967,534.468l121.586,45.095" transform="translate(2820.64 -432.053)" fill="none" stroke="#5daaa5" stroke-width="2"/>
                <path id="Path_3119-2" data-name="Path 3119" d="M-2585.4,242.953l-156.348-71.022L-2817,206.568" transform="translate(2817.112 -157.044)" fill="none" stroke="#5daaa5" stroke-width="2"/>
                <path id="Path_3120-2" data-name="Path 3120" d="M-2217.748,270.388V394.593" transform="translate(2280.214 -231.73)" fill="none" stroke="#5daaa5" stroke-width="2"/>
                <path id="Path_3121-2" data-name="Path 3121" d="M-2155.471,613.028l-62.279,22.314" transform="translate(2217.938 -491.646)" fill="none" stroke="#5daaa5" stroke-width="2"/>
                <path id="Path_3122-2" data-name="Path 3122" d="M-2155.35,534.468l-62.4,24.133" transform="translate(2217.816 -432.053)" fill="none" stroke="#5daaa5" stroke-width="2"/>
                <path id="Path_3123-2" data-name="Path 3123" d="M-2751.995,380.027v27.195" transform="translate(2965.346 -314.899)" fill="none" stroke="#5daaa5" stroke-width="2"/>
                <path id="Path_3124-2" data-name="Path 3124" d="M-2751.995,380.027V452.61" transform="translate(2960.262 -289.79)" fill="none" stroke="#5daaa5" stroke-width="2"/>
                <path id="Path_3125-2" data-name="Path 3125" d="M-2751.995,380.027v69.01" transform="translate(2968.735 -286.217)" fill="none" stroke="#5daaa5" stroke-width="2"/>
                <path id="Path_3126-2" data-name="Path 3126" d="M-2817.846,731.36l15.208,5.656" transform="translate(3034.587 -581.41)" fill="none" stroke="#5daaa5" stroke-width="2"/>
                <path id="Path_3127-2" data-name="Path 3127" d="M-2612.585,484.942l-121.409-47.551" transform="translate(2820.853 -358.414)" fill="none" stroke="#5daaa5" stroke-width="2"/>
                <path id="Path_3128-2" data-name="Path 3128" d="M-2606.917,420.658v52.7" transform="translate(2779.294 -345.72)" fill="none" stroke="#5daaa5" stroke-width="2"/>
                <path id="Path_3129-2" data-name="Path 3129" d="M-2453.51,341.659v55.758" transform="translate(2582.561 -285.794)" fill="none" stroke="#5daaa5" stroke-width="2"/>
              </g>
            </g>
          </g>
          <path id="Path_3130" data-name="Path 3130" d="M350,824.816v93.711" transform="translate(-350 -739.465)" fill="none" stroke="#5daaa5" stroke-width="2"/>
          <path id="Path_3131" data-name="Path 3131" d="M350,824.816v93.711" transform="translate(97.706 -739.465)" fill="none" stroke="#5daaa5" stroke-width="2"/>
        </g>
        <path id="Path_3132" data-name="Path 3132" d="M157.964,944.374l-111.9,50.28" transform="translate(-46.059 -815.003)" fill="none" stroke="#5daaa5" stroke-width="2"/>
        <path id="Path_3133" data-name="Path 3133" d="M46.059,944.374l111.9,50.28" transform="translate(513.552 -815.003)" fill="none" stroke="#5daaa5" stroke-width="2"/>
      </g>
    </g>
    <g id="Group_2943" data-name="Group 2943" transform="translate(1107.703 661.661)">
      <path id="Path_3135" data-name="Path 3135" d="M-2193.444,14.3V-36.9l75.272-41.81-.417,129.273" transform="translate(2193.444 78.706)" fill="none" stroke="#5daaa5" stroke-width="2"/>
      <path id="Path_3137" data-name="Path 3137" d="M-2192.4,46.67l75.233-40.279" transform="translate(2192.399 25.973)" fill="none" stroke="#5daaa5" stroke-width="2"/>
      <path id="Path_3138" data-name="Path 3138" d="M-2020.216,19.345V106.43" transform="translate(2086.353 17.946)" fill="none" stroke="#5daaa5" stroke-width="2"/>
      <path id="Path_3139" data-name="Path 3139" d="M-2162.331,123.722l58.848-30.769" transform="translate(2169.619 -27.667)" fill="none" stroke="#5daaa5" stroke-width="2"/>
      <path id="Path_3141" data-name="Path 3141" d="M-2192.4,74.652l66.073-35.315" transform="translate(2192.399 5.557)" fill="none" stroke="#5daaa5" stroke-width="2"/>
      <path id="Path_3140" data-name="Path 3140" d="M-2105.693,65.232v53.913" transform="translate(2139.275 -10.489)" fill="none" stroke="#5daaa5" stroke-width="2"/>
    </g>
    <g id="Group_2944" data-name="Group 2944" transform="translate(1182.688 694.026)">
      <path id="Path_3137-2" data-name="Path 3137" d="M-2117.166,46.67-2192.4,6.391" transform="translate(2192.399 -6.391)" fill="none" stroke="#5daaa5" stroke-width="2"/>
      <path id="Path_3138-2" data-name="Path 3138" d="M-2020.216,19.345V106.43" transform="translate(2029.312 -14.418)" fill="none" stroke="#5daaa5" stroke-width="2"/>
      <path id="Path_3139-2" data-name="Path 3139" d="M-2103.483,123.722l-58.848-30.769" transform="translate(2171.427 -60.031)" fill="none" stroke="#5daaa5" stroke-width="2"/>
      <path id="Path_3141-2" data-name="Path 3141" d="M-2126.327,74.652-2192.4,39.337" transform="translate(2201.56 -26.807)" fill="none" stroke="#5daaa5" stroke-width="2"/>
      <path id="Path_3140-2" data-name="Path 3140" d="M-2105.693,65.232v53.913" transform="translate(2147.344 -42.853)" fill="none" stroke="#5daaa5" stroke-width="2"/>
    </g>
    <path id="Path_3142" data-name="Path 3142" d="M1482.788,754.844V701.479L1408,662.2" transform="translate(-224.867 -0.793)" fill="none" stroke="#5daaa5" stroke-width="2"/>
  </g>
</svg>
