<svg xmlns="http://www.w3.org/2000/svg" width="67.63" height="44.131" viewBox="0 0 67.63 44.131"><defs><style>.a{fill:#0a2240;}</style></defs><path class="a" d="M75.13,51.462l-2.1-23.5H66.342L65.2,25.289h7.833v-4.2H63.476L60.8,14.4H21.828l-2.675,6.687H9.793v4.2h7.642l-1.146,2.675H9.6l-2.1,23.5,4.585.191v2.675a4.207,4.207,0,0,0,4.012,4.2h9.17a4.079,4.079,0,0,0,4.012-4.2v-2.1l11.845.382,12.227-.382v2.1a4.207,4.207,0,0,0,4.012,4.2h9.17a4.079,4.079,0,0,0,4.012-4.2V51.653ZM24.694,18.6H57.745l3.821,9.361H20.873Zm.382,35.534H16.288V51.653l8.788.191ZM12.085,47.259l1.337-15.092H69.016l1.337,15.092-29.039.955Zm54.639,6.878H57.936V51.844l8.788-.191Z" transform="translate(-7.5 -14.4)"/><path class="a" d="M34.122,27.564,15.591,26.8,15.4,31l18.722.764L52.845,31l-.191-4.2Z" transform="translate(-0.307 -3.111)"/></svg>