<svg xmlns="http://www.w3.org/2000/svg" width="66.363" height="46.737" viewBox="0 0 66.363 46.737"><defs><style>.a{fill:#0a2240;}</style></defs><path class="a" d="M68.484,33.933l1.416-3.44L29.84,13.7,21.949,32.516l7.891,3.237L16.688,47.893H13.047v-8.7H9V60.437h4.047v-8.5h5.26L34.088,37.372,62.212,49.107l1.416-3.44a11.841,11.841,0,0,0,2.63.4,10.156,10.156,0,0,0,2.428-.4,7.054,7.054,0,0,0,4.451-3.844l2.226-5.26Zm-8.5,10.116L27.412,30.493l4.653-11.33L64.64,32.719ZM69.5,40.407a3.57,3.57,0,0,1-1.821,1.619,4.932,4.932,0,0,1-2.428,0l1.821-4.451L70.1,38.788Z" transform="translate(-9 -13.7)"/></svg>