<svg xmlns="http://www.w3.org/2000/svg" width="23" height="10.068" viewBox="0 0 23 10.068">
  <g id="Group_3928" data-name="Group 3928" transform="translate(-149.438 -452.011)">
    <g id="Group_3927" data-name="Group 3927">
      <g id="Group_3926" data-name="Group 3926">
        <rect id="Rectangle_2602" data-name="Rectangle 2602" width="7.907" height="2.784" transform="translate(156.985 455.653)" fill="#001a31"/>
        <path id="Path_3192" data-name="Path 3192" d="M149.438,456.086v1.746a.322.322,0,0,0,.322.322h.691v-2.39h-.691A.322.322,0,0,0,149.438,456.086Z" fill="#001a31"/>
        <path id="Path_3193" data-name="Path 3193" d="M153.638,453.2v8.882h2.551V452.011h-2.551Z" fill="#001a31"/>
        <path id="Path_3194" data-name="Path 3194" d="M152.842,459.233v-5.9h-1.594v7.428h1.594Z" fill="#001a31"/>
        <path id="Path_3195" data-name="Path 3195" d="M172.116,455.764h-.691v2.39h.691a.322.322,0,0,0,.322-.322v-1.746A.322.322,0,0,0,172.116,455.764Z" fill="#001a31"/>
        <path id="Path_3196" data-name="Path 3196" d="M168.238,452.011h-2.551v10.068h2.551Z" fill="#001a31"/>
        <rect id="Rectangle_2603" data-name="Rectangle 2603" width="1.595" height="7.428" transform="translate(169.034 453.331)" fill="#001a31"/>
      </g>
    </g>
  </g>
</svg>
