<svg xmlns="http://www.w3.org/2000/svg" width="60.772" height="57.63" viewBox="0 0 60.772 57.63"><defs><style>.a{fill:#0a2240;}</style></defs><g transform="translate(-9 -10.59)"><path class="a" d="M51.628,18.839V10.59H27.106v8.249H9V68.22H69.772V18.839ZM30.847,14.331h17.04v4.508H30.847ZM66.031,64.5H12.741V22.58h53.29Z" transform="translate(0)"/><path class="a" d="M32.282,50.357A15.114,15.114,0,1,0,17.15,35.243,15.114,15.114,0,0,0,32.282,50.357Zm0-26.486A11.373,11.373,0,1,1,20.891,35.244,11.373,11.373,0,0,1,32.282,23.871Z" transform="translate(7.094 8.304)"/><path class="a" d="M26.432,37.886h3.741V33.153h4.751V29.412H30.173V24.68H26.432v4.732H21.7v3.741h4.732Z" transform="translate(11.055 12.265)"/></g></svg>