<svg xmlns="http://www.w3.org/2000/svg" width="62.646" height="58.267" viewBox="0 0 62.646 58.267"><defs><style>.a{fill:#0a2240;}</style></defs><path class="a" d="M61.579,54.586H54.724V19.74a9.142,9.142,0,0,0-9.14-9.14,9.023,9.023,0,0,0-9.14,9.14v2.095h3.808V19.74a5.322,5.322,0,0,1,5.332-5.332,5.206,5.206,0,0,1,5.332,5.332v7.045H29.97V19.74a9.142,9.142,0,0,0-9.14-9.14,9.023,9.023,0,0,0-9.14,9.14v2.095H15.5V19.74a5.322,5.322,0,0,1,5.332-5.332,5.206,5.206,0,0,1,5.332,5.332V54.586H11.5v3.808H61.579ZM50.916,45.636H29.97V40.114H50.916Zm0-15.043v5.522H29.97V30.593ZM29.78,49.444H50.725v5.141H29.78V49.444Z" transform="translate(-6.359 -10.6)"/><rect class="a" width="42.082" height="3.808" transform="translate(20.565 54.458)"/><rect class="a" width="15.614" height="3.808" transform="translate(0 54.458)"/></svg>