<svg xmlns="http://www.w3.org/2000/svg" width="61.409" height="62.837" viewBox="0 0 61.409 62.837"><defs><style>.a{fill:#0a2240;}</style></defs><path class="a" d="M63.128,26.8a2,2,0,0,0-1.714-.952,10.4,10.4,0,0,1-8.188-4.57,10.114,10.114,0,0,1-.571-9.33,2.043,2.043,0,0,0-.19-2.095,2.1,2.1,0,0,0-1.9-.952h0A13.281,13.281,0,0,0,37.8,18.8H30.187A12.272,12.272,0,0,0,18,30.988h3.808a8.453,8.453,0,0,1,8.378-8.378h7.236a14.572,14.572,0,0,0,1.142,5.712,13.825,13.825,0,0,0,8.569,7.426,17.146,17.146,0,0,0,3.047.571V45.84A6.339,6.339,0,0,1,43.9,52.124H42.563v3.808H43.9A10.159,10.159,0,0,0,53.988,45.84v-9.9a16.163,16.163,0,0,0,4.189-1.714,13.366,13.366,0,0,0,4.951-5.332A2.055,2.055,0,0,0,63.128,26.8Zm-6.855,4.189a9.932,9.932,0,0,1-8,1.142A9.426,9.426,0,0,1,42.183,26.8a9.977,9.977,0,0,1,2.666-11.806,10.327,10.327,0,0,1,3.427-1.9A13.48,13.48,0,0,0,49.99,23.181a14.3,14.3,0,0,0,8.378,6.093C57.606,29.846,57.035,30.417,56.273,30.988Z" transform="translate(-2.005 -8.9)"/><path class="a" d="M14.1,37.021a9.548,9.548,0,0,0,9.521,9.521,9.521,9.521,0,1,0,0-19.041A9.548,9.548,0,0,0,14.1,37.021Zm15.043,0a5.729,5.729,0,0,1-5.712,5.712,5.712,5.712,0,1,1,0-11.425A5.729,5.729,0,0,1,29.143,37.021Z" transform="translate(-5.531 7.917)"/><rect class="a" width="3.808" height="6.855" transform="translate(16.185 26.848)"/><rect class="a" width="3.808" height="6.855" transform="translate(16.185 55.982)"/><rect class="a" width="6.855" height="3.808" transform="translate(0 43.034)"/><rect class="a" width="6.855" height="3.808" transform="translate(29.133 43.034)"/><rect class="a" width="6.855" height="3.808" transform="translate(4.025 56.26) rotate(-45)"/><rect class="a" width="6.855" height="3.808" transform="translate(24.622 35.708) rotate(-45)"/><rect class="a" width="3.808" height="6.855" transform="matrix(0.707, -0.707, 0.707, 0.707, 24.6, 54.124)"/><rect class="a" width="3.808" height="6.855" transform="matrix(0.707, -0.707, 0.707, 0.707, 4.049, 33.529)"/></svg>