<svg xmlns="http://www.w3.org/2000/svg" width="72.053" height="57.258" viewBox="0 0 72.053 57.258">
  <path id="Path_5434" data-name="Path 5434" d="M-357.427-36.9-393.433-56.47-429.48-36.878l9.715,4.594v11.435l.81.607a49.547,49.547,0,0,0,26.979,8.582,39.828,39.828,0,0,0,13.2-2.247v2.975a6.022,6.022,0,0,0-4.028,5.667A6.055,6.055,0,0,0-376.756.788,6.055,6.055,0,0,0-370.7-5.264a6,6,0,0,0-4.028-5.667v-4.635a46.475,46.475,0,0,0,7.914-4.675l.83-.607v-11.9ZM-376.776-3.24a2,2,0,0,1-2-2,2,2,0,0,1,2-2,2,2,0,0,1,2,2A2,2,0,0,1-376.776-3.24Zm-16.657-48.636L-366.272-37.1l-10.484,5.08-15.767-7.812-1.8,3.623,12.953,6.416-11.7,5.687-27.465-13.014Zm-22.284,28.963v-7.448l22.668,10.747,14.269-6.922v8.359C-396.51-11.214-412.013-20.4-415.717-22.913Zm45.66.02a43.738,43.738,0,0,1-4.7,2.874v-8.46l4.7-2.267Z" transform="translate(429.48 56.47)" fill="#0a2240"/>
</svg>
