<svg id="Layer_1" data-name="Layer 1" xmlns="http://www.w3.org/2000/svg" viewBox="0 0 337.92 81"><defs><style>.cls-1{fill:#00837b;}</style></defs><title>logo-ecoe-w</title><path class="cls-1" d="M41.15,54A13.48,13.48,0,1,1,54.43,37.24L81,30.7A41,41,0,0,0,41.15,0c-.85,0-1.69,0-2.53.08V24.76L30.87,1.28a39.61,39.61,0,0,0-4.81,1.54L33.81,26.3l-14.73-20A39.61,39.61,0,0,0,15,9.26l14.73,20L9.44,14.72a41.91,41.91,0,0,0-3,4L26.74,33.27,2.9,25.63a38.24,38.24,0,0,0-1.56,4.75L25.18,38H.12c0,.82-.08,1.65-.08,2.49s0,1.67.08,2.49H25.18L1.34,50.62A38.24,38.24,0,0,0,2.9,55.37l23.84-7.64L6.46,62.25a41.91,41.91,0,0,0,3,4L29.71,51.77,15,71.74a39.61,39.61,0,0,0,4.1,2.93l14.73-20L26.06,78.18a39.61,39.61,0,0,0,4.81,1.54l7.75-23.48V80.92c.84,0,1.68.08,2.53.08A41,41,0,0,0,81,50.3L54.43,43.76A13.66,13.66,0,0,1,41.15,54Z" transform="translate(-0.04)"/><path class="cls-1" d="M127.68,38.72V31c0-6.37,2.59-9,7.24-9s7.34,2.59,7.34,9v4Zm7.56,29a27.14,27.14,0,0,0,23.88-13.93l-16-4.17a36.16,36.16,0,0,1-1,4.71C141.29,56.6,139.89,59,135,59c-4.65,0-7.35-2.59-7.35-9V45.56l14.91-3.87,17.71-4.54c0-11.23-9.5-23.87-25.06-23.87a27.22,27.22,0,0,0,0,54.44Z" transform="translate(-0.04)"/><path class="cls-1" d="M193.6,67.72c11.33,0,21.16-6.73,23.9-16.55l-16.82-4.34a37.91,37.91,0,0,1-.88,5.05c-.71,3.27-1.86,7.08-7,7.08-4.69,0-7.52-2.66-7.52-9V31.07c0-6.28,2.83-9,7.52-9,5,0,6.29,3.9,7,7.08l.87,5.18.13,0L217.49,30c-2.75-9.2-12.12-16.68-23.89-16.68a26.58,26.58,0,0,0-26.73,26.91C166.87,55.42,178.64,67.72,193.6,67.72Z" transform="translate(-0.04)"/><path class="cls-1" d="M305.34,38.72V31c0-6.37,2.59-9,7.23-9s7.35,2.59,7.35,9v4Zm7.56,29a27.12,27.12,0,0,0,23.87-13.93l-16-4.17a36.16,36.16,0,0,1-1,4.71C319,56.6,317.54,59,312.68,59c-4.64,0-7.34-2.59-7.34-9V45.56l14.9-3.87L338,37.15c0-11.23-9.51-23.87-25.06-23.87a27.22,27.22,0,0,0,0,54.44Z" transform="translate(-0.04)"/><path class="cls-1" d="M251.32,67.72A27.22,27.22,0,1,0,224,40.5,27.28,27.28,0,0,0,251.32,67.72Zm0-8.66c-4.69,0-8.36-2.86-8.36-9.28V31.22c0-6.42,3.67-9.28,8.36-9.28s8.26,2.86,8.26,9.28V49.78C259.58,56.2,255.91,59.06,251.32,59.06Z" transform="translate(-0.04)"/></svg>