<svg id="Layer_1" data-name="Layer 1" xmlns="http://www.w3.org/2000/svg" viewBox="0 0 130 185.86"><defs><style>.cls-1{fill:#00837b;}</style></defs><title>logo-ecoe</title><path class="cls-1" d="M66,86.71A21.64,21.64,0,1,1,87.28,59.83L130,49.34C122.86,21,96.91.07,66,.07c-1.36,0-2.71,0-4.06.12V39.81L49.48,2.12a64.87,64.87,0,0,0-7.72,2.47l12.43,37.7L30.55,10.23A66.41,66.41,0,0,0,24,14.93L47.62,47,15.09,23.7a63.14,63.14,0,0,0-4.78,6.47L42.85,53.46,4.59,41.21a63.93,63.93,0,0,0-2.51,7.61L40.34,61.07H.13c-.08,1.32-.13,2.66-.13,4s.05,2.68.13,4H40.34L2.08,81.32a63.93,63.93,0,0,0,2.51,7.61L42.85,76.68,10.31,100a64.26,64.26,0,0,0,4.78,6.47L47.62,83.15,24,115.21a68.1,68.1,0,0,0,6.57,4.7L54.19,87.85l-12.43,37.7A66.75,66.75,0,0,0,49.48,128l12.43-37.7v39.62c1.35.08,2.7.13,4.06.13,30.94,0,56.89-21,64-49.27L87.28,70.3A21.9,21.9,0,0,1,66,86.71Z" transform="translate(0 -0.07)"/><path class="cls-1" d="M11.07,169.53v-4.37c0-3.6,1.47-5.07,4.09-5.07s4.16,1.47,4.16,5.07v2.26Zm4.28,16.4a15.36,15.36,0,0,0,13.5-7.88l-9-2.35a21.29,21.29,0,0,1-.55,2.66c-.49,1.28-1.29,2.62-4,2.62s-4.15-1.46-4.15-5.07V173.4l8.43-2.19,10-2.57a13.93,13.93,0,0,0-14.17-13.5,15.4,15.4,0,0,0,0,30.79Z" transform="translate(0 -0.07)"/><path class="cls-1" d="M48.35,185.93c6.41,0,12-3.8,13.52-9.36l-9.52-2.45a20.72,20.72,0,0,1-.5,2.85c-.4,1.85-1.05,4-4,4-2.66,0-4.26-1.5-4.26-5.1V165.21c0-3.56,1.6-5.11,4.26-5.11,2.85,0,3.55,2.2,4,4l.5,2.93.07,0,9.44-2.43c-1.55-5.21-6.85-9.44-13.51-9.44a15,15,0,0,0-15.12,15.22A15.27,15.27,0,0,0,48.35,185.93Z" transform="translate(0 -0.07)"/><path class="cls-1" d="M111.54,169.53v-4.37c0-3.6,1.46-5.07,4.09-5.07s4.15,1.47,4.15,5.07v2.26Zm4.27,16.4a15.33,15.33,0,0,0,13.5-7.88l-9-2.35a20.13,20.13,0,0,1-.56,2.66c-.49,1.28-1.28,2.62-4,2.62s-4.15-1.46-4.15-5.07V173.4l8.43-2.19,10-2.57a13.93,13.93,0,0,0-14.18-13.5,15.4,15.4,0,0,0,0,30.79Z" transform="translate(0 -0.07)"/><path class="cls-1" d="M81,185.93a15.4,15.4,0,1,0-15.45-15.39A15.43,15.43,0,0,0,81,185.93Zm0-4.9c-2.65,0-4.72-1.61-4.72-5.25V165.29c0-3.63,2.07-5.25,4.72-5.25s4.67,1.62,4.67,5.25v10.49C85.66,179.42,83.59,181,81,181Z" transform="translate(0 -0.07)"/></svg>