<svg id="Layer_1" data-name="Layer 1" xmlns="http://www.w3.org/2000/svg" viewBox="0 0 229.83 54.44"><defs><style>.cls-1{fill:#00837b;}</style></defs><title>logo-ecoe-char</title><path class="cls-1" d="M19.64,25.72V18c0-6.37,2.59-9,7.23-9s7.35,2.59,7.35,9v4Zm7.56,29A27.12,27.12,0,0,0,51.07,40.79l-16-4.17a36.16,36.16,0,0,1-1,4.71C33.25,43.6,31.84,46,27,46c-4.64,0-7.34-2.59-7.34-9V32.56l14.9-3.87,17.72-4.54C52.26,12.92,42.75.28,27.2.28A27.06,27.06,0,0,0,.09,27.39,27.1,27.1,0,0,0,27.2,54.72Z" transform="translate(-0.09 -0.28)"/><path class="cls-1" d="M85.56,54.72c11.33,0,21.15-6.73,23.9-16.55L92.64,33.83a37.12,37.12,0,0,1-.89,5.05C91,42.15,89.89,46,84.76,46c-4.69,0-7.53-2.66-7.53-9V18.07c0-6.28,2.84-9,7.53-9,5,0,6.28,3.9,7,7.08l.88,5.18.13,0L109.44,17C106.7,7.76,97.33.28,85.56.28A26.58,26.58,0,0,0,58.82,27.19C58.82,42.42,70.59,54.72,85.56,54.72Z" transform="translate(-0.09 -0.28)"/><path class="cls-1" d="M197.29,25.72V18c0-6.37,2.59-9,7.24-9s7.35,2.59,7.35,9v4Zm7.56,29a27.14,27.14,0,0,0,23.88-13.93l-16-4.17a36.16,36.16,0,0,1-1,4.71C210.9,43.6,209.5,46,204.64,46c-4.65,0-7.35-2.59-7.35-9V32.56l14.91-3.87,17.71-4.54c0-11.23-9.5-23.87-25.06-23.87a27.22,27.22,0,0,0,0,54.44Z" transform="translate(-0.09 -0.28)"/><path class="cls-1" d="M143.28,54.72A27.22,27.22,0,1,0,116,27.5,27.28,27.28,0,0,0,143.28,54.72Zm0-8.66c-4.69,0-8.36-2.86-8.36-9.28V18.22c0-6.42,3.67-9.28,8.36-9.28s8.26,2.86,8.26,9.28V36.78C151.54,43.2,147.87,46.06,143.28,46.06Z" transform="translate(-0.09 -0.28)"/></svg>