<svg id="Group_6440" data-name="Group 6440" xmlns="http://www.w3.org/2000/svg" width="90.104" height="96" viewBox="0 0 90.104 96">
  <path id="Path_3050" data-name="Path 3050" d="M16.253-14.227a9.292,9.292,0,0,0-9.047-9.71H-7.84A31.391,31.391,0,0,0-4.171-39.211v-.978A12.812,12.812,0,0,0-7.5-48.921,10.985,10.985,0,0,0-15.55-52.63h-.093a6.057,6.057,0,0,0-5.782,5.664C-22.576-31.895-36.037-24.14-45.052-19.42v-1.551A2.833,2.833,0,0,0-47.788-23.9H-73.84V32.3H-53.6a8.5,8.5,0,0,0,7.648-5.125c9.762,4.552,18.218,5.159,27.917,5.159,1.679,0,3.358-.034,5.13-.034,1.927-.034,3.917-.067,6-.067H1.331a9.079,9.079,0,0,0,8.953-8.53,9.784,9.784,0,0,0-1.15-5.395,9.418,9.418,0,0,0,4.1-7.89,9.908,9.908,0,0,0-1.181-4.687,9.418,9.418,0,0,0,4.1-7.89,9.494,9.494,0,0,0-2.269-6.2A9.664,9.664,0,0,0,16.253-14.227Zm-66.777,37.29A3.224,3.224,0,0,1-53.6,26.4H-68.368V-18h17.845ZM1.86-5.495H7.58a3.249,3.249,0,0,1,3.109,3.338A3.258,3.258,0,0,1,7.58,1.215H1.86A2.833,2.833,0,0,0-.876,4.148,2.833,2.833,0,0,0,1.86,7.081h2.8a3.249,3.249,0,0,1,3.109,3.338,3.258,3.258,0,0,1-3.109,3.372H1.735a2.94,2.94,0,0,0,0,5.867,3.364,3.364,0,0,1,0,6.709H-6.907c-2.114,0-4.135,0-6.062.034-12.187.1-21.14.2-32.021-5.226V-12.879c.28-.135.56-.3.87-.472,4.756-2.461,11.254-5.833,16.85-10.958C-20.4-30.58-16.607-38.031-15.954-46.46a.425.425,0,0,1,.311-.3h.031a6.269,6.269,0,0,1,5.969,6.507v1.045c0,6.136-1.461,10.014-4.57,15.273h-4.352A2.833,2.833,0,0,0-21.3-21a2.833,2.833,0,0,0,2.736,2.933H7.673a3.249,3.249,0,0,1,3.109,3.338,3.258,3.258,0,0,1-3.109,3.372H1.86A2.833,2.833,0,0,0-.876-8.428,2.833,2.833,0,0,0,1.86-5.495Z" transform="translate(73.84 63.666)" fill="#fff"/>
  <path id="Path_3051" data-name="Path 3051" d="M-57.237-47.35h1.71v-3.4H-62.58v3.4h5.343Z" transform="translate(99.465 74.782)" fill="#fff"/>
  <path id="Path_3052" data-name="Path 3052" d="M-49.45-50.75v3.4h7.072v-3.4H-49.45Z" transform="translate(130.629 74.782)" fill="#fff"/>
  <rect id="Rectangle_2610" data-name="Rectangle 2610" width="3.4" height="7.072" transform="translate(58.103 0)" fill="#fff"/>
  <rect id="Rectangle_2611" data-name="Rectangle 2611" width="3.4" height="7.072" transform="translate(40.806 5.201) rotate(-45)" fill="#fff"/>
  <rect id="Rectangle_2612" data-name="Rectangle 2612" width="7.072" height="3.4" transform="translate(77.339 7.796) rotate(-45)" fill="#fff"/>
</svg>
