<svg id="Group_2878" data-name="Group 2878" xmlns="http://www.w3.org/2000/svg" width="96" height="96" viewBox="0 0 55.081 59.161">
  <path id="Path_3049" data-name="Path 3049" d="M-99.46-37.1A15.348,15.348,0,0,0-114.789-52.43,15.348,15.348,0,0,0-130.119-37.1a15.47,15.47,0,0,0,3.3,9.268h-15.5v3.886h55.081v-3.886h-15.6A15.385,15.385,0,0,0-99.46-37.1Zm-26.773,0a11.451,11.451,0,0,1,11.444-11.444A11.451,11.451,0,0,1-103.346-37.1a12.541,12.541,0,0,1-4.9,9.268h-13.173A12.013,12.013,0,0,1-126.233-37.1Z" transform="translate(142.32 64.806)" fill="#fff"/>
  <rect id="Rectangle_2603" data-name="Rectangle 2603" width="24.072" height="3.886" transform="translate(14.98 55.275)" fill="#fff"/>
  <rect id="Rectangle_2604" data-name="Rectangle 2604" width="3.886" height="9.676" transform="translate(25.588 0)" fill="#fff"/>
  <rect id="Rectangle_2605" data-name="Rectangle 2605" width="9.676" height="3.886" transform="translate(0 25.763)" fill="#fff"/>
  <rect id="Rectangle_2606" data-name="Rectangle 2606" width="3.886" height="9.676" transform="matrix(0.707, -0.707, 0.707, 0.707, 5.911, 9.344)" fill="#fff"/>
  <rect id="Rectangle_2607" data-name="Rectangle 2607" width="9.676" height="3.886" transform="translate(38.959 13.429) rotate(-45)" fill="#fff"/>
  <rect id="Rectangle_2608" data-name="Rectangle 2608" width="9.676" height="3.886" transform="translate(45.405 25.763)" fill="#fff"/>
  <rect id="Rectangle_2609" data-name="Rectangle 2609" width="36.837" height="3.886" transform="translate(8.549 45.736)" fill="#fff"/>
</svg>
