<svg xmlns="http://www.w3.org/2000/svg" width="11.156" height="6.049" viewBox="0 0 11.156 6.049">
  <path id="Path_4614" data-name="Path 4614" d="M-94.818,30.414l-1.135-.658a5.16,5.16,0,0,1-7.068,1.818,5.161,5.161,0,0,1-1.818-1.818l-1.135.658a6.486,6.486,0,0,0,1.4,1.646l-1.3,1.316.915.915,1.474-1.474a6.521,6.521,0,0,0,2.422.75V35.8h1.316V33.567a6.533,6.533,0,0,0,2.419-.75l1.474,1.474.931-.928-1.3-1.316A6.49,6.49,0,0,0-94.818,30.414Z" transform="translate(105.974 -29.756)" fill="#00837b"/>
</svg>
