<svg xmlns="http://www.w3.org/2000/svg" width="13.317" height="8.009" viewBox="0 0 13.317 8.009">
  <g id="Group_4968" data-name="Group 4968" transform="translate(-441.318 -5803.465)">
    <path id="Path_3060" data-name="Path 3060" d="M432.654-47.25h0a7.328,7.328,0,0,0-6.53-3.76,7.328,7.328,0,0,0-6.53,3.76l-.124.244.129.244a7.328,7.328,0,0,0,6.53,3.76,7.328,7.328,0,0,0,6.53-3.76l.129-.244Zm-1.083.244a6.342,6.342,0,0,1-5.447,2.94,6.336,6.336,0,0,1-5.447-2.94,6.342,6.342,0,0,1,5.447-2.94A6.342,6.342,0,0,1,431.571-47.005Z" transform="translate(21.848 5854.475)" fill="#00837b"/>
    <path id="Path_3061" data-name="Path 3061" d="M431.408-46.96a2.14,2.14,0,0,0-2.138,2.138,2.14,2.14,0,0,0,2.138,2.138,2.14,2.14,0,0,0,2.138-2.138A2.143,2.143,0,0,0,431.408-46.96Zm1.069,2.138a1.075,1.075,0,0,1-1.074,1.074,1.072,1.072,0,0,1-1.074-1.074A1.072,1.072,0,0,1,431.4-45.9,1.075,1.075,0,0,1,432.477-44.822Z" transform="translate(16.564 5852.291)" fill="#00837b"/>
  </g>
</svg>
