<svg xmlns="http://www.w3.org/2000/svg" width="16.04" height="16.196" viewBox="0 0 16.04 16.196">
  <path id="Path_2741" data-name="Path 2741" d="M8.59,19.952c.112.1.221.2.32.295a2.063,2.063,0,0,0,1.444.433c1.913,0,5.127-1.26,8-4.078a15.721,15.721,0,0,0,3.728-5.664c.623-1.767.613-3.2-.026-3.843-.129-.129-.27-.291-.419-.462-.562-.646-1.262-1.449-2.161-1.449a2.182,2.182,0,0,0-1.645.98c-1.765,2.2-1.526,2.762-.326,3.943l.209.207c.3.3-.444,1.929-2.082,3.567-1.189,1.189-2.6,2.086-3.281,2.086a.287.287,0,0,1-.226-.067c-.075-.074-.148-.149-.219-.222a2.228,2.228,0,0,0-1.559-.907,3.445,3.445,0,0,0-2.168,1.217,2.521,2.521,0,0,0-.949,1.825A3.2,3.2,0,0,0,8.59,19.952ZM8.662,16.5c.72-.687-1.143,1.52-.731,1.52.362,0,1.05,1.944,1.467,2.374h1.457l2.413-2.579c.125.123-1.291-1.142-.921-1.142,1.027,0-2.427,4.717-1.286,3.576.755-.755,4.139-1.464,4.567-2.23.569-1.018,3.819-2.626,3.4-3.049-.074-.074,3.095-5.808,3.026-5.875-.961-.946-1.934,1.571-.419-.313.382-.475.1-.371.445-.371.578,0-1.469-1.881-.976-1.315.158.181.306.352.452.5.34.34.442,1.459-.14,3.111a15,15,0,0,1-3.559,5.4c-2.726,2.676-5.732,3.874-7.5,3.874A1.365,1.365,0,0,1,9.4,19.74c-.1-.1-.218-.2-.337-.311-.526-.475-1.122-1.014-1.131-1.627A1.91,1.91,0,0,1,8.662,16.5Z" transform="translate(-6.877 -4.833)" fill="#00837b" stroke="#00837b" stroke-width="0.7"/>
</svg>
