<svg xmlns="http://www.w3.org/2000/svg" width="24" height="21.23" viewBox="0 0 24 21.23">
  <g id="Group_5231" data-name="Group 5231" transform="translate(-107 -484.77)">
    <circle id="Ellipse_335" data-name="Ellipse 335" cx="10" cy="10" r="10" transform="translate(111 486)" fill="#e2f6fc"/>
    <path id="Path_3090" data-name="Path 3090" d="M227.494-46.566V-55.29h-1.357v4.206a13.083,13.083,0,0,0-9.422-4.05,12.935,12.935,0,0,0-9.192,3.806V-55.29h-1.357v8.724H204.81v8.683h1.357v-3.643h21.287v3.833h1.357v-8.873Zm-19.964-2.72a11.6,11.6,0,0,1,9.192-4.484,11.747,11.747,0,0,1,9.422,4.789v2.415h-3.2V-47.91a1.94,1.94,0,0,0-1.94-1.94h-8.262A2.047,2.047,0,0,0,210.7-47.8v1.235H207.53Zm8.608,2.72h-4.09v-1.275a.651.651,0,0,1,.651-.651h3.439Zm5.447,0H217.5v-1.927h3.466a.62.62,0,0,1,.617.617v1.309Zm-15.412,3.683V-45.21H227.46v2.327Z" transform="translate(-97.81 540.06)" fill="#0a2240"/>
  </g>
</svg>
