<svg xmlns="http://www.w3.org/2000/svg" width="22.952" height="24.771" viewBox="0 0 22.952 24.771">
  <g id="Group_5232" data-name="Group 5232" transform="translate(-205.548 -481.229)">
    <circle id="Ellipse_358" data-name="Ellipse 358" cx="10" cy="10" r="10" transform="translate(208.5 486)" fill="#e2f6fc"/>
    <g id="Icon_NgheÌ_14-15" transform="translate(205.548 481.229)">
      <path id="Path_3136" data-name="Path 3136" d="M17.058,20.741V10.4H10.7v9.363a3.957,3.957,0,0,0,1.188,2.865l1.887,1.887V31.99H24.6V27.449h1.258a4.682,4.682,0,0,0,4.681-4.681V20.6H17.058Zm12.018,2.166a3.28,3.28,0,0,1-3.284,3.284H23.137v4.542H15.172V24.025l-2.306-2.306a2.7,2.7,0,0,1-.769-1.887V11.8h3.563V22.069H29.076Z" transform="translate(-10.7 -10.4)" fill="#0a2240"/>
      <rect id="Rectangle_2658" data-name="Rectangle 2658" width="11.948" height="1.397" transform="translate(7.686 7.336)" fill="#0a2240"/>
    </g>
  </g>
</svg>
