<svg xmlns="http://www.w3.org/2000/svg" width="68.673" height="68.3" viewBox="0 0 68.673 68.3">
  <g id="Group_6613" data-name="Group 6613" transform="translate(-4.1 -4.4)">
    <path id="Path_5421" data-name="Path 5421" d="M8.526,16.353h4.919a3.73,3.73,0,0,0,3.577,2.981h9.316a3.787,3.787,0,0,0,3.726-3.726,3.69,3.69,0,0,0-3.726-3.726h-5.59A3.73,3.73,0,0,0,17.172,8.9H8.526A3.787,3.787,0,0,0,4.8,12.626,3.737,3.737,0,0,0,8.526,16.353ZM7.483,11.509a1.251,1.251,0,0,1,1.043-.447h8.72a1.433,1.433,0,0,1,1.416,1.491A1.471,1.471,0,0,0,19.11,13.6a1.251,1.251,0,0,0,1.043.447h6.335A1.433,1.433,0,0,1,27.9,15.533h0a1.482,1.482,0,0,1-1.416,1.491H17.023a1.433,1.433,0,0,1-1.416-1.491h0a1.482,1.482,0,0,0-1.416-1.491H8.526A1.433,1.433,0,0,1,7.11,12.552,1.781,1.781,0,0,1,7.483,11.509Z" transform="translate(-0.051 -1.019)" fill="#0a2240" stroke="#0a2240" stroke-width="1"/>
    <path id="Path_5422" data-name="Path 5422" d="M41.516,41.859a1.1,1.1,0,0,0,1.118-1.118V36.418A1.146,1.146,0,0,0,41.516,35.3,1.1,1.1,0,0,0,40.4,36.418v4.323A1.055,1.055,0,0,0,41.516,41.859Z" transform="translate(-9.116 -7.743)" fill="#0a2240" stroke="#0a2240" stroke-width="1"/>
    <path id="Path_5423" data-name="Path 5423" d="M41.516,56.359a1.1,1.1,0,0,0,1.118-1.118V50.918A1.146,1.146,0,0,0,41.516,49.8,1.1,1.1,0,0,0,40.4,50.918v4.323A1.02,1.02,0,0,0,41.516,56.359Z" transform="translate(-9.116 -11.436)" fill="#0a2240" stroke="#0a2240" stroke-width="1"/>
    <path id="Path_5424" data-name="Path 5424" d="M41.516,70.859a1.1,1.1,0,0,0,1.118-1.118V65.418A1.146,1.146,0,0,0,41.516,64.3,1.1,1.1,0,0,0,40.4,65.418v4.323A1.02,1.02,0,0,0,41.516,70.859Z" transform="translate(-9.116 -15.13)" fill="#0a2240" stroke="#0a2240" stroke-width="1"/>
    <path id="Path_5425" data-name="Path 5425" d="M41.516,85.459a1.1,1.1,0,0,0,1.118-1.118V80.018A1.146,1.146,0,0,0,41.516,78.9,1.1,1.1,0,0,0,40.4,80.018v4.323A1.055,1.055,0,0,0,41.516,85.459Z" transform="translate(-9.116 -18.848)" fill="#0a2240" stroke="#0a2240" stroke-width="1"/>
    <path id="Path_5426" data-name="Path 5426" d="M56.016,56.359a1.1,1.1,0,0,0,1.118-1.118V50.918A1.146,1.146,0,0,0,56.016,49.8,1.1,1.1,0,0,0,54.9,50.918v4.323A1.02,1.02,0,0,0,56.016,56.359Z" transform="translate(-12.809 -11.436)" fill="#0a2240" stroke="#0a2240" stroke-width="1"/>
    <path id="Path_5427" data-name="Path 5427" d="M56.016,70.859a1.1,1.1,0,0,0,1.118-1.118V65.418A1.146,1.146,0,0,0,56.016,64.3,1.1,1.1,0,0,0,54.9,65.418v4.323A1.02,1.02,0,0,0,56.016,70.859Z" transform="translate(-12.809 -15.13)" fill="#0a2240" stroke="#0a2240" stroke-width="1"/>
    <path id="Path_5428" data-name="Path 5428" d="M56.016,85.459a1.1,1.1,0,0,0,1.118-1.118V80.018A1.146,1.146,0,0,0,56.016,78.9,1.1,1.1,0,0,0,54.9,80.018v4.323A1.055,1.055,0,0,0,56.016,85.459Z" transform="translate(-12.809 -18.848)" fill="#0a2240" stroke="#0a2240" stroke-width="1"/>
    <path id="Path_5429" data-name="Path 5429" d="M48.718,41.859a1.1,1.1,0,0,0,1.118-1.118V36.418A1.146,1.146,0,0,0,48.718,35.3,1.1,1.1,0,0,0,47.6,36.418v4.323A1.146,1.146,0,0,0,48.718,41.859Z" transform="translate(-10.952 -7.743)" fill="#0a2240" stroke="#0a2240" stroke-width="1"/>
    <path id="Path_5430" data-name="Path 5430" d="M48.718,56.359a1.1,1.1,0,0,0,1.118-1.118V50.918A1.146,1.146,0,0,0,48.718,49.8,1.1,1.1,0,0,0,47.6,50.918v4.323A1.1,1.1,0,0,0,48.718,56.359Z" transform="translate(-10.952 -11.436)" fill="#0a2240" stroke="#0a2240" stroke-width="1"/>
    <path id="Path_5431" data-name="Path 5431" d="M48.718,70.859a1.1,1.1,0,0,0,1.118-1.118V65.418A1.146,1.146,0,0,0,48.718,64.3,1.1,1.1,0,0,0,47.6,65.418v4.323A1.1,1.1,0,0,0,48.718,70.859Z" transform="translate(-10.952 -15.13)" fill="#0a2240" stroke="#0a2240" stroke-width="1"/>
    <path id="Path_5432" data-name="Path 5432" d="M48.718,85.459a1.1,1.1,0,0,0,1.118-1.118V80.018A1.146,1.146,0,0,0,48.718,78.9,1.1,1.1,0,0,0,47.6,80.018v4.323A1.146,1.146,0,0,0,48.718,85.459Z" transform="translate(-10.952 -18.848)" fill="#0a2240" stroke="#0a2240" stroke-width="1"/>
    <path id="Path_5433" data-name="Path 5433" d="M57.814,35.308a3.773,3.773,0,0,0,3.726-3.056h6.931a3.817,3.817,0,0,0,3.8-3.8v-.075a3.817,3.817,0,0,0-3.8-3.8H55.5a3.773,3.773,0,0,0-3.726,3.056H50.063V23.309a1.146,1.146,0,0,0-1.118-1.118H44.324V14.738a1.146,1.146,0,0,0-1.118-1.118h-4.1v-7.6a1.118,1.118,0,0,0-2.236,0v7.6h-4.1a1.146,1.146,0,0,0-1.118,1.118v7.453H27.033a1.146,1.146,0,0,0-1.118,1.118V48.425a11.5,11.5,0,0,0-8.422-4.77V36.65a1.118,1.118,0,1,0-2.236,0v7.006A11.8,11.8,0,0,0,4.6,55.356V71.082A1.146,1.146,0,0,0,5.718,72.2H70.782A1.146,1.146,0,0,0,71.9,71.082V37.171a1.274,1.274,0,0,0-.522-.969c-.3-.224-.745.149-1.118.3l-20.2,9.167V35.308Zm-7.751-5.441h2.385A1.574,1.574,0,0,0,54.013,28.3a1.574,1.574,0,0,1,1.565-1.565H68.546A1.574,1.574,0,0,1,70.111,28.3v.075a1.574,1.574,0,0,1-1.565,1.565H60.87A1.574,1.574,0,0,0,59.3,31.507a1.574,1.574,0,0,1-1.565,1.565H43.952a1.7,1.7,0,0,1-1.565-1.64,1.574,1.574,0,0,1,1.565-1.565h6.111ZM33.89,15.856h8.124v6.335H33.89Zm-5.739,8.571h19.6v3.2H44.026a3.673,3.673,0,0,0-3.95,3.8,3.882,3.882,0,0,0,3.8,3.876h3.8V69.89H28.151V24.427ZM69.664,69.89h-19.6V48.2l19.6-8.944Zm-54.407-24h0c.3,0,.522-.075.745-.075h0a3.228,3.228,0,0,0,.373.075.672.672,0,0,0,.373-.075h0a2.535,2.535,0,0,1,.745.075h0a9.575,9.575,0,0,1,8.347,8.347H6.91A9.5,9.5,0,0,1,15.258,45.891ZM6.836,56.474H11.68V69.89H6.836Zm7.08,0h4.844V69.89H13.916Zm7.155,0h4.844V69.89H21.071Z" fill="#0a2240" stroke="#0a2240" stroke-width="1"/>
  </g>
</svg>
