<svg xmlns="http://www.w3.org/2000/svg" width="59.054" height="58.737" viewBox="0 0 59.054 58.737">
  <path id="Icon_NgheÌ_14-35" d="M67.148,23.669c-.362-.181-.543-.362-.906-.362L40.157,10.083a3.112,3.112,0,0,0-3.079,0L10.811,22.944a1.384,1.384,0,0,0-.906.362A2.229,2.229,0,0,0,9,25.118l.181,34.418,29.346,8.876,29.527-8.876V25.118A2.489,2.489,0,0,0,67.148,23.669ZM38.527,13.343,61.17,24.755l-22.643,7.97L15.7,24.393ZM12.442,27.291l24.274,8.695V64.064l-5.434-1.63V45.225L17.152,39.972V58.086L12.623,57ZM27.658,61.347l-6.884-2.174V45.044l6.884,2.536ZM56.1,59.354l-6.884,2.174V47.942L56.1,45.406ZM64.25,57l-4.529,1.268V40.153L45.592,45.406V62.615l-5.253,1.63V35.986l24.092-8.514V57Z" transform="translate(-9 -9.675)" fill="#0a2240"/>
</svg>
