<svg xmlns="http://www.w3.org/2000/svg" width="70.285" height="60.322" viewBox="0 0 70.285 60.322">
  <path id="Icon_NgheÌ_14-32" d="M76.085,44.323,40.218,9,5.8,42.874,8.336,45.41,15.4,38.527V69.322H67.027V40.338l6.521,6.34ZM34.24,43.6a3.537,3.537,0,0,1-.181-1.268,4,4,0,0,1,2.536-3.8l1.63-.543-.362-1.63a2.3,2.3,0,0,1-.181-1.087c0-2.174,1.449-3.8,3.261-3.8s3.261,1.811,3.261,3.8a1.633,1.633,0,0,1-.181.906l-.362,1.993,1.993.181a3.621,3.621,0,0,1,2.9,3.8,3.536,3.536,0,0,1-.181,1.268l-.543,1.63,1.63.543a5.9,5.9,0,0,1,3.623,5.8c0,3.079-2.174,5.8-4.71,5.978H44.2l4.529-7.97-3.079-1.811-2.717,4.71v-12.5H39.312V53.2l-3.261-5.253-3.079,1.811,4.891,7.97H34.421c-2.9,0-5.253-2.717-5.253-5.978a6.039,6.039,0,0,1,3.8-5.8l1.63-.543ZM63.4,65.88H43.116V61.351h5.616c4.71-.362,8.152-4.529,8.152-9.6a9.884,9.884,0,0,0-4.71-8.514v-.725a7.483,7.483,0,0,0-4.348-6.884A7.129,7.129,0,0,0,40.942,28.2c-3.8,0-6.884,3.442-6.884,7.427v.362a7.609,7.609,0,0,0-3.623,6.521v.725a9.665,9.665,0,0,0-4.71,8.514c0,5.253,3.985,9.6,8.876,9.6h4.891V65.88H19.024V35.085L40.218,14.253,63.4,37.078Z" transform="translate(-5.8 -9)" fill="#0a2240"/>
</svg>
