<svg id="Group_6590" data-name="Group 6590" xmlns="http://www.w3.org/2000/svg" width="65.223" height="70.177" viewBox="0 0 65.223 70.177">
  <path id="Path_3041" data-name="Path 3041" d="M-300.915-43.948l.233-7.4-16.787-.544-15.155-7.286-3.225,6.7-10.239-.33-.738,23.2L-356.89-8.665l9.248,4.449-.233,7.4,16.787.544L-315.953,11l3.206-6.684,10.258.33.758-23.2L-291.667-39.5Zm4.041,6.256-4.546,9.481.369-11.482ZM-321.432,4.022l4.469.136-.777,1.632Zm-5.615-56.208-4.508-.136.8-1.651Zm22.363,4.6-1.535,48.2L-343.834-.563l1.535-48.223ZM-347.1-19.992l-.369,11.5-4.2-2.021Z" transform="translate(356.89 59.18)" fill="#0a2240"/>
  <rect id="Rectangle_2600" data-name="Rectangle 2600" width="3.886" height="27.336" transform="matrix(0.034, -0.999, 0.999, 0.034, 19.272, 25.59)" fill="#0a2240"/>
  <rect id="Rectangle_2601" data-name="Rectangle 2601" width="3.886" height="27.336" transform="matrix(0.033, -0.999, 0.999, 0.033, 19.066, 32.677)" fill="#0a2240"/>
  <rect id="Rectangle_2602" data-name="Rectangle 2602" width="3.886" height="27.336" transform="matrix(0.034, -0.999, 0.999, 0.034, 18.806, 39.637)" fill="#0a2240"/>
  <path id="Path_3042" data-name="Path 3042" d="M-319.9-36.237l-27.317-.913-.117,3.866,27.317.933Z" transform="translate(365.904 79.952)" fill="#0a2240"/>
</svg>
