<svg xmlns="http://www.w3.org/2000/svg" width="46.693" height="60.132" viewBox="0 0 46.693 60.132">
  <path id="Path_5435" data-name="Path 5435" d="M115.265-38.054a2.432,2.432,0,0,0-1.255-.121,9.066,9.066,0,0,0,.749-4.655c-.3-1.275-1.336-2.409-3.4-3.684l4.513-3.137a2.02,2.02,0,0,0,.506-2.813,2.038,2.038,0,0,0-2.813-.506l-4.372,3.036v-5.222a2.03,2.03,0,0,0-2.024-2.024,2.03,2.03,0,0,0-2.024,2.024v5.586c-.243-.1-.466-.2-.729-.324a5.1,5.1,0,0,0-4.311.142c-3.117,1.558-5.262,6.173-6.436,9.492-1.437-5.161-4.21-12.791-8.561-15.524a6.593,6.593,0,0,0-5.323-.87,6.649,6.649,0,0,0-4.21,3.38c-2.307,4.169-1.538,11.294-.506,16.515L73.9-37.77h0a2.328,2.328,0,0,0-2.489-.344,2.34,2.34,0,0,0-1.356,2.125V2.952h46.693v-38.84A2.348,2.348,0,0,0,115.265-38.054Zm-13.358-8.055a1,1,0,0,1,.951-.04c6.8,2.834,7.853,4.068,7.954,4.23.061.81-1.032,4.109-2.834,6.477L106-37.73a2.422,2.422,0,0,0-3.522,0l-3.259,3.744L96.827-36.86C97.879-40.422,99.924-45.117,101.907-46.109Zm-21.09-6.618a2.63,2.63,0,0,1,2.125.385c3.906,2.449,6.72,12.2,7.711,16.8l-1.417,1.619-3.481-3.866a2.419,2.419,0,0,0-3.461,0l-2.651,2.935c-.162-.627-.3-1.316-.445-2h.02l4.392-2.935a2.045,2.045,0,0,0,.567-2.813,2.045,2.045,0,0,0-2.813-.567l-2.914,1.963c-.081-.546-.142-1.073-.182-1.619l3.6-2.409a2.045,2.045,0,0,0,.567-2.813,2.045,2.045,0,0,0-2.813-.567l-1.437.951a9.151,9.151,0,0,1,.931-3.643A2.706,2.706,0,0,1,80.817-52.727ZM112.695-1.076H74.078V-32.245l3.157,2.712a2.345,2.345,0,0,0,3.259-.2l3.542-3.906,3.5,3.886a2.359,2.359,0,0,0,1.741.769h.02a2.379,2.379,0,0,0,1.741-.789l3.3-3.765,3.076,3.7a2.376,2.376,0,0,0,1.761.85,2.31,2.31,0,0,0,1.781-.81l3.279-3.765,3.3,3.785a2.321,2.321,0,0,0,1.72.81,2.464,2.464,0,0,0,1.761-.749l1.68-1.8Z" transform="translate(-70.05 57.18)" fill="#0a2240"/>
</svg>
