<svg xmlns="http://www.w3.org/2000/svg" width="72.803" height="47.266" viewBox="0 0 72.803 47.266">
  <path id="Icon_NgheÌ_14-31" d="M71.274,31.7a8.9,8.9,0,1,0-12.993-7.84A8.5,8.5,0,0,0,63.21,31.7,13.969,13.969,0,0,0,53.8,39.989a16.791,16.791,0,0,0-4.48-2.24,8.9,8.9,0,1,0-12.993-7.84,8.741,8.741,0,0,0,4.928,7.84,15.253,15.253,0,0,0-4.7,2.24,14.887,14.887,0,0,0-9.184-7.616,8.9,8.9,0,1,0-12.993-7.84,8.741,8.741,0,0,0,4.928,7.84A15.232,15.232,0,0,0,9,46.485V62.166h4.48V46.485a10.07,10.07,0,0,1,19.713-2.912,14.486,14.486,0,0,0-2.464,8.288v10.3h4.48v-10.3a10.08,10.08,0,0,1,20.161,0v10.3h4.48v-10.3a15.021,15.021,0,0,0-2.464-8.288,10.069,10.069,0,0,1,19.937,2.016V62.166H81.8V45.813A14.717,14.717,0,0,0,71.274,31.7ZM23.561,20.276a4.48,4.48,0,1,1-4.48,4.48A4.493,4.493,0,0,1,23.561,20.276Zm21.729,5.152a4.48,4.48,0,1,1-4.48,4.48A4.493,4.493,0,0,1,45.289,25.428ZM67.242,19.38a4.48,4.48,0,1,1-4.48,4.48A4.493,4.493,0,0,1,67.242,19.38Z" transform="translate(-9 -14.9)" fill="#0a2240"/>
</svg>
