<svg id="Icon_NgheÌ_14-33" xmlns="http://www.w3.org/2000/svg" width="43.581" height="55.974" viewBox="0 0 43.581 55.974">
  <path id="Path_3154" data-name="Path 3154" d="M54.433,38.164V37.8c-.906-3.442-3.442-5.253-6.521-4.347a5.19,5.19,0,0,0-4.71-3.079,5.359,5.359,0,0,0-1.811.362,5.1,5.1,0,0,0-4.348-2.355,2.3,2.3,0,0,0-1.087.181V23.672a5.072,5.072,0,0,0-10.144,0V41.243l-.906-1.449a5.933,5.933,0,0,0-3.261-2.536,4.875,4.875,0,0,0-3.8.725c-1.811,1.268-2.355,3.8-1.449,6.7a.561.561,0,0,0,.181.362A70.9,70.9,0,0,0,23.82,59.9h5.072c-2.717-2.717-5.616-8.333-8.7-16.122a.632.632,0,0,0-.181-.362c-.362-1.268-.181-1.993,0-2.174.181,0,.362-.181.725-.181.362.181.543.181.725.543l4.529,7.789a2.2,2.2,0,0,0,2.174.906,1.764,1.764,0,0,0,1.449-1.811V23.672a1.087,1.087,0,0,1,2.174,0V40.881a1.993,1.993,0,0,0,3.985,0V33.635a1.087,1.087,0,0,1,2.174,0v7.789a1.993,1.993,0,0,0,3.985,0v-5.8a1.087,1.087,0,0,1,2.174,0v5.8a1.993,1.993,0,0,0,3.985,0V38.345a1.169,1.169,0,0,1,1.087-1.087c.725,0,1.087,1.087,1.268,1.449.181,3.442.543,15.4-1.811,21.013H52.8C55.158,51.75,54.433,38.345,54.433,38.164Z" transform="translate(-10.958 -3.927)" fill="#0a2240"/>
  <rect id="Rectangle_2661" data-name="Rectangle 2661" width="11.956" height="3.623" transform="translate(0 18.115)" fill="#0a2240"/>
  <rect id="Rectangle_2662" data-name="Rectangle 2662" width="11.956" height="3.623" transform="translate(28.078 18.115)" fill="#0a2240"/>
  <rect id="Rectangle_2663" data-name="Rectangle 2663" width="11.956" height="3.623" transform="translate(24.406 13.062) rotate(-45)" fill="#0a2240"/>
  <rect id="Rectangle_2664" data-name="Rectangle 2664" width="3.623" height="11.956" transform="translate(4.652 7.147) rotate(-45)" fill="#0a2240"/>
  <rect id="Rectangle_2665" data-name="Rectangle 2665" width="3.623" height="11.956" transform="translate(18.115 0)" fill="#0a2240"/>
</svg>
