<svg xmlns="http://www.w3.org/2000/svg" width="18.33" height="20.058" viewBox="0 0 18.33 20.058">
  <g id="Ecoe_Icons-30" transform="translate(-12.69 -12.12)">
    <path id="Path_4263" data-name="Path 4263" d="M21.033,13.191l-1.042,2.165-2.8,1.717-1.78,3.362v5.458l-1.767.626v1.859H29.885V26.519l-1.561-1.183L27.67,23.92V17.073l-4.385-1.717V13.191Z" fill="none"/>
    <path id="Path_4262" data-name="Path 4262" d="M31.007,26.95a2.184,2.184,0,0,0-1.645-1.937l-.393-.073h0V21.111a7.28,7.28,0,0,0-.1-1.23,6.756,6.756,0,0,0-2.257-3.968,6.552,6.552,0,0,0-2.184-1.281,2.337,2.337,0,0,0-.051-.488,2.592,2.592,0,0,0-2.541-2.024h0a2.577,2.577,0,0,0-2.075,1,2.4,2.4,0,0,0-.531,1.5A7.033,7.033,0,0,0,16.556,16.4a6.647,6.647,0,0,0-1.835,4.441v4.077h0a3.64,3.64,0,0,0-.408.08A2.184,2.184,0,0,0,12.69,26.95c0,.3,0,.6,0,.9v.328a1.048,1.048,0,0,0,.211.626,1.238,1.238,0,0,0,1.056.517H18.6A3.16,3.16,0,0,0,19.621,31.3a3.254,3.254,0,0,0,2.264.874h0a3.225,3.225,0,0,0,1.951-.655,3.145,3.145,0,0,0,1.252-2.184h4.754a1.165,1.165,0,0,0,1.143-1.027,10.39,10.39,0,0,0,.022-1.361Zm-9.057,3.538a1.558,1.558,0,0,1-1.638-1.143h3.029A1.616,1.616,0,0,1,21.951,30.488Zm7.28-2.868H14.372v-.073a3.153,3.153,0,0,1,0-.531.473.473,0,0,1,.517-.379,1.536,1.536,0,0,0,1.085-.459,1.587,1.587,0,0,0,.459-1.121v-3.91a5.1,5.1,0,0,1,1.631-3.822A5.227,5.227,0,0,1,20.4,16.037L20.531,16l.189-.058a.255.255,0,0,0,.226-.277V14.624a.823.823,0,0,1,.706-.772.91.91,0,0,1,.728.16.837.837,0,0,1,.306.619v.99a.306.306,0,0,0,.248.335,6.552,6.552,0,0,1,1.354.473,5.264,5.264,0,0,1,1.973,1.7,5.038,5.038,0,0,1,.925,3v3.9a1.551,1.551,0,0,0,.349,1.041,1.514,1.514,0,0,0,1.15.568.524.524,0,0,1,.568.371Z" fill="#00837b"/>
  </g>
</svg>
