<svg xmlns="http://www.w3.org/2000/svg" width="15.19" height="9.146" viewBox="0 0 15.19 9.146">
  <g id="Group_3997" data-name="Group 3997" transform="translate(-10.79 -17.218)">
    <path id="Path_4342" data-name="Path 4342" d="M25.833,21.509h0a8.371,8.371,0,0,0-7.451-4.291,8.375,8.375,0,0,0-7.451,4.291l-.142.284.142.279a8.375,8.375,0,0,0,7.451,4.291,8.371,8.371,0,0,0,7.451-4.291l.147-.284Zm-1.23.279a7.235,7.235,0,0,1-6.22,3.355,7.224,7.224,0,0,1-6.215-3.355,7.229,7.229,0,0,1,6.215-3.349A7.24,7.24,0,0,1,24.6,21.788Z" fill="#a8bad3"/>
    <path id="Path_4343" data-name="Path 4343" d="M23.03,21.28a2.44,2.44,0,1,0,2.44,2.44v-.005A2.44,2.44,0,0,0,23.03,21.28Zm1.225,2.434a1.225,1.225,0,1,1-1.23-1.22h.005A1.225,1.225,0,0,1,24.255,23.714Z" transform="translate(-4.647 -1.926)" fill="#a8bad3"/>
  </g>
</svg>
