<svg xmlns="http://www.w3.org/2000/svg" width="16.136" height="15.93" viewBox="0 0 16.136 15.93">
  <g id="Group_616" data-name="Group 616" transform="translate(0 0)">
    <g id="Group_352" data-name="Group 352" transform="translate(0 0)">
      <path id="Path_285" data-name="Path 285" d="M6.182.209H.967A.966.966,0,0,0,0,1.176V6.392a.967.967,0,0,0,.967.966H6.182a.967.967,0,0,0,.966-.966V1.176A.966.966,0,0,0,6.182.209Z" transform="translate(0 -0.209)" fill="#00837b"/>
      <path id="Path_286" data-name="Path 286" d="M15.388.209H10.172a.967.967,0,0,0-.966.967V6.392a.967.967,0,0,0,.966.966h5.216a.967.967,0,0,0,.967-.966V1.176A.966.966,0,0,0,15.388.209Z" transform="translate(-0.22 -0.209)" fill="#00837b"/>
      <path id="Path_288" data-name="Path 288" d="M6.182,9.206H.967A.967.967,0,0,0,0,10.172v5.215a.966.966,0,0,0,.967.966H6.182a.966.966,0,0,0,.966-.966V10.172A.966.966,0,0,0,6.182,9.206Z" transform="translate(0 -0.424)" fill="#00837b"/>
      <path id="Path_289" data-name="Path 289" d="M15.388,9.206H10.172a.967.967,0,0,0-.966.966v5.215a.967.967,0,0,0,.966.966h5.216a.966.966,0,0,0,.967-.966V10.172A.966.966,0,0,0,15.388,9.206Z" transform="translate(-0.22 -0.424)" fill="#00837b"/>
    </g>
  </g>
</svg>
