<svg xmlns="http://www.w3.org/2000/svg" width="8.577" height="8.583" viewBox="0 0 8.577 8.583">
  <path id="Path_563" data-name="Path 563" d="M-86.2-18.17a.363.363,0,0,0-.437-.134l-7.655,3.179a.36.36,0,0,0-.218.366.352.352,0,0,0,.278.316l3.43.775.775,3.429a.357.357,0,0,0,.35.28h0a.352.352,0,0,0,.331-.221l3.179-7.654A.353.353,0,0,0-86.2-18.17Zm-1.832,1.223-2.584,2.584-2.357-.532Zm.508.508-2.052,4.94-.532-2.356Z" transform="translate(94.615 18.442)" fill="#0a2240" stroke="#fff" stroke-width="0.2"/>
</svg>
