<svg id="Ecoe_Icons-27" xmlns="http://www.w3.org/2000/svg" width="33.074" height="36.993" viewBox="0 0 33.074 36.993">
  <rect id="Rectangle_1968" data-name="Rectangle 1968" width="5.086" height="2.333" transform="translate(9.881 11.934)" fill="#00837b"/>
  <rect id="Rectangle_1969" data-name="Rectangle 1969" width="5.086" height="2.333" transform="translate(9.881 17.592)" fill="#00837b"/>
  <rect id="Rectangle_1970" data-name="Rectangle 1970" width="5.086" height="2.333" transform="translate(9.881 23.927)" fill="#00837b"/>
  <rect id="Rectangle_1971" data-name="Rectangle 1971" width="5.086" height="2.333" transform="translate(18.316 11.934)" fill="#00837b"/>
  <rect id="Rectangle_1972" data-name="Rectangle 1972" width="5.086" height="2.333" transform="translate(18.316 17.592)" fill="#00837b"/>
  <rect id="Rectangle_1973" data-name="Rectangle 1973" width="5.086" height="2.333" transform="translate(18.316 23.927)" fill="#00837b"/>
  <path id="Path_2809" data-name="Path 2809" d="M38.639,44.69v-31.5l3.5-.828L41.59,10.03,12.25,17.146,12.8,19.41l3.733-.91V44.69H11.06v2.333H44.133V44.69Zm-8.015,0H24.476v-3.7h6.148Zm2.333,0V38.659H22.143V44.69H18.83V18.045l17.5-4.235V44.69Z" transform="translate(-11.06 -10.03)" fill="#00837b"/>
</svg>
