<svg xmlns="http://www.w3.org/2000/svg" width="26.868" height="38.852" viewBox="0 0 26.868 38.852">
  <g id="Group_2634" data-name="Group 2634" transform="translate(-1063 -608.823)">
    <path id="Path_351" data-name="Path 351" d="M37.814,34.168c0-3.406-5.728-5.968-13.307-5.968S11.2,30.762,11.2,34.168c0,1.978,1.852,3.7,5.213,4.8a1.153,1.153,0,0,0,1.44-.649c.034-.065.034-.162.069-.227a1.055,1.055,0,0,0-.755-1.135c-2.229-.746-3.7-1.849-3.7-2.789,0-1.589,4.184-3.827,11.009-3.827s11.009,2.238,11.009,3.827c0,1.168-2.092,2.53-5.59,3.308l1.749-1.427a1.038,1.038,0,0,0,.1-1.524,1.186,1.186,0,0,0-1.612-.1l-4.8,3.924a1,1,0,0,0-.343.487.792.792,0,0,0-.034.487,1.1,1.1,0,0,0,.72.811l5.9,2.173a.915.915,0,0,0,.412.065,1.151,1.151,0,0,0,1.063-.681A1.06,1.06,0,0,0,32.4,40.3l-2.023-.746C34.967,38.579,37.814,36.6,37.814,34.168Z" transform="translate(1051.8 580.623)" fill="#21385f"/>
    <g id="Group_2215" data-name="Group 2215" transform="translate(1063 633.675)">
      <g id="Ellipse_294" data-name="Ellipse 294" transform="translate(22.381 2.243)" fill="none" stroke="#21385f" stroke-width="1">
        <ellipse cx="2.243" cy="2.243" rx="2.243" ry="2.243" stroke="none"/>
        <ellipse cx="2.243" cy="2.243" rx="1.743" ry="1.743" fill="none"/>
      </g>
      <text id="_360" data-name="360" transform="translate(10 11)" fill="#21385f" font-size="11" font-family="Muli-Bold, Muli" font-weight="700"><tspan x="-9.9" y="0">360</tspan></text>
    </g>
  </g>
</svg>
