<svg xmlns="http://www.w3.org/2000/svg" width="12" height="12" viewBox="0 0 12 12">
  <g id="Group_2838" data-name="Group 2838" transform="translate(1)">
    <path id="Path_2592" data-name="Path 2592" d="M-419.553-153.553a4.947,4.947,0,0,1,6.992,0,4.954,4.954,0,0,1,.6,6.329l2.712,2.712c.784.784-.482,2.049-1.266,1.266l-2.712-2.712a4.954,4.954,0,0,1-6.329-.6A4.947,4.947,0,0,1-419.553-153.553Zm1.085,1.085a3.42,3.42,0,0,0,0,4.822,3.42,3.42,0,0,0,4.822,0,3.42,3.42,0,0,0,0-4.822A3.42,3.42,0,0,0-418.468-152.469Z" transform="translate(420 155)" fill="#00837b"/>
  </g>
</svg>
