<svg id="Group_2035" data-name="Group 2035" xmlns="http://www.w3.org/2000/svg" width="11.971" height="8.479" viewBox="0 0 11.971 8.479">
  <g id="Group_98" data-name="Group 98" transform="translate(0 0)">
    <path id="Path_213" data-name="Path 213" d="M212.447,272.324v-.96a.762.762,0,0,0-.224-.561.712.712,0,0,0-.5-.224h-6.509v-.636a.712.712,0,0,0-.711-.748h-1.658v-1.621a.873.873,0,1,0-1.746,0v6.983h.873v.623h1.372v-.623h7.482v.623H212.2v-.623h.873v-2.245h-.623Zm-9.6-2.619H204.5c.15,0,.212.125.212.249v.636h-1.87Zm0,1.384,8.878-.013h0a.183.183,0,0,1,.15.087.315.315,0,0,1,.075.212v.96h-9.1Zm-.5,2.98H201.6v-6.484a.374.374,0,1,1,.748,0Zm.5.623h-.374v-.125h.374Zm8.853,0h-.374v-.125h.374Zm.873-.623h-9.726v-1.247h9.726Z" transform="translate(-201.1 -266.7)" fill="#0a2240"/>
  </g>
</svg>
