<svg xmlns="http://www.w3.org/2000/svg" width="19.973" height="19.973" viewBox="0 0 19.973 19.973">
  <path id="Path_2592" data-name="Path 2592" d="M-418.592-152.592a8.235,8.235,0,0,1,11.637,0,8.246,8.246,0,0,1,1,10.534l4.514,4.514c1.3,1.3-.8,3.411-2.107,2.107l-4.514-4.514a8.246,8.246,0,0,1-10.534-1A8.235,8.235,0,0,1-418.592-152.592Zm1.806,1.806a5.692,5.692,0,0,0,0,8.026,5.692,5.692,0,0,0,8.026,0,5.692,5.692,0,0,0,0-8.026A5.692,5.692,0,0,0-416.786-150.787Z" transform="translate(421 155)" fill="#fff"/>
</svg>
