<svg xmlns="http://www.w3.org/2000/svg" width="198.571" height="153.433" viewBox="0 0 198.571 153.433">
  <g id="Group_4002" data-name="Group 4002" transform="translate(20277.068 -11331.851)">
    <path id="Path_3112" data-name="Path 3112" d="M-2817,206.35V131.568l44.3-21.3,92.512,43.492v53.765" transform="translate(-17459.568 11277.317)" fill="none" stroke="#00837b" stroke-width="1" opacity="0.4"/>
    <path id="Path_3113" data-name="Path 3113" d="M-2263.575,110.269v96.2" transform="translate(-17968.559 11277.317)" fill="none" stroke="#00837b" stroke-width="1" opacity="0.4"/>
    <path id="Path_3114" data-name="Path 3114" d="M-2680.056,286.008l-92.245-39.98-44.7,20" transform="translate(-17459.701 11160.929)" fill="none" stroke="#00837b" stroke-width="1" opacity="0.4"/>
    <path id="Path_3115" data-name="Path 3115" d="M-2680.155,522.862l-92.423-34.7L-2817,505.5" transform="translate(-17459.602 10953.345)" fill="none" stroke="#00837b" stroke-width="1" opacity="0.4"/>
    <path id="Path_3116" data-name="Path 3116" d="M-2650.368,637.495l-69.507-24.467v24.49" transform="translate(-17505.602 10846.296)" fill="none" stroke="#00837b" stroke-width="1" opacity="0.4"/>
    <path id="Path_3117" data-name="Path 3117" d="M-2303.46,266.362v49.886" transform="translate(-17922.018 11143.496)" fill="none" stroke="#00837b" stroke-width="1" opacity="0.4"/>
    <path id="Path_3118" data-name="Path 3118" d="M-2733.967,534.468l71.859,26.651" transform="translate(-17491.51 10913.646)" fill="none" stroke="#00837b" stroke-width="1" opacity="0.4"/>
    <path id="Path_3119" data-name="Path 3119" d="M-2680.122,213.906l-92.4-41.974L-2817,192.4" transform="translate(-17459.635 11224.452)" fill="none" stroke="#00837b" stroke-width="1" opacity="0.4"/>
    <path id="Path_3120" data-name="Path 3120" d="M-2217.748,270.388v73.406" transform="translate(-18022.035 11140.045)" fill="none" stroke="#00837b" stroke-width="1" opacity="0.4"/>
    <path id="Path_3121" data-name="Path 3121" d="M-2180.942,613.028l-36.807,13.188" transform="translate(-18058.842 10846.296)" fill="none" stroke="#00837b" stroke-width="1" opacity="0.4"/>
    <path id="Path_3122" data-name="Path 3122" d="M-2180.871,534.468l-36.878,14.263" transform="translate(-18058.912 10913.646)" fill="none" stroke="#00837b" stroke-width="1" opacity="0.4"/>
    <path id="Path_3123" data-name="Path 3123" d="M-2751.995,380.027V396.1" transform="translate(-17398.611 11046.049)" fill="none" stroke="#00837b" stroke-width="1" opacity="0.4"/>
    <path id="Path_3124" data-name="Path 3124" d="M-2751.995,380.027v42.9" transform="translate(-17401.617 11060.89)" fill="none" stroke="#00837b" stroke-width="1" opacity="0.4"/>
    <path id="Path_3125" data-name="Path 3125" d="M-2751.995,380.027v40.785" transform="translate(-17396.609 11063.001)" fill="none" stroke="#00837b" stroke-width="1" opacity="0.4"/>
    <path id="Path_3126" data-name="Path 3126" d="M-2817.847,731.36l8.988,3.343" transform="translate(-17330.758 10744.847)" fill="none" stroke="#00837b" stroke-width="1" opacity="0.4"/>
    <path id="Path_3127" data-name="Path 3127" d="M-2662.24,465.494l-71.755-28.1" transform="translate(-17491.373 10996.87)" fill="none" stroke="#00837b" stroke-width="1" opacity="0.4"/>
    <path id="Path_3128" data-name="Path 3128" d="M-2606.917,420.658V451.8" transform="translate(-17567.908 11011.216)" fill="none" stroke="#00837b" stroke-width="1" opacity="0.4"/>
    <path id="Path_3129" data-name="Path 3129" d="M-2453.51,341.659v32.953" transform="translate(-17746.92 11078.943)" fill="none" stroke="#00837b" stroke-width="1" opacity="0.4"/>
    <path id="Path_3131" data-name="Path 3131" d="M350,824.816V880.2" transform="translate(-20494.838 10604.28)" fill="none" stroke="#00837b" stroke-width="1" opacity="0.4"/>
    <path id="Path_3133" data-name="Path 3133" d="M46.059,944.374,112.2,974.089" transform="translate(-20190.898 10510.738)" fill="none" stroke="#00837b" stroke-width="1" opacity="0.4"/>
    <path id="Path_3137" data-name="Path 3137" d="M-2147.936,30.2-2192.4,6.391" transform="translate(-18084.189 11345.562)" fill="none" stroke="#00837b" stroke-width="1" opacity="0.4"/>
    <path id="Path_3138" data-name="Path 3138" d="M-2020.216,19.345V70.813" transform="translate(-18250.996 11335.52)" fill="none" stroke="#00837b" stroke-width="1" opacity="0.4"/>
    <path id="Path_3139" data-name="Path 3139" d="M-2127.551,111.137l-34.781-18.185" transform="translate(-18108.879 11278.458)" fill="none" stroke="#00837b" stroke-width="1" opacity="0.4"/>
    <path id="Path_3141" data-name="Path 3141" d="M-2153.35,60.209l-39.05-20.872" transform="translate(-18078.775 11320.021)" fill="none" stroke="#00837b" stroke-width="1" opacity="0.4"/>
    <path id="Path_3140" data-name="Path 3140" d="M-2105.693,65.232V97.1" transform="translate(-18146.279 11299.947)" fill="none" stroke="#00837b" stroke-width="1" opacity="0.4"/>
    <path id="Path_3142" data-name="Path 3142" d="M1452.2,716.955V685.416L1408,662.2V738.96" transform="translate(-21684.326 10670.474)" fill="none" stroke="#00837b" stroke-width="1" opacity="0.4"/>
  </g>
</svg>
