<svg xmlns="http://www.w3.org/2000/svg" width="40.563" height="40.727" viewBox="0 0 40.563 40.727">
  <g id="Group_6173" data-name="Group 6173" transform="translate(-104.5 -173.273)">
    <g id="Group_4072" data-name="Group 4072" transform="translate(-202 -1932.238)">
      <circle id="Ellipse_429" data-name="Ellipse 429" cx="14.838" cy="14.838" r="14.838" transform="translate(317.387 2116.562)" fill="#bae8ea"/>
    </g>
    <g id="Group_6172" data-name="Group 6172">
      <g id="phone-book" transform="translate(88.18 173.773)">
        <g id="Group_4350" data-name="Group 4350" transform="translate(30.089 7.076)">
          <g id="Group_4349" data-name="Group 4349">
            <path id="Path_4386" data-name="Path 4386" d="M162.569,75.32a4.509,4.509,0,1,0,4.513,4.506A4.509,4.509,0,0,0,162.569,75.32ZM165,82.243a3.431,3.431,0,1,1,0-4.852A3.431,3.431,0,0,1,165,82.243Z" transform="translate(-158.063 -75.32)" fill="#0a2240" stroke="#0a2240" stroke-width="1"/>
          </g>
        </g>
        <g id="Group_4352" data-name="Group 4352" transform="translate(26.046 17.44)">
          <g id="Group_4351" data-name="Group 4351">
            <path id="Path_4387" data-name="Path 4387" d="M126.121,185.64h-5.088a6.013,6.013,0,0,0-6.013,6.013V195.1a.545.545,0,0,0,.545.545h16.023a.545.545,0,0,0,.545-.545v-3.446A6.013,6.013,0,0,0,126.121,185.64Zm4.923,8.917h-14.93v-2.9a4.938,4.938,0,0,1,4.923-4.923h5.084a4.938,4.938,0,0,1,4.923,4.923Z" transform="translate(-115.02 -185.64)" fill="#0a2240" stroke="#0a2240" stroke-width="1"/>
          </g>
        </g>
        <g id="Group_4353" data-name="Group 4353" transform="translate(16.82)">
          <path id="Path_4388" data-name="Path 4388" d="M48.709.7A2.386,2.386,0,0,0,47.022,0H22.186a2.4,2.4,0,0,0-2.394,2.394V5.438h-.921A2.056,2.056,0,0,0,16.82,7.489v.135a2.056,2.056,0,0,0,2.052,2.052h.913v6.1h-.913a2.056,2.056,0,0,0-2.052,2.052v.135a2.056,2.056,0,0,0,2.052,2.052h.913v6.1h-.913a2.056,2.056,0,0,0-2.052,2.052V28.3a2.056,2.056,0,0,0,2.052,2.056h.913v3.006a2.4,2.4,0,0,0,2.39,2.39H47.018a2.4,2.4,0,0,0,2.394-2.394V2.39A2.382,2.382,0,0,0,48.709.7ZM18.872,8.549a.924.924,0,0,1-.924-.924V7.489a.924.924,0,0,1,.921-.928h2.863a.924.924,0,0,1,.924.924v.135a.924.924,0,0,1-.924.924Zm0,10.342a.924.924,0,0,1-.924-.924v-.135a.924.924,0,0,1,.921-.928h2.863a.924.924,0,0,1,.924.924v.135a.924.924,0,0,1-.924.924Zm0,10.338a.924.924,0,0,1-.924-.924v-.135a.924.924,0,0,1,.921-.928h2.863a.924.924,0,0,1,.924.924V28.3a.924.924,0,0,1-.924.924Zm29.443,4.134a1.311,1.311,0,0,1-1.3,1.3H22.186a1.283,1.283,0,0,1-1.3-1.3V30.363h.861A2.056,2.056,0,0,0,23.8,28.312v-.135a2.056,2.056,0,0,0-2.052-2.052h-.872v-6.11h.861a2.056,2.056,0,0,0,2.052-2.052v-.135a2.056,2.056,0,0,0-2.052-2.052h-.861v-6.1h.861a2.056,2.056,0,0,0,2.052-2.052V7.489a2.056,2.056,0,0,0-2.052-2.052h-.861V2.394a1.311,1.311,0,0,1,1.3-1.3H47.018a1.308,1.308,0,0,1,1.3,1.3Z" transform="translate(-16.82)" fill="#0a2240" stroke="#0a2240" stroke-width="1"/>
        </g>
      </g>
    </g>
  </g>
</svg>
