<svg xmlns="http://www.w3.org/2000/svg" width="9.08" height="9.024" viewBox="0 0 9.08 9.024">
  <g id="Group_2036" data-name="Group 2036" transform="translate(0.1 0.132)">
    <path id="Path_535" data-name="Path 535" d="M9.443,6.438a.185.185,0,0,0-.126.229l.111.37a.185.185,0,0,0,.178.133h.052a.185.185,0,0,0,.126-.229l-.111-.37a.185.185,0,0,0-.224-.135Z" transform="translate(-5.869 -4.051)" fill="#0a2240" stroke="#0a2240" stroke-width="0.2"/>
    <path id="Path_536" data-name="Path 536" d="M12.864,4.779l.311.174a.185.185,0,0,0,.2-.312l-.018-.01-.311-.174a.185.185,0,0,0-.181.322Z" transform="translate(-8.054 -2.795)" fill="#0a2240" stroke="#0a2240" stroke-width="0.2"/>
    <path id="Path_537" data-name="Path 537" d="M11.164,5.55a.185.185,0,0,0-.048.255l.207.307a.185.185,0,0,0,.307-.207l-.2-.307a.185.185,0,0,0-.256-.053Z" transform="translate(-6.987 -3.474)" fill="#0a2240" stroke="#0a2240" stroke-width="0.2"/>
    <path id="Path_538" data-name="Path 538" d="M1.764,4.786V.883A.529.529,0,0,1,1.949.453.907.907,0,0,1,3,.653a1.088,1.088,0,0,0-.152,1.4.185.185,0,0,0,.252.052L4.635,1.13A.185.185,0,0,0,4.694.879,1.11,1.11,0,0,0,3.3.439,1.288,1.288,0,0,0,1.76.131.889.889,0,0,0,1.39.89v3.9H.01V7.864a.925.925,0,0,0,.925.925h7.03a.925.925,0,0,0,.925-.925V4.786ZM3.751.694h.111A.739.739,0,0,1,4.269.9l-1.2.784A.74.74,0,0,1,3.751.694ZM8.52,7.864a.555.555,0,0,1-.555.555H.935A.555.555,0,0,1,.38,7.864V5.156H8.52Z" transform="translate(-0.01 0.003)" fill="#0a2240" stroke="#0a2240" stroke-width="0.2"/>
  </g>
</svg>
