<svg xmlns="http://www.w3.org/2000/svg" width="17.974" height="15.322" viewBox="0 0 17.974 15.322">
  <g id="noun_List_707342" transform="translate(0 0)">
    <path id="Path_321" data-name="Path 321" d="M47.282,48.246H30.691c-.382,0-.691-.429-.691-.958v-3.83c0-.529.309-.958.691-.958H47.282c.382,0,.691.429.691.958v3.83C47.973,47.817,47.664,48.246,47.282,48.246Z" transform="translate(-30 -32.924)" fill="#aeb4bd"/>
    <path id="Path_323" data-name="Path 323" d="M47.282,23.246H30.691c-.382,0-.691-.429-.691-.958v-3.83c0-.529.309-.958.691-.958H47.282c.382,0,.691.429.691.958v3.83C47.973,22.817,47.664,23.246,47.282,23.246Z" transform="translate(-30 -17.5)" fill="#aeb4bd"/>
  </g>
</svg>
