<svg xmlns="http://www.w3.org/2000/svg" width="138.646" height="139.445" viewBox="0 0 138.646 139.445">
  <g id="Group_5233" data-name="Group 5233" transform="matrix(-0.616, -0.788, 0.788, -0.616, 62.412, 139.445)">
    <path id="Path_2854" data-name="Path 2854" d="M48.147,89.353l-1.013-.1-2.991.724-3.522,1.013-.917-.1-1.737-.917H37l-.724.868-.193,3.039-.82,1.5-2.846.772-1.544-.193a10.929,10.929,0,0,0-2.75-.916c-.917-.048-6.368.338-7.092,1.3s-3.281-.145-3.281-.145l.1-1.061-1.061-2.605-.193-1.5.579-1.544.145-1.206L16.307,86.41l-.145-2.026.386-.917-.193-1.592a19.568,19.568,0,0,0-2.653-.724c-.482,0-2.509,2.123-2.509,2.123s-2.509.965-2.75,1.013a20.836,20.836,0,0,1-2.46-2.653,10.892,10.892,0,0,0-.531-2.268,16.794,16.794,0,0,0-1.785-.29l-.241-.965-1.4-2.557L0,73.384l1.158-1.4a.863.863,0,0,0,.434-.82c0-.627-.965-3.618-.965-3.956s.241-3.473.241-3.473L0,61.13l.386-1.158,1.4-1.447,1.013-1.4s.193-2.075.193-3.329S6.32,50.083,6.32,50.083a11.628,11.628,0,0,0,1.158-1.544c.048-.241,1.013-2.316,1.013-2.316a25.8,25.8,0,0,0,.145-2.991c-.1-.386-2.219-3.908-2.219-3.908a19.168,19.168,0,0,1-.82-2.509c0-.386.338-6.03.338-6.03l1.013-1.5,1.206-.868,2.991-.965.965-.386.724-1.447.241-3.088,1.013-.627.193.917,1.737-1.64.1-1.061,1.93-2.895,1.11-2.8,1.3-.579A29.436,29.436,0,0,1,24.17,15.54c.29.337.772,1.013.772,1.013l2.7,2.653,1.737.724,3.908-1.4L34.35,16.7l1.592-.965a5.746,5.746,0,0,1,1.5-.193c.579.048,3.136.627,3.136.627l2.412-.868,1.206-.82,1.64-1.013,2.026-2.123,1.158-.289,2.364.386s1.592-.675,1.737-1.4.579-3.329.579-3.329l2.268-3.57s3.281-1.93,3.618-2.026A12.808,12.808,0,0,0,61.27.005S62.62-.043,62.62.15A18.124,18.124,0,0,0,63.73,2.128l.483.1,1.254,1.689L67.3,5.361l2.8.675,1.882.917L76.322,11,71.852,15.5l-3.907,6.426-1.259,4.732-.695,3.777L65.079,31l-3.6.608-2.127.608L57.742,34.6l-1.823,5.948v.564l.782,3.256L55.614,46.8l-2.779.782-3.6-.434L46.15,48.277l-1.3-.087-2.648.782-.738,2,1,1.3.478-1.042.39-1.389,1.78-.26,1.3.347L48.19,48.8l1.346-.087,2.041.565s2.561.043,3,0a17.464,17.464,0,0,0,2.214-.782l.261-.695,1.52.565s.868.608,1.085.347a10.239,10.239,0,0,0,.695-1.52s-.434-1.65-.217-1.823,4.6,1.606,4.6,1.606,1.042.174,1.433.261S67.293,48.8,67.293,48.8a8.353,8.353,0,0,0,2.475,1.129c.694,0,5.991-1.085,5.991-1.085s.738-.521.26-.521-5.253.912-5.34.955a11.26,11.26,0,0,1-2.649-.912,11.214,11.214,0,0,0-.825-1.476l-1.867-.782-3.473-1a4.484,4.484,0,0,0-1.476-.782,3.364,3.364,0,0,0-1.085.3l.174,2.214s0,.695-.391.695a4.007,4.007,0,0,1-1.259-.521l.3-1.52.3-2.171-.521-3.039.521-1.823.738-2,1.476-2.431a5.42,5.42,0,0,1,1.216-.564c.347-.044,4.559,0,4.559,0l.564,1.389,2.605,2.822,3.082,2.822a25.164,25.164,0,0,0,3.908,1.65c.608,0,3.951.478,4.776.478a18.954,18.954,0,0,0,2.214-.217L88.61,40.9l4.949-2.214,4.168-2.258a9.686,9.686,0,0,1,2.778-.565,1.654,1.654,0,0,1,.868,1.042c0,.13-.565,2.388-.565,2.388l-1.476,1.867-.912.564L95.47,44.847l-1.824,2.518-1.91,1.867H91l-1.606,1.78-1.52,1.52-1,1.433-.651.087-.738-.825a17.122,17.122,0,0,0-2.258-1.389c-.26,0-.434.391-.434.391l1.389.955,1.346,1.259.261.955L83.7,58.7l-2.171,3.69-1.172,3.777-.955,1.216L78.191,72.2l-1.78-.565-4.3-.13a43.538,43.538,0,0,1-4.428,1c-.521-.043-1.867-.825-1.867-1.086s-.782-4.081-.782-4.081l-.347-.738-1.476-.868-2.561.044-1.954.477-2.345,1.433h-.782l-.781,1.042.347.651.174,2-1.259,2.171.043,2.171.825,3.213s-.26,1.78-.3,2-2.084,3-2.084,3l-.347,1.737s1.693,3.343,1.693,3.56.087,1.91.087,1.91a9.612,9.612,0,0,1-1.389,1,9.706,9.706,0,0,0-1.606.434c-.13.087-.955.782-.955.782A16.068,16.068,0,0,1,48.8,91.215C48.538,90.52,48.147,89.353,48.147,89.353Z" transform="translate(0 0)" fill="#bbe7f0"/>
    <path id="Path_2855" data-name="Path 2855" d="M0,0" transform="translate(62.654 49.97)" fill="#bbe7f0"/>
    <path id="Path_2856" data-name="Path 2856" d="M12.44,61.119l.974-.162L14.6,62.2l.27,1.677L16.443,65.5l.649.919a3.188,3.188,0,0,0,1.893,1.19,20.326,20.326,0,0,1,3.029.379c.325.162,1.19.108,1.352.27s2.488,2.921,2.867,3.137,1.19,1.461,2.163,1.623a11.321,11.321,0,0,0,1.677.162l5.03-2.7,5.246-1.893s.379.541.757.541a11.548,11.548,0,0,0,1.947-.649l5.03-3.029.973-.919a4.579,4.579,0,0,0,.757-1.568c.054-.6-.162-2.921-.162-2.921l-.487-2.65-.27-1.514L49,54.683l-1.352-1.515-1.082-.6s-.487-.973-.865-1.027-1.028-.487-1.731-.054-2.109,1.568-2.109,1.568l-2.218.162-1.514.811-1.406.108-3.894,2.272-1.677.27-1.46.162-1.731-.216-2.055.216-1.244-.216-.649-.6-.649-.324-.595-.054-.595-2.11s.216-.595.541-.487.7,1.731.7,1.731l.919.216,1.082.757,2.7-.054,3.245.216a16.81,16.81,0,0,0,2.272-.7,13.422,13.422,0,0,1,1.839-1.46,17.309,17.309,0,0,1,2.7-.92s1.569-.433,1.785-.433,1.406-.054,1.406-.054l1.893-1.623,1.3-.379a12.707,12.707,0,0,1,1.839.162,6.315,6.315,0,0,1,.865,1.136s1.028.974,1.46.866.6-.649.6-.649V49.436l.27-2,.324-3.516a2.889,2.889,0,0,0-.054-.92,10.069,10.069,0,0,0-1.082-1.082l-1.677-.757H44.947L42.73,41s-.433-.271-.811.27.054,1.406.054,1.406l-.217,1.136-1.893,1.082-3.137,1.136s-.757-.108-.324-.379,1.893-.865,1.893-.865l1.622-.649.7-.649s.216-.054.162-.433-.324-.865-.324-1.027.541-1.244.7-1.244,1.568-.27,1.568-.595-.433-.541-.433-.541l-2.109-.433a10.686,10.686,0,0,0-2.38-.6c-.541.054-2.7.811-2.867.811A5.841,5.841,0,0,1,33.535,39a5.819,5.819,0,0,0-1.731.054l-3.137.865-2-.7-1.893-1.352A7.477,7.477,0,0,1,23.2,36.78c-.108-.27-1.082-.108-1.082-.974a10.519,10.519,0,0,1,.325-2.109,1.639,1.639,0,0,0,.487-1.136c.108-.865.108-3.3.541-3.732a3.168,3.168,0,0,0,.649-1.082l.054-1.244-.325-.649L22.284,25.8l-2.326.919s-1.19.27-1.136-.162.217-1.244.758-1.46,1.731-.541,1.731-.541a10.528,10.528,0,0,0,1.731-.108c.216-.108,1.406-.6,1.515-1.46s.054-3.948,1.028-6.112a49.834,49.834,0,0,0,2.272-6c0-.325.379-2.7.433-3.245a4.895,4.895,0,0,0-.054-2c-.216-.379-3.57-3.948-4-3.948s-1.569.487-1.839.487-2.434-.649-2.434-.649S19.58.433,18.877.216A6.568,6.568,0,0,0,17.254,0a4.748,4.748,0,0,0-.7,1.244c-.054.379.108.162-.054.379s.054.757.054.757l1.947.974L20.716,5.3l.541,1.136-.324,2.055L19.9,9.465a3.357,3.357,0,0,1-1.677.649c-.7-.054-2,.108-2-1.027S16.443,6,16.443,6a4.42,4.42,0,0,1-1.569-1.568c-.379-.865-2.326-1.569-3.083-1.46s-1.677-.054-2.109.487A25.935,25.935,0,0,0,8.167,6.869L7.9,7.842l.217.865-1.406.487L5.9,9.574l-.811,1.839L4.057,12.6l.487,2.434-.054,2.6s-.757,1.244-1.352,1.46-1.893.541-1.947,1.19-.054,1.785-.054,2.218,1.893,1.947,1.893,1.947a18.888,18.888,0,0,0-1.785,1.677,5.483,5.483,0,0,0-1.19,2.542c0,.7-.054,2.813-.054,2.813l1.839.7,1.136.433.757,3.3,1.136,1.46,1.352-.7,1.514-.054L8,35.428l1.3-1.244,1.19.487,1.677-.6,1.893,1.082-.487,2.326-.865.487-1.082.054s-.6-.919-1.028-.757-1.19,1.569-1.19,1.569l-.7,2.542.216,1.352,1.406-.216.865.974.054,1.785v1.244l1.839,2.38-.487,1.3-2.218.27-.974.974,1.19,3.678.92.27,1.839-.919,1.3,1.136-.433,1.136-.487,1.569-.919,1.3Z" transform="translate(49.204 11.781)" fill="#bbe7f0"/>
    <path id="Path_2857" data-name="Path 2857" d="M0,28.015a8.021,8.021,0,0,0,.474,1.944A12.612,12.612,0,0,0,2.323,31.1c.237,0,2.655,1.47,3.081,1.47S7.727,32,8.39,32s1.47-.664,2.418-.521,1.422.379,1.9.379,2.323-.711,2.56-.711,1.943.379,1.943.379.853.759,1.185.759a12.731,12.731,0,0,1,2.038.664c.379.142.095.9,1.612.9a6.808,6.808,0,0,1,2.607.237c.616.237,1.707,1.47,2.37,1.47s.758-1.659.758-1.659l1.375-4.5,1.707-3.982,1.706-2.7L33.941,20.1l1.754-2.7,1.659-2.418L38.4,12.989l.189-2.607.284-1.517.19-1.233-.142-1.47L38.634,4.93,37.78,2.892,36.358.806l-1-.806L33.988.142l-1.517.9-1.849,1.28L27.494,3.555l-2.418.427h-2.56l-3.46.853-1.043-.569-3.745-.521h-.853l-2.987-.853L8.011,2.18S6.4,3.84,6.4,4.266,4.883,8.2,4.883,9.149a14.7,14.7,0,0,1-.806,2.986c0,.142-.759,4.6-.759,4.788s-.474,1.8-.474,1.8l-.427,1.043-.142,1.422a7.966,7.966,0,0,0-.758,1.754c0,.379-.427,3.271-.522,3.7A5.4,5.4,0,0,1,0,28.015Z" transform="translate(72.234 30.595)" fill="#bbe7f0"/>
  </g>
</svg>
