<svg id="Group_5232" data-name="Group 5232" xmlns="http://www.w3.org/2000/svg" width="88.067" height="126.914" viewBox="0 0 88.067 126.914">
  <path id="Path_2854" data-name="Path 2854" d="M755.331,74.608l-.8.076-2.367-.573-2.787-.8-.725.076-1.374.725h-.764l-.572-.687-.153-2.405-.649-1.183-2.252-.611-1.221.153a8.649,8.649,0,0,1-2.176.725c-.725.038-5.039-.267-5.612-1.031s-2.6.115-2.6.115l.076.84-.84,2.061-.153,1.184.458,1.222.115.954-.8,1.489-.115,1.6.305.725-.153,1.26a15.483,15.483,0,0,1-2.1.573c-.382,0-1.985-1.68-1.985-1.68s-1.985-.763-2.176-.8a16.49,16.49,0,0,0-1.947,2.1,8.615,8.615,0,0,1-.42,1.794,13.286,13.286,0,0,1-1.412.229l-.191.764-1.107,2.023-1.6,1.718.916,1.107a.683.683,0,0,1,.344.649c0,.5-.763,2.863-.763,3.13s.191,2.749.191,2.749l-.687,2.062.305.916L718.645,99l.8,1.107s.153,1.642.153,2.634,2.634,2.939,2.634,2.939a9.208,9.208,0,0,1,.916,1.222c.038.191.8,1.832.8,1.832a20.443,20.443,0,0,1,.115,2.367c-.077.305-1.756,3.092-1.756,3.092a15.167,15.167,0,0,0-.649,1.985c0,.305.267,4.772.267,4.772l.8,1.184.954.687,2.367.764.764.305.573,1.145.191,2.443.8.5.153-.725,1.374,1.3.076.84,1.527,2.291.878,2.214,1.031.458a23.293,23.293,0,0,0,2.939-1.336c.229-.267.611-.8.611-.8l2.138-2.1,1.374-.573,3.092,1.107.84,1.451,1.26.763a4.547,4.547,0,0,0,1.184.153c.458-.038,2.481-.5,2.481-.5l1.909.687.954.649,1.3.8,1.6,1.68.916.229,1.871-.305s1.26.534,1.374,1.107.458,2.634.458,2.634l1.794,2.825s2.6,1.527,2.863,1.6a10.139,10.139,0,0,1,1.336.878s1.069.038,1.069-.115a14.341,14.341,0,0,1,.878-1.565l.382-.076.992-1.336,1.451-1.145,2.214-.534,1.489-.725,3.436-3.207-3.537-3.555L771,127.965l-1-3.745-.55-2.989-.721-.446-2.851-.481-1.683-.481-1.271-1.89-1.443-4.707v-.447l.618-2.577-.859-1.924-2.2-.618L756.19,108l-2.439-.893-1.031.069-2.1-.618-.584-1.58.79-1.031.378.824.309,1.1,1.409.206,1.031-.275,1.408.893,1.065.069,1.615-.447s2.027-.034,2.371,0a13.818,13.818,0,0,1,1.752.618l.206.55,1.2-.447s.687-.481.859-.275a8.1,8.1,0,0,1,.55,1.2s-.344,1.305-.172,1.443a26.613,26.613,0,0,0,3.642-1.271s.824-.137,1.134-.206.893-1.237.893-1.237a6.609,6.609,0,0,1,1.958-.893c.549,0,4.741.859,4.741.859s.584.412.206.412-4.157-.721-4.226-.756a8.909,8.909,0,0,0-2.1.721,8.874,8.874,0,0,1-.653,1.168l-1.477.618-2.748.79a3.548,3.548,0,0,1-1.168.618,2.664,2.664,0,0,1-.859-.24l.138-1.752s0-.55-.309-.55a3.17,3.17,0,0,0-1,.412l.24,1.2.241,1.718-.412,2.4.412,1.443.584,1.58,1.168,1.924a4.291,4.291,0,0,0,.962.446c.275.034,3.607,0,3.607,0l.446-1.1,2.061-2.233,2.439-2.233a19.911,19.911,0,0,1,3.092-1.305c.481,0,3.126-.378,3.779-.378a15,15,0,0,1,1.752.172l3.985,1.2,3.916,1.752,3.3,1.786a7.666,7.666,0,0,0,2.2.447,1.31,1.31,0,0,0,.687-.825c0-.1-.447-1.889-.447-1.889l-1.168-1.477-.721-.446-2.336-2.474-1.443-1.993-1.512-1.477h-.584l-1.271-1.409-1.2-1.2-.79-1.134-.515-.069-.584.653a13.546,13.546,0,0,1-1.787,1.1c-.206,0-.343-.309-.343-.309l1.1-.756,1.065-1,.206-.756-1.649-2.611-1.718-2.92-.928-2.989L780.066,92l-.962-3.813-1.409.447-3.4.1a34.454,34.454,0,0,0-3.5-.79c-.412.034-1.477.653-1.477.859s-.618,3.229-.618,3.229l-.275.584-1.168.687-2.027-.034-1.546-.378-1.855-1.134h-.618l-.618-.825.275-.515.138-1.58-1-1.718.034-1.718.653-2.542s-.206-1.409-.24-1.58-1.649-2.371-1.649-2.371l-.275-1.374s1.34-2.645,1.34-2.817.069-1.512.069-1.512a7.606,7.606,0,0,0-1.1-.79,7.681,7.681,0,0,1-1.271-.343c-.1-.069-.756-.618-.756-.618a12.719,12.719,0,0,0-.962,1.683C755.64,73.684,755.331,74.608,755.331,74.608Z" transform="translate(-717.232 -68.761)" fill="#bbe7f0"/>
  <path id="Path_2855" data-name="Path 2855" d="M942.975,265.7" transform="translate(-893.397 -222.45)" fill="#bbe7f0"/>
  <path id="Path_2856" data-name="Path 2856" d="M904.359,392.508l.77.128.942-.984.214-1.327,1.241-1.284.514-.728a2.522,2.522,0,0,1,1.5-.942,16.074,16.074,0,0,0,2.4-.3c.257-.128.942-.085,1.07-.214s1.969-2.311,2.268-2.482.942-1.156,1.712-1.284a8.954,8.954,0,0,1,1.327-.128l3.98,2.14,4.151,1.5s.3-.428.6-.428a9.14,9.14,0,0,1,1.541.514l3.98,2.4.77.728a3.622,3.622,0,0,1,.6,1.241c.043.471-.128,2.311-.128,2.311l-.385,2.1-.214,1.2.085.941-1.07,1.2-.856.471s-.385.77-.685.813-.813.385-1.37.043-1.669-1.241-1.669-1.241l-1.755-.128-1.2-.642-1.113-.086-3.082-1.8-1.327-.214-1.155-.129-1.37.171-1.626-.171-.984.171-.514.471-.514.257-.471.043-.471,1.669s.171.471.428.385.556-1.37.556-1.37l.728-.171.856-.6,2.14.043,2.568-.171a13.313,13.313,0,0,1,1.8.556,10.631,10.631,0,0,0,1.455,1.156,13.69,13.69,0,0,0,2.14.728s1.241.342,1.412.342,1.113.043,1.113.043l1.5,1.284,1.027.3a10.048,10.048,0,0,0,1.455-.128,4.992,4.992,0,0,0,.685-.9s.813-.77,1.156-.685.471.514.471.514v1.926l.214,1.583.257,2.782a2.283,2.283,0,0,1-.043.728,7.961,7.961,0,0,1-.856.856l-1.327.6h-1.712l-1.755.128s-.342.214-.642-.214.043-1.113.043-1.113l-.171-.9-1.5-.856-2.482-.9s-.6.086-.257.3,1.5.685,1.5.685l1.284.514.557.514s.171.043.128.342-.257.685-.257.813.428.985.557.985,1.241.214,1.241.471-.342.428-.342.428l-1.669.342a8.457,8.457,0,0,1-1.883.471c-.428-.043-2.14-.642-2.269-.642a4.626,4.626,0,0,0-1.113.342,4.6,4.6,0,0,1-1.37-.043l-2.482-.685-1.584.556-1.5,1.07a5.915,5.915,0,0,0-1.241.856c-.086.214-.856.086-.856.77a8.325,8.325,0,0,0,.257,1.669,1.3,1.3,0,0,1,.385.9c.086.685.086,2.611.428,2.953a2.5,2.5,0,0,1,.514.856l.043.984-.257.514-1.241.043-1.84-.728s-.941-.214-.9.129.171.984.6,1.155,1.37.428,1.37.428a8.323,8.323,0,0,1,1.37.086c.171.086,1.113.471,1.2,1.156a15.5,15.5,0,0,0,.813,4.836,39.476,39.476,0,0,1,1.8,4.751c0,.257.3,2.14.342,2.568a3.875,3.875,0,0,1-.043,1.584,19.848,19.848,0,0,1-3.167,3.124c-.342,0-1.241-.385-1.455-.385s-1.926.514-1.926.514-.3.856-.856,1.027a5.2,5.2,0,0,1-1.284.171,3.757,3.757,0,0,1-.557-.984c-.043-.3.086-.128-.043-.3s.043-.6.043-.6l1.541-.77,1.755-1.541.428-.9-.257-1.626-.813-.77a2.656,2.656,0,0,0-1.327-.513c-.557.043-1.584-.086-1.584.813s.171,2.44.171,2.44a3.5,3.5,0,0,0-1.241,1.241,3.1,3.1,0,0,1-2.44,1.156c-.6-.086-1.327.043-1.669-.385a20.517,20.517,0,0,1-1.2-2.7l-.214-.77.171-.685-1.113-.385-.642-.3-.642-1.455-.813-.942.385-1.926-.043-2.054s-.6-.984-1.07-1.156-1.5-.428-1.541-.942-.043-1.412-.043-1.755,1.5-1.541,1.5-1.541A14.941,14.941,0,0,1,895.5,420.2a4.338,4.338,0,0,1-.941-2.012c0-.556-.043-2.226-.043-2.226l1.455-.556.9-.342.6-2.611.9-1.156,1.07.557,1.2.043.214.942,1.027.984.942-.385,1.327.471,1.5-.856-.385-1.84-.685-.385-.856-.043s-.471.728-.813.6-.941-1.241-.941-1.241l-.556-2.012.171-1.07,1.113.171.685-.77.043-1.412v-.985l1.455-1.883-.385-1.027-1.755-.214-.77-.77.941-2.91.728-.214,1.455.728,1.027-.9-.343-.9-.385-1.241-.728-1.027Z" transform="translate(-855.58 -313.959)" fill="#bbe7f0"/>
  <path id="Path_2857" data-name="Path 2857" d="M977.493,501.718a6.345,6.345,0,0,1,.375-1.538,9.978,9.978,0,0,1,1.463-.9c.188,0,2.1-1.163,2.438-1.163s1.838.45,2.363.45,1.163.525,1.913.412,1.125-.3,1.5-.3,1.838.563,2.026.563,1.538-.3,1.538-.3.676-.6.938-.6a10.067,10.067,0,0,0,1.613-.525c.3-.113.075-.713,1.275-.713a5.389,5.389,0,0,0,2.063-.187c.488-.188,1.35-1.163,1.876-1.163s.6,1.313.6,1.313l1.088,3.563,1.35,3.151,1.35,2.138,1.088,2.063,1.388,2.138,1.313,1.913.825,1.575.15,2.063.225,1.2.15.975-.112,1.163-.225.975-.675,1.613-1.125,1.651-.788.638-1.088-.112-1.2-.713-1.463-1.013-2.476-.975-1.913-.337H995.31l-2.738-.675-.825.45-2.964.412h-.675l-2.363.675-1.913.563s-1.275-1.313-1.275-1.65-1.2-3.114-1.2-3.864a11.635,11.635,0,0,0-.638-2.363c0-.112-.6-3.638-.6-3.788s-.375-1.425-.375-1.425l-.338-.825-.113-1.125a6.3,6.3,0,0,1-.6-1.388c0-.3-.337-2.588-.413-2.926A4.27,4.27,0,0,0,977.493,501.718Z" transform="translate(-920.334 -401.977)" fill="#bbe7f0"/>
</svg>
