<svg id="Group_5235" data-name="Group 5235" xmlns="http://www.w3.org/2000/svg" width="106.168" height="117.074" viewBox="0 0 106.168 117.074">
  <path id="Path_2849" data-name="Path 2849" d="M90.19,177.9l1.049-.9,11.574-6.977,7.769-4.711,2.934-1.736,1.074-.7,1.736-1.694,5.786-7.438a7.818,7.818,0,0,1,1.86-1.446,2.846,2.846,0,0,0,.744-.248c.207-.083.7-.909.7-.909l.579-.083a25.467,25.467,0,0,1,1.074-2.645.84.84,0,0,1,.5-.083l.165-.62,1.116-.124-.041-.372,1.074-.083.7-.826-.207-.372,2.356-.661-.124-.537.909-1.653-1.777-.207-.124-1.157.992-.744v-.62h1.033l.372.207.62-.785.579.207,2.025-.827.289-.578,2.6-1.984s3.554-.124,3.8-.124a10.127,10.127,0,0,0,1.694-1.033s1.9,6.447,1.9,7.149.579,5.7.579,5.7l.454.785,2.232,1.653,1.405,1.281,2.025,2.686a3.219,3.219,0,0,1,.289,1.446,20.034,20.034,0,0,1-1.075,3.347l-2.4,4.959s1.694,6.24,1.9,6.736a7.652,7.652,0,0,0,1.116,1.446s2.645,7.81,2.645,8.017,1.818,3.017,2.025,3.43a23.822,23.822,0,0,0,2.19,2.273l4.835,6.447,3.678,3.967,2.934,3.017,3.182,3.6,1.364,1.859,1.529,2.273,1.2,2.645.744,2.149.083,1.529a2.17,2.17,0,0,1-.041,1.116c-.165.826-.124,1.405-.454,1.736S177.86,219,177.86,219l-1.777,2.066a20.545,20.545,0,0,0-3.513,2.314,33.305,33.305,0,0,1-3.43,2.769l-1.322-1.736-1.653,1.446a23.756,23.756,0,0,0-2.107,2.6,6.931,6.931,0,0,0-.5,2.025l.331,2.934a13.679,13.679,0,0,0-.083,2.4c.124.413,1.074,1.281,1.2,1.86a11.2,11.2,0,0,0,.827,2.025c.124.207.868.62.95.951a11.363,11.363,0,0,1-.248,2.149c-.041.207,0,.868.331.95s.5.372.537,1.033-.124,2.025-.744,2.232-1.074,0-1.818-.372-2.975-3.141-4.008-3.554a5.584,5.584,0,0,1-2.356-1.942s.124-.083-.124-.661a3.925,3.925,0,0,0-1.364-1.942,7.016,7.016,0,0,1-1.653-1.322,20.555,20.555,0,0,0-2.975-1.529l-1.24-3.761-1.364-.413-.95,4.257-.744.62-1.405-.868-1.57-1.281-1.86-1.157V232.8a11.832,11.832,0,0,1,1.818-1.24l2.975-1.9,2.232-1.405a20.917,20.917,0,0,0,3.265-.992c.041-.207-.785-.744-.785-.744s-1.57.661-2.314.95-3.43,2.314-3.719,2.438a38.263,38.263,0,0,1-3.389,2.066,7.126,7.126,0,0,1-1.116.206l-.124.413-1.529.5-.992.868-.454,1.405a5.753,5.753,0,0,0-.041,1.364c.083.537.62,1.984,1.116,2.066a7.381,7.381,0,0,1,2.48,1.405,4.735,4.735,0,0,1,.041.62l-.868.826-1.612,1.984-2.645,3.306-2.355,4.215a10.167,10.167,0,0,1-1.529,1.364h-.7a3.714,3.714,0,0,1-.248-.909c0-.289.5-2.314.5-2.479s.827-1.157.909-1.405a12.3,12.3,0,0,0,.992-2.6c0-.62.62-2.48.454-3.265a10.442,10.442,0,0,0-1.033-3.017,13.04,13.04,0,0,0-1.86-2.273c-.579-.5-.909-.455-.909-.868s.537-.868.785-1.116a1.843,1.843,0,0,1,.578-.372s1.2-1.653,1.2-1.777.455-.454.455-.62a27.006,27.006,0,0,1,.083-3.1,8.779,8.779,0,0,1,1.57-2.232c.413-.289,1.364-1.2,1.612-1.322a2.151,2.151,0,0,0,.785-.826,10.719,10.719,0,0,1,.537-1.033s.372-.62.827-.62,1.116-.207,1.116-.455.413-.909.413-1.2-.124-1.281.289-1.322,1.529-.165,1.529-.165l1.116-.661.62-.7a1.7,1.7,0,0,0,.7.083,7.769,7.769,0,0,0,2.273-1.116c.165-.248,1.075-1.281,1.075-1.281l.537-.868-.578-.041s-1.033,1.9-1.488,1.942-1.405.785-1.942.785-.868-.041-1.074.124-.537.95-1.24.95a3.671,3.671,0,0,0-1.818.455c-.372.248-.537.165-.537.661s.041,1.777-.579,2.107-1.281-.083-1.57.455-1.2,1.322-1.281,1.736a2.034,2.034,0,0,1-1.074,1.2c-.455.165-1.24,1.322-1.653,1.777a3.743,3.743,0,0,0-.868,1.942,10.1,10.1,0,0,1,.041,2.48c-.206.289-.372.992-.868.909s-1.24-1.074-1.364-1.074-1.074-.083-1.322-.083-.868.455-.992.455-1.983-1.116-1.983-1.116-.868-.868-1.2-1.116a4.759,4.759,0,0,1-.827-.62,9.194,9.194,0,0,1-.785-2.769c0-.62.785-2.149.331-2.852a2.065,2.065,0,0,0-1.736-1.116c-.579.083-1.653,1.157-2.562,1.033s-1.653,0-1.984-.7-1.529-.331-1.529-.744.413-1.405.413-1.818.579-1.488.579-1.777a7.229,7.229,0,0,0-.785-1.612,10.525,10.525,0,0,0-.992-1.116,1.907,1.907,0,0,1-.5-.992c0-.454-.289-.95-.289-1.694s.083-1.9-.331-2.19a2.765,2.765,0,0,0-1.488-.165c-.289,0-.744.909-1.364.827s-1.116-.5-1.116-.827-.165-1.074-.165-1.529a8.543,8.543,0,0,1,.124-1.446c.083-.455.868-.785.868-.785l1.529-.248s.455-.537.455-.785-.207-1.405-.207-1.653.5-.826.248-1.2a2.41,2.41,0,0,0-1.281-.62c-.124,0-1.24-.331-1.529-.331a11.849,11.849,0,0,0-1.984,1.24,2.473,2.473,0,0,1-1.364.7c-1.074.289-1.694,1.983-2.355,1.983s-2.232,1.694-2.438,1.694-1.612.289-2.108.289-1.074-.661-1.488-.661-1.116.165-1.364.165a3.979,3.979,0,0,0-1.529.537c-.165.206-2.232,1.446-2.356,1.57a11.018,11.018,0,0,0-1.281,1.24,1.758,1.758,0,0,1-1.405.661,2.248,2.248,0,0,0-1.116.537,1.127,1.127,0,0,0-.951.827c-.248.785-.785,1.322-1.2,1.322s-.7-.579-1.405-.7-2.314.413-3.265-.083-1.736-.7-1.942-1.364.248-2.356-.5-2.934-.909-1.24-1.942-1.157-3.017,1.2-3.43,1.2-1.818-.165-1.818-.165,1.116-5.951,1.2-6.488,3.43-7.191,4.05-8.306,4.918-9.215,4.918-9.215l.909.578,3.885-7.025Z" transform="translate(-74.34 -135.436)" fill="#bbe7f0"/>
  <path id="Path_2850" data-name="Path 2850" d="M152.9,428.554a12.283,12.283,0,0,1,1.9-2.19c.413-.165,1.694-.5,1.984-.992a3.54,3.54,0,0,1,2.066-1.2,6.74,6.74,0,0,0,2.4.289c2.273,0,1.736-.124,2.562-.454a13.888,13.888,0,0,0,1.9-1.281,17.213,17.213,0,0,0,1.57-1.116l.868-.744s1.57-.413,1.818-.826.7-.992.909-.992,1.818-.165,2.025-.165,1.116.041.992.661a8.608,8.608,0,0,0-.206,1.612c0,.455.661.868-.165,1.033s-1.488.5-1.777.5-.868.95-.868,1.157a36.9,36.9,0,0,0,.248,3.926,1.393,1.393,0,0,0,1.157,1.116c.5,0,1.736-1.033,1.942-1.2s.62-.5.785-.207-.041,1.405.165,1.57a5.672,5.672,0,0,1,.5,1.818c0,.207.083,1.364.083,1.364a7.693,7.693,0,0,1,1.488,1.364,2.766,2.766,0,0,1,.5,1.446c0,.537-.124.661-.454,1.2a2.788,2.788,0,0,0-.248,1.529c0,.289-.124,1.57.578,1.653s.992-.041,1.364.289.827.7.827.7.372.7,1.24-.041a4.527,4.527,0,0,1,2.066-.909s.289-.372.7.041a1.493,1.493,0,0,1,.661,1.446,6.158,6.158,0,0,0,.248,2.893c.5,1.405-.165,1.612.868,2.149s.95,1.24,1.529,1.446.661,1.322,1.364,1.322,1.57.5,1.9.124.372-.661.868-.537,1.074.785,1.2.826.5.62.372.909a2.511,2.511,0,0,1-1.9,1.364,5.808,5.808,0,0,1-2.356-.083,13.581,13.581,0,0,0-3.761.785c-.62.454-5.124,5.413-6.447,5.579a9.633,9.633,0,0,1-2.521-.041,2.189,2.189,0,0,1-1.033.372,7.913,7.913,0,0,1-2.025-.7c-.62-.248-1.2.041-1.818-.124s-.331-.785-.785-1.529a2.011,2.011,0,0,0-1.653-.909,18.017,18.017,0,0,0-2.232.248l-3.017-.124s-4.67-2.025-4.794-2.438a3.4,3.4,0,0,1-.124-.95,2.936,2.936,0,0,1,1.653-1.157,1.208,1.208,0,0,0,1.157-1.2v-2.686c0-.578-.289-1.405-.289-1.86a3.312,3.312,0,0,0-.207-.992l3.265.7s.041.537.331-.083a22.1,22.1,0,0,0,.95-4.215c0-.62.868-4.546.868-4.959s.248-2.562.165-2.81-3.389-.165-3.554-.165-1.2.207-1.2.207-.165,1.694-.165,2.314-.868,1.157-1.116,1.157-.661.041-1.116.041-1.2.124-1.488.124-.785.7-.785.7a3.36,3.36,0,0,1-.372-1.488c0-.826-.207-2.438-.207-2.438a9.246,9.246,0,0,1-1.529-1.818A18.422,18.422,0,0,0,152.9,428.554Z" transform="translate(-134.873 -351.41)" fill="#bbe7f0"/>
  <path id="Path_2851" data-name="Path 2851" d="M139.6,459.8c.537-.661.455-1.364.744-1.405s.909-.785,1.2-.785.62-.206.826-.124-.041.62.041.95a14.89,14.89,0,0,0,1.2,1.777,15.527,15.527,0,0,0,1.694,2.025c.124,0,.661.372.5,1.281a3.67,3.67,0,0,0,.124,2.19,2.251,2.251,0,0,1,.124,1.2s-.62.165-.62.413a14.4,14.4,0,0,1-.289,2.934c-.207.289-.826.372-.826.372l-2.727-10.62.454-.7-.5-.744-1.033.95Z" transform="translate(-124.716 -379.827)" fill="#bbe7f0"/>
  <path id="Path_2852" data-name="Path 2852" d="M351.06,553.682a2.672,2.672,0,0,1,1.362.273c.565.335,3.394,2.43,3.729,2.451s1.55.482,1.739.482.985-.692.985-.943a7.761,7.761,0,0,1,.126-1.487c.1-.356.545-.377.566-.293a9.721,9.721,0,0,0,.9,1.655c.126.021,1.278.587,1.341.629a4.5,4.5,0,0,1,.23.775s-.5.419-.65.419-2.221-.314-2.221-.314a7.382,7.382,0,0,0-2.619,0,15.9,15.9,0,0,1-2.619.88,4.539,4.539,0,0,1-1.781-.419c-.754-.314-1.467-.566-1.7-1.173s-1.215-1.131-.628-1.99A2,2,0,0,1,351.06,553.682Z" transform="translate(-283.036 -454.367)" fill="#bbe7f0"/>
  <path id="Path_2853" data-name="Path 2853" d="M413.8,571.545l.938-1.012.79.42s1.284,1.284,1.58,1.7a1.155,1.155,0,0,1,.173.889l-1.235-.568Z" transform="translate(-334.154 -467.241)" fill="#bbe7f0"/>
</svg>
