<svg xmlns="http://www.w3.org/2000/svg" width="231.189" height="226.006" viewBox="0 0 231.189 226.006">
  <g id="Group_5231" data-name="Group 5231" transform="translate(171.672) rotate(70)">
    <path id="Path_2849" data-name="Path 2849" d="M25.98,116.423l1.72,1.4L46.67,128.714,59.4,136.065l4.809,2.709,1.761,1.1,2.845,2.644L78.3,154.122s2.168,2.064,3.048,2.257a4.826,4.826,0,0,1,1.219.387c.339.129,1.151,1.419,1.151,1.419l.948.129a38.661,38.661,0,0,0,1.761,4.127,1.439,1.439,0,0,0,.813.129l.271.967,1.829.194-.068.58,1.761.129,1.151,1.29-.339.581,3.861,1.032-.2.838,1.49,2.58-2.913.323-.2,1.805,1.626,1.161v.967H97.2l.61-.322,1.016,1.225.948-.322,3.319,1.29.474.9,4.267,3.1s5.825.194,6.232.194a16.769,16.769,0,0,1,2.777,1.612s3.116-10.06,3.116-11.156.948-8.9.948-8.9l.745-1.225,3.658-2.579,2.3-2,3.319-4.192a4.824,4.824,0,0,0,.474-2.257,30.212,30.212,0,0,0-1.761-5.223l-3.929-7.738s2.777-9.738,3.116-10.511a12.044,12.044,0,0,1,1.829-2.257S135,112.464,135,112.141s2.98-4.707,3.319-5.352a38.085,38.085,0,0,1,3.59-3.547l7.925-10.06,6.028-6.191,4.809-4.708,5.215-5.61,2.235-2.9,2.506-3.547L172.59,66.1l1.219-3.353.135-2.386a3.23,3.23,0,0,0-.068-1.741c-.271-1.29-.2-2.193-.745-2.709s-3.455-3.611-3.455-3.611l-2.912-3.224s-4.742-2.451-5.758-3.611a54.216,54.216,0,0,0-5.622-4.321l-2.168,2.709-2.71-2.257a37.5,37.5,0,0,1-3.454-4.063,10.384,10.384,0,0,1-.813-3.16l.542-4.578a20.333,20.333,0,0,1-.135-3.741c.2-.645,1.761-2,1.964-2.9a17.023,17.023,0,0,1,1.355-3.16c.2-.323,1.422-.968,1.558-1.483a16.917,16.917,0,0,0-.406-3.353c-.068-.322,0-1.354.542-1.483s.813-.58.88-1.612-.2-3.16-1.219-3.483-1.761,0-2.981.581-4.877,4.9-6.57,5.546a9.049,9.049,0,0,0-3.861,3.031s.2.129-.2,1.032a6.13,6.13,0,0,1-2.235,3.031,11.411,11.411,0,0,0-2.71,2.064c-.406.516-4.877,2.386-4.877,2.386l-2.032,5.868-2.235.645-1.558-6.642-1.219-.967-2.3,1.354-2.574,2-3.048,1.806v.452a19.476,19.476,0,0,0,2.981,1.935l4.877,2.967,3.658,2.193s5.283,1.225,5.351,1.548-1.287,1.161-1.287,1.161-2.574-1.032-3.793-1.483-5.622-3.611-6.1-3.8-4.538-2.967-5.555-3.225a12.211,12.211,0,0,0-1.829-.322l-.2-.645-2.506-.774-1.626-1.354-.745-2.193a8.555,8.555,0,0,1-.068-2.128c.136-.838,1.016-3.1,1.829-3.224s4-1.806,4.064-2.193a7.035,7.035,0,0,0,.068-.968l-1.422-1.29-2.642-3.1-4.335-5.159L99.774,2.128A16.42,16.42,0,0,0,97.268,0H96.116a5.582,5.582,0,0,0-.406,1.419c0,.452.813,3.611.813,3.869s1.355,1.806,1.49,2.193,1.626,3.1,1.626,4.063,1.016,3.869.745,5.094a15.772,15.772,0,0,1-1.693,4.708,20.592,20.592,0,0,1-3.048,3.547c-.948.774-1.49.709-1.49,1.354s.881,1.355,1.287,1.741a3.049,3.049,0,0,0,.948.58s1.964,2.58,1.964,2.773.745.709.745.967a40.122,40.122,0,0,0,.136,4.837,13.719,13.719,0,0,0,2.574,3.482c.677.452,2.235,1.87,2.641,2.064a3.432,3.432,0,0,1,1.287,1.29,16.47,16.47,0,0,0,.88,1.612s.61.967,1.355.967,1.829.322,1.829.709.677,1.419.677,1.87-.2,2,.474,2.064,2.506.258,2.506.258l1.829,1.032,1.016,1.1a2.915,2.915,0,0,1,1.151-.129,13.005,13.005,0,0,1,3.725,1.741c.271.387,1.761,2,1.761,2l.88,1.354-.948.064s-1.694-2.966-2.439-3.031-2.3-1.225-3.184-1.225-1.422.064-1.761-.193-.88-1.483-2.032-1.483a6.256,6.256,0,0,1-2.98-.71c-.61-.387-.881-.258-.881-1.032s.068-2.773-.949-3.289-2.1.129-2.574-.71-1.964-2.064-2.1-2.709a3.232,3.232,0,0,0-1.761-1.87c-.745-.258-2.032-2.064-2.71-2.773a5.71,5.71,0,0,1-1.422-3.031c0-.838.406-3.418.067-3.869s-.609-1.548-1.422-1.419-2.032,1.677-2.235,1.677-1.761.129-2.168.129-1.422-.709-1.626-.709-3.251,1.741-3.251,1.741-1.423,1.354-1.964,1.741a7.786,7.786,0,0,0-1.355.967,13.829,13.829,0,0,0-1.287,4.321c0,.967,1.287,3.353.542,4.45a3.407,3.407,0,0,1-2.845,1.741c-.948-.129-2.71-1.806-4.2-1.612s-2.71,0-3.251,1.1-2.506.516-2.506,1.161.677,2.193.677,2.838.948,2.322.948,2.773A11.061,11.061,0,0,1,70.919,56.1a16.727,16.727,0,0,1-1.626,1.741,2.935,2.935,0,0,0-.813,1.548c0,.709-.474,1.483-.474,2.644s.135,2.967-.542,3.418a4.745,4.745,0,0,1-2.439.258c-.474,0-1.219-1.419-2.235-1.29s-1.829.774-1.829,1.29-.271,1.677-.271,2.386a12.706,12.706,0,0,0,.2,2.257c.135.709,1.423,1.225,1.423,1.225l2.506.387s.745.838.745,1.225-.339,2.193-.339,2.58.813,1.29.406,1.87a4.04,4.04,0,0,1-2.1.967c-.2,0-2.032.516-2.506.516a19.59,19.59,0,0,1-3.251-1.935,4.1,4.1,0,0,0-2.235-1.1c-1.761-.451-2.777-3.1-3.861-3.1s-3.658-2.644-4-2.644-2.642-.451-3.455-.451-1.761,1.032-2.439,1.032-1.829-.258-2.235-.258a6.74,6.74,0,0,1-2.506-.838c-.271-.322-3.658-2.257-3.861-2.45a17.7,17.7,0,0,1-2.1-1.935,2.942,2.942,0,0,0-2.3-1.032,3.754,3.754,0,0,1-1.829-.838,1.839,1.839,0,0,1-1.558-1.29c-.406-1.225-1.287-2.064-1.964-2.064s-1.151.9-2.3,1.1-3.793-.645-5.351.129-2.845,1.1-3.184,2.128.406,3.676-.813,4.578S10.3,70.1,8.6,69.967,3.658,68.1,2.981,68.1,0,68.355,0,68.355s1.829,9.286,1.964,10.124S7.587,89.7,8.6,91.441s8.06,14.38,8.06,14.38l1.49-.9,6.367,10.962Z" transform="translate(0 0)" fill="#bbe7f0"/>
    <path id="Path_2850" data-name="Path 2850" d="M0,48.363c.474.61,2.439,3.319,3.116,3.59s2.777.813,3.252,1.626a5.8,5.8,0,0,0,3.387,1.964c.881,0,.2-.474,3.929-.474s2.845.2,4.2.745A22.752,22.752,0,0,1,21,57.914a28.216,28.216,0,0,1,2.574,1.829l1.422,1.219s2.574.677,2.98,1.355,1.152,1.626,1.49,1.626,2.98.271,3.319.271,1.829-.068,1.626-1.084a14.112,14.112,0,0,1-.338-2.642c0-.745,1.084-1.422-.271-1.693s-2.439-.813-2.913-.813-1.422-1.558-1.422-1.9a60.486,60.486,0,0,1,.407-6.435,2.283,2.283,0,0,1,1.9-1.829c.813,0,2.845,1.693,3.183,1.964s1.016.813,1.287.339-.068-2.3.271-2.574a9.292,9.292,0,0,0,.813-2.98c0-.339.135-2.235.135-2.235A12.609,12.609,0,0,0,39.9,40.1a4.535,4.535,0,0,0,.813-2.371c0-.881-.2-1.084-.745-1.964a4.57,4.57,0,0,1-.406-2.506c0-.474-.2-2.574.948-2.71s1.626.068,2.235-.474S44.1,28.923,44.1,28.923s.609-1.151,2.032.068a7.42,7.42,0,0,0,3.387,1.49s.474.61,1.152-.068a2.446,2.446,0,0,0,1.084-2.37c0-1.558-.406-2.439.407-4.742s-.271-2.642,1.422-3.522,1.558-2.032,2.506-2.371,1.084-2.168,2.235-2.168,2.574-.813,3.116-.2.61,1.084,1.423.88,1.761-1.287,1.964-1.355.813-1.016.61-1.49a4.116,4.116,0,0,0-3.116-2.235,9.517,9.517,0,0,0-3.861.136c-.339,0-5.148-.542-6.164-1.287S43.893.813,41.725.542A15.792,15.792,0,0,0,37.593.61,3.587,3.587,0,0,0,35.9,0a12.973,12.973,0,0,0-3.319,1.151c-1.016.406-1.964-.068-2.98.2s-.542,1.287-1.287,2.506A3.3,3.3,0,0,1,25.6,5.351a29.555,29.555,0,0,1-3.658-.406L17,5.148s-7.654,3.319-7.858,4a5.578,5.578,0,0,0-.2,1.558,4.812,4.812,0,0,0,2.709,1.9,1.98,1.98,0,0,1,1.9,1.964v4.4c0,.948-.474,2.3-.474,3.048a5.428,5.428,0,0,1-.339,1.626l5.351-1.152s.068-.88.542.135a36.226,36.226,0,0,1,1.558,6.909c0,1.016,1.423,7.451,1.423,8.128s.406,4.2.271,4.606-5.554.271-5.825.271-1.964-.339-1.964-.339-.271-2.777-.271-3.793-1.422-1.9-1.829-1.9-1.084-.068-1.829-.068-1.964-.2-2.439-.2-1.287-1.152-1.287-1.152a5.508,5.508,0,0,0-.61,2.439c0,1.355-.339,4-.339,4A15.155,15.155,0,0,0,2.98,44.5,30.2,30.2,0,0,1,0,48.363Z" transform="translate(19.447 44.842)" fill="#bbe7f0"/>
    <path id="Path_2851" data-name="Path 2851" d="M0,17.746c.881,1.084.745,2.235,1.219,2.3s1.49,1.287,1.964,1.287,1.016.338,1.355.2-.068-1.016.068-1.558A24.387,24.387,0,0,1,6.57,17.069,25.45,25.45,0,0,1,9.348,13.75c.2,0,1.084-.61.813-2.1a6.014,6.014,0,0,1,.2-3.59,3.69,3.69,0,0,0,.2-1.964s-1.016-.271-1.016-.678S9.415,1.084,9.077.609,7.722,0,7.722,0L3.252,17.408,4,18.559l-.813,1.219L1.49,18.221Z" transform="translate(14.299 68.49)" fill="#bbe7f0"/>
    <path id="Path_2852" data-name="Path 2852" d="M2.327,7.417a4.38,4.38,0,0,0,2.232-.447c.927-.549,5.563-3.983,6.112-4.018s2.541-.79,2.85-.79S15.136,3.3,15.136,3.709a12.719,12.719,0,0,0,.206,2.438c.172.584.893.618.927.481a15.927,15.927,0,0,1,1.477-2.713c.206-.034,2.095-.962,2.2-1.03a7.382,7.382,0,0,0,.378-1.271S19.5.927,19.256.927s-3.64.515-3.64.515a12.1,12.1,0,0,1-4.293,0C9.916.961,7.821,0,7.032,0A7.441,7.441,0,0,0,4.113.686c-1.236.515-2.4.927-2.782,1.923S-.66,4.464.3,5.872A3.278,3.278,0,0,0,2.327,7.417Z" transform="translate(99.067 49.447)" fill="#bbe7f0"/>
    <path id="Path_2853" data-name="Path 2853" d="M0,3.278,1.538,4.937,2.833,4.25s2.1-2.1,2.59-2.792A1.893,1.893,0,0,0,5.706,0L3.683.931Z" transform="translate(120.45 45.41)" fill="#bbe7f0"/>
  </g>
</svg>
