<svg xmlns="http://www.w3.org/2000/svg" width="78.762" height="54.428" viewBox="0 0 78.762 54.428">
  <g id="Group_4170" data-name="Group 4170" transform="translate(-565.238 -615.149)">
    <circle id="Ellipse_428" data-name="Ellipse 428" cx="27.214" cy="27.214" r="27.214" transform="translate(565.238 615.149)" fill="#eaf9fa"/>
    <path id="Ecoe_Icons_-02" d="M65.2,42.165H56.163v-12.6l4,3.912,2.361-2.411L39,8.05,15.236,31.574,17.6,33.969l4.115-4.081V42.232h-8.9L5,61.355l68.448-.135ZM39.013,12.789,52.774,26.279V50.832H47.158V46.751a8.28,8.28,0,0,0-6.425-8.027,5.228,5.228,0,0,0-1.872-10.118h0a5.059,5.059,0,0,0-3.693,1.535,5.211,5.211,0,0,0,0,7.4,5.447,5.447,0,0,0,1.838,1.18,8.179,8.179,0,0,0-3.98,2.192,8.263,8.263,0,0,0-2.395,5.835v4.165H25.118V26.633ZM40.7,33.784a1.838,1.838,0,0,1-1.855,1.855h0a1.8,1.8,0,0,1-1.3-.54,1.838,1.838,0,0,1-.556-1.315,1.922,1.922,0,0,1,.54-1.315,1.855,1.855,0,0,1,1.315-.54h0a1.872,1.872,0,0,1,1.872,1.855ZM15.118,45.638h6.745v8.634h12.26V52.165h0V46.751a4.857,4.857,0,0,1,1.433-3.373,4.789,4.789,0,0,1,3.373-1.433h0a4.89,4.89,0,0,1,4.857,4.806V50.9h0v3.373H56.18V45.554h6.745L68.2,57.881,9.907,58Z" transform="translate(570.552 607.661)" fill="#0a2240"/>
  </g>
</svg>
