<svg xmlns="http://www.w3.org/2000/svg" width="14.758" height="14.758" viewBox="0 0 14.758 14.758">
  <path id="Path_63" data-name="Path 63" d="M11.217,7.244a3.827,3.827,0,0,0-1.166-2.807A3.827,3.827,0,0,0,7.244,3.27,3.827,3.827,0,0,0,4.437,4.437,3.827,3.827,0,0,0,3.27,7.244a3.827,3.827,0,0,0,1.166,2.807,3.827,3.827,0,0,0,2.807,1.166,3.827,3.827,0,0,0,2.807-1.166,3.827,3.827,0,0,0,1.166-2.807Zm4.541,7.379a1.151,1.151,0,0,1-1.135,1.135,1.054,1.054,0,0,1-.8-.337l-3.042-3.033a6.073,6.073,0,0,1-3.539,1.1A6.135,6.135,0,0,1,4.818,13,6.114,6.114,0,0,1,1.492,9.669a6.223,6.223,0,0,1,0-4.851A6.114,6.114,0,0,1,4.818,1.492a6.223,6.223,0,0,1,4.851,0A6.114,6.114,0,0,1,13,4.818a6.135,6.135,0,0,1,.492,2.426,6.073,6.073,0,0,1-1.1,3.539l3.042,3.042a1.086,1.086,0,0,1,.328.8Z" transform="translate(-1 -1)" fill="#00837b" fill-rule="evenodd"/>
</svg>
