<svg xmlns="http://www.w3.org/2000/svg" width="119.542" height="119.499" viewBox="0 0 119.542 119.499">
  <g id="Group_6615" data-name="Group 6615" transform="translate(-327.25 -247.25)">
    <circle id="Ellipse_440" data-name="Ellipse 440" cx="40" cy="40" r="40" transform="translate(344 272)" fill="#dbebea"/>
    <g id="hook" transform="translate(328 248)">
      <path id="Path_3026" data-name="Path 3026" d="M136,272h3.933v3.933H136Zm0,0" transform="translate(-102.567 -205.134)" fill="#183253" stroke="#fff" stroke-width="1.5"/>
      <path id="Path_3027" data-name="Path 3027" d="M168,272h3.933v3.933H168Zm0,0" transform="translate(-126.7 -205.134)" fill="#183253" stroke="#fff" stroke-width="1.5"/>
      <path id="Path_3028" data-name="Path 3028" d="M200,272h3.933v3.933H200Zm0,0" transform="translate(-150.834 -205.134)" fill="#183253" stroke="#fff" stroke-width="1.5"/>
      <path id="Path_3029" data-name="Path 3029" d="M136,304h3.933v3.933H136Zm0,0" transform="translate(-102.567 -229.267)" fill="#183253" stroke="#fff" stroke-width="1.5"/>
      <path id="Path_3030" data-name="Path 3030" d="M168,304h3.933v3.933H168Zm0,0" transform="translate(-126.7 -229.267)" fill="#183253" stroke="#fff" stroke-width="1.5"/>
      <path id="Path_3031" data-name="Path 3031" d="M200,304h3.933v3.933H200Zm0,0" transform="translate(-150.834 -229.267)" fill="#183253" stroke="#fff" stroke-width="1.5"/>
      <path id="Path_3032" data-name="Path 3032" d="M232,304h3.933v3.933H232Zm0,0" transform="translate(-174.967 -229.267)" fill="#183253" stroke="#fff" stroke-width="1.5"/>
      <path id="Path_3033" data-name="Path 3033" d="M264,304h3.933v3.933H264Zm0,0" transform="translate(-199.101 -229.267)" fill="#183253" stroke="#fff" stroke-width="1.5"/>
      <path id="Path_3034" data-name="Path 3034" d="M136,336h3.933v3.933H136Zm0,0" transform="translate(-102.567 -253.401)" fill="#183253" stroke="#fff" stroke-width="1.5"/>
      <path id="Path_3035" data-name="Path 3035" d="M168,336h3.933v3.933H168Zm0,0" transform="translate(-126.7 -253.401)" fill="#183253" stroke="#fff" stroke-width="1.5"/>
      <path id="Path_3036" data-name="Path 3036" d="M200,336h3.933v3.933H200Zm0,0" transform="translate(-150.834 -253.401)" fill="#183253" stroke="#fff" stroke-width="1.5"/>
      <path id="Path_3037" data-name="Path 3037" d="M232,336h3.933v3.933H232Zm0,0" transform="translate(-174.967 -253.401)" fill="#183253" stroke="#fff" stroke-width="1.5"/>
      <path id="Path_3038" data-name="Path 3038" d="M264,336h3.933v3.933H264Zm0,0" transform="translate(-199.101 -253.401)" fill="#183253" stroke="#fff" stroke-width="1.5"/>
      <path id="Path_3039" data-name="Path 3039" d="M136,368h3.933v3.933H136Zm0,0" transform="translate(-102.567 -277.534)" fill="#183253" stroke="#fff" stroke-width="1.5"/>
      <path id="Path_3040" data-name="Path 3040" d="M168,368h3.933v3.933H168Zm0,0" transform="translate(-126.7 -277.534)" fill="#183253" stroke="#fff" stroke-width="1.5"/>
      <path id="Path_3041" data-name="Path 3041" d="M200,368h3.933v3.933H200Zm0,0" transform="translate(-150.834 -277.534)" fill="#183253" stroke="#fff" stroke-width="1.5"/>
      <path id="Path_3042" data-name="Path 3042" d="M232,368h3.933v3.933H232Zm0,0" transform="translate(-174.967 -277.534)" fill="#183253" stroke="#fff" stroke-width="1.5"/>
      <path id="Path_3043" data-name="Path 3043" d="M264,368h3.933v3.933H264Zm0,0" transform="translate(-199.101 -277.534)" fill="#183253" stroke="#fff" stroke-width="1.5"/>
      <path id="Path_3044" data-name="Path 3044" d="M136,400h3.933v3.933H136Zm0,0" transform="translate(-102.567 -301.667)" fill="#183253" stroke="#fff" stroke-width="1.5"/>
      <path id="Path_3045" data-name="Path 3045" d="M168,400h3.933v3.933H168Zm0,0" transform="translate(-126.7 -301.667)" fill="#183253" stroke="#fff" stroke-width="1.5"/>
      <path id="Path_3046" data-name="Path 3046" d="M200,400h3.933v3.933H200Zm0,0" transform="translate(-150.834 -301.667)" fill="#183253" stroke="#fff" stroke-width="1.5"/>
      <path id="Path_3047" data-name="Path 3047" d="M232,400h3.933v3.933H232Zm0,0" transform="translate(-174.967 -301.667)" fill="#183253" stroke="#fff" stroke-width="1.5"/>
      <path id="Path_3048" data-name="Path 3048" d="M264,400h3.933v3.933H264Zm0,0" transform="translate(-199.101 -301.667)" fill="#183253" stroke="#fff" stroke-width="1.5"/>
      <path id="Path_3049" data-name="Path 3049" d="M136,432h3.933v3.933H136Zm0,0" transform="translate(-102.567 -325.801)" fill="#183253" stroke="#fff" stroke-width="1.5"/>
      <path id="Path_3050" data-name="Path 3050" d="M168,432h3.933v3.933H168Zm0,0" transform="translate(-126.7 -325.801)" fill="#183253" stroke="#fff" stroke-width="1.5"/>
      <path id="Path_3051" data-name="Path 3051" d="M200,432h3.933v3.933H200Zm0,0" transform="translate(-150.834 -325.801)" fill="#183253" stroke="#fff" stroke-width="1.5"/>
      <path id="Path_3052" data-name="Path 3052" d="M232,432h3.933v3.933H232Zm0,0" transform="translate(-174.967 -325.801)" fill="#183253" stroke="#fff" stroke-width="1.5"/>
      <path id="Path_3053" data-name="Path 3053" d="M264,432h3.933v3.933H264Zm0,0" transform="translate(-199.101 -325.801)" fill="#183253" stroke="#fff" stroke-width="1.5"/>
      <path id="Path_3054" data-name="Path 3054" d="M116.032,5.9H102.266V1.967A1.967,1.967,0,0,0,100.3,0H80.633a1.967,1.967,0,0,0-1.967,1.967V5.9H1.967A1.967,1.967,0,0,0,0,7.867v7.867A1.966,1.966,0,0,0,1.967,17.7h5.9V55.066a1.966,1.966,0,0,0,1.967,1.967A1.967,1.967,0,1,1,7.867,59H3.933a5.855,5.855,0,0,0,1.5,3.9L.394,69.62l.025.019A1.926,1.926,0,0,0,0,70.8v7.867a1.965,1.965,0,0,0,.576,1.39L4.509,83.99a1.967,1.967,0,0,0,1.39.576h7.867a1.967,1.967,0,0,0,1.39-.576l3.933-3.933a1.965,1.965,0,0,0,.576-1.39V70.8a1.926,1.926,0,0,0-.419-1.16l.025-.019L14.228,62.9a5.864,5.864,0,0,0-2.429-9.46V17.7H78.666v1.967a1.966,1.966,0,0,0,1.967,1.967h3.933v92.433H76.7V35.4H72.766v7.867h-11.8V39.333H57.033v3.933h-11.8V41.3H41.3v1.967H29.5v-5.9H55.066V33.433H29.5V25.566H25.566v88.5H22.447L13.19,104.81a1.966,1.966,0,0,0-2.781,0l-9.257,9.256H0V118H118v-3.933h-1.534a5.847,5.847,0,0,0-2.833-9.6,5.9,5.9,0,1,0-10.934,0,5.847,5.847,0,0,0-2.833,9.6h-3.5V21.633H100.3a1.966,1.966,0,0,0,1.967-1.967V17.7h13.767A1.966,1.966,0,0,0,118,15.733V7.867A1.967,1.967,0,0,0,116.032,5.9ZM10.817,64.9l2.95,3.933H5.9L8.85,64.9Zm4.917,12.953-2.781,2.78H6.714l-2.781-2.78V72.766h11.8ZM107.576,9.833l-5.31,3.541V9.833ZM82.6,3.933h7.867V11.8H82.6ZM29.5,10.227l5.31,3.54H24.189ZM17.7,13.374,12.39,9.833H23.01ZM35.989,9.833H46.61L41.3,13.374Zm17.11.394,5.31,3.54H47.789Zm6.49-.394H70.21L64.9,13.374Zm-55.656,0H5.31l5.9,3.933H3.933Zm67.456,3.933,5.9-3.933h1.377v3.933Zm21.044,93.81-3.54-5.31,3.54-5.309Zm0-47.2-3.54-5.31,3.54-5.309ZM88.5,61.557l3.54,5.309-3.54,5.31Zm0-12.98V37.957l3.54,5.309Zm0,36.58,3.54,5.309-3.54,5.31Zm3.933-1.192-3.54-5.3,3.54-5.309Zm-3.54-52.5,3.54-5.309v10.62Zm-.394-6.49V21.633h2.226ZM72.766,47.2V66.866h-11.8V47.2Zm-15.733,0V64.113l-4.523-4.47a1.972,1.972,0,0,0-1.377-.568h-5.9V47.2ZM41.3,47.2v3.278H29.5V47.2ZM11.8,108.98l5.086,5.086H6.714Zm17.7,5.086V54.411H41.3v6.637a1.966,1.966,0,0,0,1.967,1.967h7.058l7.3,7.216A1.967,1.967,0,0,0,59,70.8H72.766v43.266Zm59-5.309,3.54,5.309H88.5Zm23.6,3.343a1.967,1.967,0,1,1,1.967-1.967A1.966,1.966,0,0,1,112.1,112.1Zm-3.933-11.8a1.967,1.967,0,1,1-1.967,1.967A1.967,1.967,0,0,1,108.166,100.3Zm-3.933,7.867a1.967,1.967,0,1,1-1.967,1.967A1.967,1.967,0,0,1,104.232,108.166ZM98.333,17.7H82.6V15.733h9.833A1.966,1.966,0,0,0,94.4,13.767V3.933h3.933Zm10.423-3.933,5.31-3.54v3.54Zm0,0" fill="#183253" stroke="#fff" stroke-width="1.5"/>
    </g>
  </g>
</svg>
