<svg xmlns="http://www.w3.org/2000/svg" width="139.104" height="129.221" viewBox="0 0 139.104 129.221">
  <g id="Group_5234" data-name="Group 5234" transform="translate(141.516 34.819) rotate(106)">
    <path id="Path_2854" data-name="Path 2854" d="M46.968,6.059l.894.079L50.5,5.545l3.108-.831.809.079,1.532.752H56.8l.638-.712.17-2.492.724-1.226L60.846.481,62.208.64a10.149,10.149,0,0,0,2.426.751c.809.04,5.619-.277,6.258-1.068s2.895.119,2.895.119l-.085.87.936,2.136.17,1.226L74.3,5.94l-.128.989.894,1.543.128,1.661-.341.752.17,1.305a18.308,18.308,0,0,0,2.341.594c.426,0,2.214-1.741,2.214-1.741s2.214-.791,2.427-.831a17.653,17.653,0,0,1,2.171,2.176,8.4,8.4,0,0,0,.468,1.859,15.866,15.866,0,0,0,1.575.237l.213.791,1.235,2.1,1.788,1.78L88.431,20.3a.705.705,0,0,0-.383.672c0,.514.851,2.967.851,3.244s-.213,2.848-.213,2.848l.766,2.136-.341.949-1.235,1.187-.894,1.147s-.17,1.7-.17,2.73-2.937,3.046-2.937,3.046a9.636,9.636,0,0,0-1.022,1.266c-.043.2-.894,1.9-.894,1.9a19.685,19.685,0,0,0-.128,2.453c.085.317,1.958,3.2,1.958,3.2a14.948,14.948,0,0,1,.724,2.057c0,.317-.3,4.945-.3,4.945l-.894,1.226-1.064.712-2.639.791-.852.317-.638,1.187-.213,2.532-.894.514-.17-.752L75.32,61.953l-.085.87-1.7,2.374-.979,2.294-1.15.475a26.979,26.979,0,0,1-3.278-1.385c-.256-.277-.681-.831-.681-.831L65.06,63.575l-1.533-.594-3.448,1.147-.936,1.5-1.4.791a5.432,5.432,0,0,1-1.32.158c-.511-.039-2.767-.514-2.767-.514l-2.128.712-1.064.672-1.447.831-1.788,1.74L46.2,70.26l-2.086-.316s-1.4.554-1.532,1.147-.511,2.729-.511,2.729l-2,2.927s-2.895,1.582-3.193,1.661a11.411,11.411,0,0,0-1.49.91s-1.192.04-1.192-.119a14.606,14.606,0,0,0-.979-1.622l-.426-.079-1.107-1.385-1.618-1.187L27.6,74.375l-1.66-.752L22.107,70.3l3.944-3.684L29.5,61.347l1.111-3.88.613-3.1.8-.463,3.18-.5,1.877-.5L38.5,50.953l1.609-4.877v-.463l-.69-2.67.958-1.994,2.452-.641,3.18.356,2.72-.926,1.149.071,2.337-.641.651-1.637-.881-1.068-.421.854-.345,1.139-1.571.213L48.5,38.386l-1.571.926-1.188.071-1.8-.463s-2.26-.036-2.644,0a16.2,16.2,0,0,0-1.954.641l-.23.57-1.341-.463s-.766-.5-.958-.285a8.116,8.116,0,0,0-.613,1.246s.383,1.353.192,1.5a31.229,31.229,0,0,1-4.061-1.317s-.919-.142-1.264-.214-1-1.281-1-1.281a7.637,7.637,0,0,0-2.184-.926c-.613,0-5.287.89-5.287.89s-.651.427-.23.427,4.636-.748,4.712-.783a10.454,10.454,0,0,1,2.337.748,9.034,9.034,0,0,0,.728,1.21l1.647.641,3.065.819a4.058,4.058,0,0,0,1.3.641,3.14,3.14,0,0,0,.958-.249l-.153-1.816s0-.57.345-.57a3.682,3.682,0,0,1,1.111.427l-.268,1.246-.268,1.78.46,2.492-.46,1.5-.651,1.638-1.3,1.994a4.955,4.955,0,0,1-1.073.463c-.306.036-4.023,0-4.023,0l-.5-1.139-2.3-2.314-2.72-2.314a23.146,23.146,0,0,0-3.448-1.353c-.536,0-3.486-.392-4.214-.392a17.958,17.958,0,0,0-1.954.178l-4.444,1.246L6.9,47.606,3.218,49.458a9.114,9.114,0,0,1-2.452.463A1.379,1.379,0,0,1,0,49.066c0-.107.5-1.958.5-1.958l1.3-1.531.8-.463,2.6-2.563,1.609-2.065,1.686-1.531h.651l1.418-1.46,1.341-1.246.881-1.175L13.37,35l.651.676a15.335,15.335,0,0,0,1.992,1.139c.23,0,.383-.32.383-.32l-1.226-.783-1.188-1.032-.23-.783L15.592,31.2l1.915-3.026,1.034-3.1.843-1,1.073-3.952,1.571.463,3.793.107s3.448-.854,3.908-.819,1.647.676,1.647.89.69,3.346.69,3.346l.307.605,1.3.712,2.26-.036L37.659,25l2.069-1.175h.69l.689-.855-.306-.534L40.647,20.8l1.111-1.78-.038-1.78-.728-2.634s.23-1.46.268-1.638S43.1,10.513,43.1,10.513l.306-1.424S41.911,6.348,41.911,6.17,41.835,4.6,41.835,4.6a8.487,8.487,0,0,1,1.226-.819,9.089,9.089,0,0,0,1.418-.356c.115-.071.843-.641.843-.641a12.979,12.979,0,0,1,1.073,1.744C46.623,5.1,46.968,6.059,46.968,6.059Z" transform="translate(8.753 0)" fill="#bbe7f0"/>
    <path id="Path_2855" data-name="Path 2855" d="M0,0" transform="translate(42.92 44.818)" fill="#bbe7f0"/>
    <path id="Path_2856" data-name="Path 2856" d="M33.087,9.89l-.859.133L31.178,9l-.238-1.375L29.555,6.3l-.573-.754a2.826,2.826,0,0,0-1.67-.976,19.219,19.219,0,0,1-2.673-.31c-.287-.133-1.05-.088-1.193-.222s-2.2-2.395-2.53-2.572S19.866.266,19.007.133A10.727,10.727,0,0,0,17.528,0L13.089,2.217,8.46,3.77s-.334-.443-.668-.443a10.737,10.737,0,0,0-1.718.532L1.635,6.342.776,7.1A3.66,3.66,0,0,0,.107,8.382C.06,8.87.25,10.777.25,10.777L.68,12.95l.239,1.242-.1.976,1.193,1.242.954.488s.43.8.764.842.907.4,1.528.044S7.123,16.5,7.123,16.5l1.957-.133,1.336-.665,1.241-.089,3.436-1.863,1.48-.222,1.288-.133,1.528.177,1.813-.177,1.1.177.573.488.573.266.525.044L24.5,16.1s-.191.488-.477.4-.62-1.419-.62-1.419l-.811-.177-.955-.621-2.386.044-2.864-.177a15.691,15.691,0,0,0-2,.576,11.739,11.739,0,0,1-1.623,1.2,16.1,16.1,0,0,1-2.386.754s-1.384.355-1.575.355-1.241.044-1.241.044L5.882,18.405l-1.145.31a12.045,12.045,0,0,1-1.623-.133,5.231,5.231,0,0,1-.764-.931s-.907-.8-1.289-.71a.84.84,0,0,0-.525.532v2L.3,21.11.012,23.993a2.2,2.2,0,0,0,.048.754,8.6,8.6,0,0,0,.954.887l1.48.621H4.4l1.957.133a.547.547,0,0,0,.716-.222c.334-.444-.048-1.153-.048-1.153l.191-.931,1.67-.887,2.768-.931s.668.089.286.31-1.67.71-1.67.71l-1.432.532-.621.532s-.191.044-.143.355.286.71.286.843-.477,1.02-.621,1.02-1.384.222-1.384.488.382.443.382.443l1.861.355a10.018,10.018,0,0,0,2.1.488c.477-.044,2.386-.665,2.53-.665a5.45,5.45,0,0,1,1.241.355A5.52,5.52,0,0,0,16,27.984l2.768-.71,1.766.576,1.67,1.109a6.638,6.638,0,0,1,1.384.887c.1.222.955.089.955.8a8.067,8.067,0,0,1-.287,1.73,1.314,1.314,0,0,0-.429.931c-.1.71-.1,2.705-.477,3.06a2.554,2.554,0,0,0-.573.887l-.048,1.02.286.532,1.384.044,2.052-.754s1.05-.222,1,.133-.191,1.02-.668,1.2-1.527.444-1.527.444a9.99,9.99,0,0,0-1.527.089c-.191.089-1.241.488-1.337,1.2s-.048,3.237-.907,5.011a39.112,39.112,0,0,0-2,4.923c0,.266-.334,2.217-.382,2.661a3.74,3.74,0,0,0,.048,1.641c.191.31,3.15,3.237,3.532,3.237s1.384-.4,1.623-.4,2.148.532,2.148.532.334.887.955,1.064A6.219,6.219,0,0,0,28.839,60a3.834,3.834,0,0,0,.621-1.02c.048-.31-.1-.133.048-.31s-.048-.621-.048-.621l-1.718-.8-1.957-1.6-.477-.931.286-1.685.907-.8a3.087,3.087,0,0,1,1.479-.532c.621.044,1.766-.089,1.766.842s-.191,2.528-.191,2.528a3.8,3.8,0,0,1,1.384,1.286,3.565,3.565,0,0,0,2.72,1.2c.668-.089,1.48.044,1.862-.4a20.546,20.546,0,0,0,1.336-2.794l.239-.8-.191-.71,1.241-.4.716-.311.716-1.508.907-.976-.43-2,.048-2.129s.668-1.02,1.193-1.2,1.671-.444,1.718-.976.048-1.464.048-1.818-1.671-1.6-1.671-1.6a16.255,16.255,0,0,0,1.575-1.375,4.361,4.361,0,0,0,1.05-2.085c0-.576.048-2.306.048-2.306l-1.623-.576-1-.355-.668-2.705-1-1.2-1.193.577-1.337.044L37,30.956l-1.145,1.02-1.05-.4-1.479.488-1.67-.887.43-1.907.764-.4.955-.044s.525.754.907.621,1.05-1.286,1.05-1.286l.62-2.084-.191-1.109-1.241.177-.764-.8-.048-1.463v-1.02l-1.623-1.951.43-1.064,1.957-.222.859-.8-1.05-3.016-.811-.222-1.623.754-1.146-.931.382-.931.429-1.286.811-1.064Z" transform="translate(10.724 71.503)" fill="#bbe7f0"/>
    <path id="Path_2857" data-name="Path 2857" d="M34.467,6.18a6.2,6.2,0,0,0-.418-1.594,11.3,11.3,0,0,0-1.631-.933c-.209,0-2.342-1.2-2.719-1.2s-2.05.467-2.635.467-1.3.544-2.133.427-1.255-.311-1.673-.311-2.049.583-2.259.583S19.283,3.3,19.283,3.3s-.753-.622-1.046-.622a11.843,11.843,0,0,1-1.8-.544c-.335-.117-.084-.738-1.422-.738a6.442,6.442,0,0,1-2.3-.194C12.172,1.011,11.21,0,10.624,0s-.669,1.36-.669,1.36L8.742,5.053,7.236,8.318,5.731,10.533,4.518,12.671,2.97,14.887,1.506,16.869.586,18.5.418,20.639.167,21.883,0,22.893.125,24.1l.251,1.01.753,1.671,1.255,1.71.878.661,1.213-.117L5.814,28.3l1.631-1.05,2.761-1.011,2.133-.35H14.6l3.053-.7.92.467,3.3.427h.753l2.635.7,2.133.583S28.82,26,28.82,25.653s1.339-3.226,1.339-4a11.4,11.4,0,0,1,.711-2.449c0-.117.669-3.77.669-3.926s.418-1.477.418-1.477l.377-.855.126-1.166a6.306,6.306,0,0,0,.669-1.438c0-.311.376-2.682.46-3.032A4.462,4.462,0,0,1,34.467,6.18Z" transform="translate(0 97.171)" fill="#bbe7f0"/>
  </g>
</svg>
