<svg xmlns="http://www.w3.org/2000/svg" width="176.789" height="161.411" viewBox="0 0 176.789 161.411">
  <g id="Group_5231" data-name="Group 5231" transform="translate(-210.531 -339.706)">
    <path id="Path_2849" data-name="Path 2849" d="M243.112,380.56l-.727,2.1-3.746,21.551-2.554,14.476-.9,5.446-.431,2.031-1.511,3.578-7.661,12.881s-1.2,2.744-1.078,3.637a4.836,4.836,0,0,1,.053,1.277,6.035,6.035,0,0,1-.94,1.567l.2.935a38.449,38.449,0,0,0-3.276,3.067,1.436,1.436,0,0,0,.157.808l-.816.585.443,1.785-.568.135.481,1.7-.819,1.523-.662-.12.351,3.982-.856.1-1.915,2.283-1.3-2.627-1.764.429-.535,1.925-.909.331.579,1.589.511.463-.8,1.374.627.781-.077,3.56-.683.753-1.454,5.07s1.81,5.54,1.949,5.922a16.775,16.775,0,0,1-.565,3.161s10.519-.513,11.549-.887,8.687-2.154,8.687-2.154l1.406.282,3.675,2.555,2.666,1.477,5.074,1.685a4.811,4.811,0,0,0,2.283-.326,30.294,30.294,0,0,0,4.306-3.441l5.928-6.339s10.1-.721,10.942-.667a12.069,12.069,0,0,1,2.747.947s12.942-.09,13.245-.2,5.443,1.19,6.165,1.288a38.069,38.069,0,0,1,4.561,2.16L307.312,489l7.88,3.547,6.069,2.908,7.055,2.982,3.489,1.109L336,500.683l4.548.434,3.568,0,2.288-.689a3.234,3.234,0,0,0,1.613-.659c1.119-.7,1.992-.938,2.291-1.627s2.211-4.481,2.211-4.481l2.034-3.84s.681-5.294,1.424-6.645a54.239,54.239,0,0,0,2.137-6.761l-3.287-1.111,1.194-3.318a37.521,37.521,0,0,1,2.637-4.636,10.361,10.361,0,0,1,2.691-1.844l4.487-1.057a20.353,20.353,0,0,1,3.47-1.406c.674-.033,2.481.971,3.4.853a17.071,17.071,0,0,1,3.433.193c.372.077,1.4,1.005,1.927.957a16.954,16.954,0,0,0,3.012-1.529c.279-.174,1.272-.463,1.579,0s.823.565,1.815.275,2.9-1.269,2.856-2.337-.6-1.654-1.565-2.6-6.273-2.907-7.459-4.277a9.05,9.05,0,0,0-4.168-2.591s-.053.232-1.039.165a6.13,6.13,0,0,1-3.612-1.064,11.4,11.4,0,0,0-2.867-1.841c-.623-.205-3.91-3.766-3.91-3.766l-6.209.1-1.37-1.88,5.708-3.735.492-1.477-2.059-1.7-2.76-1.734-2.739-2.247-.425.155a19.458,19.458,0,0,0-.8,3.463l-1.12,5.6-.809,4.188s.655,5.383.375,5.558-1.531-.813-1.531-.813.089-2.771.1-4.071,1.471-6.518,1.485-7.032,1.236-5.279,1.13-6.323a12.2,12.2,0,0,0-.323-1.829l.538-.408-.13-2.62.716-1.991,1.806-1.45a8.6,8.6,0,0,1,1.977-.792c.834-.159,3.26-.1,3.655.616s3.065,3.141,3.451,3.069a7.022,7.022,0,0,0,.932-.267l.726-1.778,2.01-3.543,3.365-5.838,4.866-5.885a16.417,16.417,0,0,0,1.142-3.082l-.394-1.083a5.552,5.552,0,0,0-1.472.1c-.425.155-3.115,2-3.358,2.087s-1.233,1.891-1.551,2.15-2.357,2.589-3.262,2.918-3.288,2.278-4.532,2.442a15.782,15.782,0,0,1-5,.02,20.669,20.669,0,0,1-4.375-1.651c-1.052-.627-1.176-1.158-1.782-.937s-.972,1.291-1.2,1.8a3.042,3.042,0,0,0-.221,1.09s-1.753,2.728-1.934,2.794-.411.942-.654,1.03a40.19,40.19,0,0,0-4.5,1.782,13.742,13.742,0,0,0-2.391,3.61c-.194.791-.993,2.74-1.037,3.188a3.413,3.413,0,0,1-.772,1.65,16.36,16.36,0,0,0-1.213,1.379s-.7.9-.446,1.6.323,1.829-.04,1.961-1.1,1.121-1.526,1.276-1.948.5-1.777,1.151.614,2.443.614,2.443l-.344,2.072-.686,1.331a2.925,2.925,0,0,1,.515,1.037,13.015,13.015,0,0,1-.362,4.1c-.271.387-1.277,2.339-1.277,2.339l-.972,1.29-.384-.869s2.208-2.606,2.014-3.329.364-2.58.062-3.411-.546-1.314-.421-1.72,1.093-1.335.7-2.417a6.249,6.249,0,0,1-.352-3.043c.155-.706-.059-.916.668-1.181s2.629-.885,2.766-2.017-.839-1.929-.213-2.661,1.268-2.552,1.827-2.9a3.23,3.23,0,0,0,1.155-2.295c-.012-.788,1.245-2.615,1.679-3.5A5.709,5.709,0,0,1,342.811,421c.788-.287,3.351-.788,3.659-1.261s1.246-1.1.847-1.821-2.271-1.336-2.341-1.527-.723-1.611-.862-1.993.18-1.579.11-1.771-2.748-2.459-2.748-2.459-1.759-.874-2.308-1.25a7.822,7.822,0,0,0-1.372-.943,13.836,13.836,0,0,0-4.5.269c-.909.331-2.711,2.356-4,2.031a3.407,3.407,0,0,1-2.609-2.078c-.2-.935.77-3.164.079-4.5s-.927-2.546-2.146-2.679-1.342-2.178-1.948-1.957-1.829,1.386-2.435,1.606-1.858,1.685-2.282,1.84a11.091,11.091,0,0,1-2.791-.349,16.83,16.83,0,0,1-2.192-.932,2.925,2.925,0,0,0-1.732-.235c-.667.242-1.556.062-2.647.459s-2.742,1.142-3.4.66a4.753,4.753,0,0,1-1.077-2.2c-.162-.445.917-1.631.448-2.541s-1.353-1.454-1.838-1.278-1.668.319-2.335.561a12.815,12.815,0,0,0-2.052.96c-.62.37-.665,1.756-.665,1.756l.494,2.488s-.533.986-.9,1.119-2.177.431-2.541.564-.934,1.205-1.618,1.021a4.047,4.047,0,0,1-1.627-1.643c-.068-.188-1.18-1.733-1.342-2.178a19.575,19.575,0,0,1,.706-3.717,4.1,4.1,0,0,0,.27-2.477c-.179-1.809,1.963-3.669,1.592-4.688s1.234-4.342,1.117-4.663-.48-2.637-.758-3.4-1.572-1.3-1.8-1.939-.383-1.807-.522-2.188a6.735,6.735,0,0,1-.07-2.642c.21-.365.87-4.209.982-4.466a17.7,17.7,0,0,1,1.1-2.635,2.943,2.943,0,0,0,.183-2.514,3.746,3.746,0,0,1,.162-2.006,1.837,1.837,0,0,1,.679-1.9,2.718,2.718,0,0,0,1.268-2.551c-.232-.636-1.239-.774-1.82-1.785s-.691-3.785-1.952-4.985-2.006-2.3-3.088-2.264-3.316,1.639-4.58.8-2.336-.728-2.793-2.371.065-5.282-.167-5.919-1.259-2.714-1.259-2.714-8.1,4.9-8.842,5.309-8.621,9.121-9.911,10.669-10.756,12.492-10.756,12.492l1.356,1.092L243.119,379Z" fill="#afe0eb"/>
    <path id="Path_2850" data-name="Path 2850" d="M262.7,366.48c-.411.654-2.285,3.427-2.308,4.156s.186,2.887-.416,3.612a5.8,5.8,0,0,0-.687,3.854c.3.828.514.026,1.789,3.53s.785,2.742.737,4.2a22.761,22.761,0,0,1-.908,3.646,28.087,28.087,0,0,1-.838,3.044l-.659,1.753s.244,2.651-.254,3.264-1.134,1.639-1.019,1.956.765,2.893.881,3.212.689,1.695,1.575,1.157a14.021,14.021,0,0,1,2.367-1.221c.7-.255,1.707.532,1.5-.834s-.07-2.57-.233-3.015.978-1.869,1.3-1.986a60.456,60.456,0,0,1,6.186-1.819,2.285,2.285,0,0,1,2.368,1.16c.278.764-.618,3.253-.757,3.663s-.416,1.233.122,1.325,2.138-.85,2.511-.625a9.281,9.281,0,0,0,3.079-.256c.318-.116,2.146-.637,2.146-.637a12.612,12.612,0,0,0,2.931,1.526,4.524,4.524,0,0,0,2.506-.047c.828-.3.95-.558,1.591-1.371a4.567,4.567,0,0,1,2.216-1.239c.445-.162,2.35-1.068,2.871-.036s.492,1.551,1.209,1.938,1.546.879,1.546.879,1.29.179.632,1.933a7.4,7.4,0,0,0-.242,3.692s-.411.654.458,1.06a2.447,2.447,0,0,0,2.6.208c1.464-.533,2.153-1.216,4.6-1.24s2.39-1.158,3.8.132,2.442.769,3.085,1.544,2.408.277,2.8,1.359,1.644,2.14,1.253,2.859-.81.944-.34,1.638,1.812,1.215,1.945,1.383,1.233.416,1.609.063a4.114,4.114,0,0,0,1.034-3.692,9.524,9.524,0,0,0-1.448-3.582c-.116-.318-1.252-5.023-.9-6.232s5.466-10.933,4.98-13.063a15.793,15.793,0,0,0-1.478-3.86,3.594,3.594,0,0,0-.005-1.8,12.984,12.984,0,0,0-2.217-2.726c-.729-.815-.608-1.868-1.207-2.731s-1.4-.07-2.8-.353a3.3,3.3,0,0,1-2.332-2.039,29.485,29.485,0,0,1-.87-3.576l-1.881-4.575s-5.737-6.057-6.446-6.016a5.564,5.564,0,0,0-1.533.345,4.815,4.815,0,0,0-.859,3.2,1.98,1.98,0,0,1-1.2,2.457l-4.134,1.505c-.891.324-2.324.341-3.026.6a5.419,5.419,0,0,1-1.644.237l2.912,4.635s.851-.238.059.555a36.252,36.252,0,0,1-5.96,3.827c-.954.348-6.515,3.886-7.151,4.117s-3.808,1.818-4.235,1.83-2.155-5.126-2.247-5.381-.353-1.961-.353-1.961,2.516-1.205,3.471-1.552a2.479,2.479,0,0,0,1.16-2.369c-.139-.382-.307-1.042-.562-1.742s-.483-1.914-.646-2.36.642-1.6.642-1.6a5.513,5.513,0,0,0-2.5.26c-1.273.464-3.875,1.05-3.875,1.05a15.171,15.171,0,0,0-3.651-1.342A30.276,30.276,0,0,1,262.7,366.48Z" fill="#afe0eb"/>
    <path id="Path_2851" data-name="Path 2851" d="M267.484,359.259c-.718,1.2-1.846,1.464-1.745,1.932s-.7,1.84-.537,2.286.03,1.07.275,1.341.932-.411,1.488-.469a24.424,24.424,0,0,1,3.4.852,25.451,25.451,0,0,1,4.069,1.475c.068.188.944.81,2.251.046a6.017,6.017,0,0,1,3.442-1.04,3.687,3.687,0,0,0,1.914-.484s-.093-1.047.29-1.186,4.028-1.6,4.359-2.085a2.4,2.4,0,0,0,.109-1.481L268.914,362.2l-.826,1.1-1.424-.347.883-2.128Z" fill="#afe0eb"/>
    <path id="Path_2852" data-name="Path 2852" d="M324.873,431.055A4.376,4.376,0,0,0,326.056,433c.833.683,5.646,3.865,5.866,4.369s1.612,2.118,1.717,2.408a3.371,3.371,0,0,1-.9,2.047,12.7,12.7,0,0,0-2.221,1.027c-.49.362-.275,1.051-.135,1.036a15.927,15.927,0,0,1,3.055.46c.1.182,1.621,1.639,1.72,1.715a7.33,7.33,0,0,0,1.324-.08,4.02,4.02,0,0,0,.28-1.238c-.083-.229-1.729-3.245-1.729-3.245a12.089,12.089,0,0,1-1.468-4.034c-.029-1.486.157-3.784-.112-4.525a7.446,7.446,0,0,0-1.643-2.508c-.907-.986-1.692-1.939-2.759-1.957s-2.424-1.236-3.419.147A3.276,3.276,0,0,0,324.873,431.055Z" fill="#afe0eb"/>
    <path id="Path_2853" data-name="Path 2853" d="M339.073,446.166l-1.033,2.013,1.089.981s2.691,1.256,3.509,1.479a1.892,1.892,0,0,0,1.467-.232l-1.567-1.583Z" fill="#afe0eb"/>
  </g>
</svg>
